{
.appVersion = "926";
classes = (
{
automatic = 1;
code = "A Aacute Abreve Acircumflex Adieresis Agrave Amacron Aogonek Aring Atilde AE B C Cacute Ccaron Ccedilla D Eth Dcaron Dcroat E Eacute Ecaron Ecircumflex Edieresis Edotaccent Egrave Emacron Eogonek F G Gbreve Gcommaaccent H I Iacute Icircumflex Idieresis Idotaccent Igrave Imacron Iogonek Itilde J Jcircumflex K Kcommaaccent L Lacute Lcaron Lcommaaccent Lslash M N Nacute Ncaron Ncommaaccent Ntilde O Oacute Ocircumflex Odieresis Ograve Ohungarumlaut Omacron Oslash Otilde OE P Thorn Q R Racute Rcaron Rcommaaccent S Sacute Scaron Scedilla Scommaaccent T Tcaron Tcommaaccent U Uacute Ucircumflex Udieresis Ugrave Uhungarumlaut Umacron Uogonek Uring V W X Y Yacute Ydieresis Z Zacute Zcaron Zdotaccent A-cy Be-cy Ve-cy Ge-cy Gje-cy Gheupturn-cy De-cy Ie-cy Iegrave-cy Io-cy Zhe-cy Ze-cy Ii-cy Iishort-cy Iigrave-cy Ka-cy Kje-cy El-cy Em-cy En-cy O-cy Pe-cy Er-cy Es-cy Te-cy U-cy Ushort-cy Ef-cy Ha-cy Che-cy Tse-cy Sha-cy Shcha-cy Dzhe-cy Softsign-cy Hardsign-cy Yeru-cy Lje-cy Nje-cy Dze-cy E-cy Ereversed-cy I-cy Yi-cy Je-cy Tshe-cy Iu-cy Ia-cy Dje-cy Yat-cy Yusbig-cy Fita-cy Izhitsa-cy Ghestroke-cy Ghemiddlehook-cy Zhedescender-cy Zedescender-cy Kadescender-cy Kaverticalstroke-cy Kabashkir-cy Endescender-cy Pedescender-cy Esdescender-cy Ustrait-cy Ustraitstroke-cy Chedescender-cy Cheverticalstroke-cy Shha-cy Palochka-cy Zhebreve-cy Chekhakassian-cy Abreve-cy Adieresis-cy Iebreve-cy Schwa-cy Zhedieresis-cy Zedieresis-cy Imacron-cy Idieresis-cy Odieresis-cy Obarred-cy Umacron-cy Udieresis-cy Uhungarumlaut-cy Chedieresis-cy Gedescender-cy Yerudieresis-cy Qa-cy We-cy";
name = Uppercase;
}
);
copyright = "Copyright (c) 2005-2012 by Jovanny Lemonad. All rights reserved.";
customParameters = (
{
name = trademark;
value = "Scada Italic is a trademark of Jovanny Lemonad.";
},
{
name = license;

glyphs = (
{
glyphname = A;
layers = (
{
layerId = UUID0;
paths = (
{
closed = 1;
nodes = (
"90 0 LINE",
"176 180 LINE",
"406 180 LINE",
"430 0 LINE",
"530 0 LINE",
"448 700 LINE",
"318 700 LINE",
"-10 0 LINE"
);
},
{
closed = 1;
nodes = (
"337 525 LINE",
"344 540 OFFCURVE",
"350 556 OFFCURVE",
"355 571 CURVE SMOOTH",
"358 579 OFFCURVE",
"360 587 OFFCURVE",
"362 595 CURVE",
"366 595 LINE",
"365 588 OFFCURVE",
"365 580 OFFCURVE",
"365 572 CURVE SMOOTH",
"365 557 OFFCURVE",
"364 540 OFFCURVE",
"367 525 CURVE",
"399 250 LINE",
"209 250 LINE"
);
}
);
width = 570;
},
{
layerId = "EFCBAD9B-4238-4620-A1C0-521E4552FF66";
paths = (
{
closed = 1;
nodes = (
"130 0 LINE",
"203 160 LINE",
"403 160 LINE",
"420 0 LINE",
"560 0 LINE",
"478 700 LINE",
"318 700 LINE",
"-10 0 LINE"
);
},
{
closed = 1;
nodes = (
"341 460 LINE",
"348 477 OFFCURVE",
"354 493 OFFCURVE",
"359 509 CURVE SMOOTH",
"367 535 LINE",
"371 535 LINE",
"370 526 OFFCURVE",
"369 518 OFFCURVE",
"369 509 CURVE SMOOTH",
"368 494 OFFCURVE",
"368 476 OFFCURVE",
"371 460 CURVE",
"394 250 LINE",
"244 250 LINE"
);
}
);
width = 600;
}
);
unicode = 0041;
},
{
glyphname = AE;
layers = (
{
layerId = UUID0;
paths = (
{
closed = 1;
nodes = (
"55 0 LINE",
"175 200 LINE",
"405 200 LINE",
"370 0 LINE",
"760 0 LINE",
"772 70 LINE",
"482 70 LINE",
"528 330 LINE",
"758 330 LINE",
"770 400 LINE",
"540 400 LINE",
"581 630 LINE",
"871 630 LINE",
"883 700 LINE",
"373 700 LINE",
"-45 0 LINE"
);
},
{
closed = 1;
nodes = (
"431 630 LINE",
"481 630 LINE",
"417 270 LINE",
"217 270 LINE"
);
}
);
width = 815;
},
{
layerId = "EFCBAD9B-4238-4620-A1C0-521E4552FF66";
paths = (
{
closed = 1;
nodes = (
"90 0 LINE",
"203 190 LINE",
"408 190 LINE",
"375 0 LINE",
"795 0 LINE",
"810 90 LINE",
"530 90 LINE",
"571 320 LINE",
"791 320 LINE",
"807 410 LINE",
"587 410 LINE",
"622 610 LINE",
"902 610 LINE",
"918 700 LINE",
"368 700 LINE",
"-50 0 LINE"
);
},
{
closed = 1;
nodes = (
"452 610 LINE",
"482 610 LINE",
"424 280 LINE",
"259 280 LINE"
);
}
);
width = 845;
}
);
unicode = 00C6;
},
{
glyphname = B;
layers = (
{
layerId = UUID0;
paths = (
{
closed = 1;
nodes = (
"255 0 LINE SMOOTH",
"424 0 OFFCURVE",
"513 75 OFFCURVE",
"533 190 CURVE SMOOTH",
"546 267 OFFCURVE",
"518 311 OFFCURVE",
"489 338 CURVE SMOOTH",
"472 353 OFFCURVE",
"450 364 OFFCURVE",
"425 370 CURVE",
"447 376 OFFCURVE",
"468 386 OFFCURVE",
"487 399 CURVE SMOOTH",
"520 422 OFFCURVE",
"555 460 OFFCURVE",
"567 525 CURVE SMOOTH",
"586 625 OFFCURVE",
"522 700 OFFCURVE",
"378 700 CURVE SMOOTH",
"188 700 LINE",
"65 0 LINE"
);
},
{
closed = 1;
nodes = (
"223 330 LINE",
"313 330 LINE",
"413 330 OFFCURVE",
"450 285 OFFCURVE",
"435 200 CURVE SMOOTH",
"420 115 OFFCURVE",
"367 70 OFFCURVE",
"267 70 CURVE SMOOTH",
"177 70 LINE"
);
},
{
closed = 1;
nodes = (
"276 630 LINE",
"366 630 LINE SMOOTH",
"442 630 OFFCURVE",
"478 586 OFFCURVE",
"465 515 CURVE SMOOTH",
"453 444 OFFCURVE",
"401 400 OFFCURVE",
"325 400 CURVE SMOOTH",
"235 400 LINE"
);
}
);
width = 575;
},
{
layerId = "EFCBAD9B-4238-4620-A1C0-521E4552FF66";
paths = (
{
closed = 1;
nodes = (
"270 0 LINE SMOOTH",
"460 0 OFFCURVE",
"548 75 OFFCURVE",
"569 195 CURVE SMOOTH",
"582 272 OFFCURVE",
"552 317 OFFCURVE",
"520 341 CURVE SMOOTH",
"501 355 OFFCURVE",
"477 365 OFFCURVE",
"450 370 CURVE",
"474 375 OFFCURVE",
"496 384 OFFCURVE",
"517 396 CURVE SMOOTH",
"552 417 OFFCURVE",
"589 455 OFFCURVE",
"601 520 CURVE SMOOTH",
"620 624 OFFCURVE",
"558 700 OFFCURVE",
"393 700 CURVE SMOOTH",
"183 700 LINE",
"60 0 LINE"
);
},
{
closed = 1;
nodes = (
"256 320 LINE",
"326 320 LINE",
"409 320 OFFCURVE",
"444 282 OFFCURVE",
"431 205 CURVE SMOOTH",
"417 128 OFFCURVE",
"368 90 OFFCURVE",
"285 90 CURVE SMOOTH",
"215 90 LINE"
);
},
{
closed = 1;
nodes = (
"307 610 LINE",
"377 610 LINE SMOOTH",
"437 610 OFFCURVE",
"470 570 OFFCURVE",
"459 510 CURVE SMOOTH",
"448 450 OFFCURVE",
"402 410 OFFCURVE",
"342 410 CURVE SMOOTH",
"272 410 LINE"
);
}
);
width = 610;
}
);
unicode = 0042;
},
{
glyphname = C;
layers = (
{
layerId = UUID0;
paths = (
{
closed = 1;
nodes = (
"344 -10 OFFCURVE",
"389 2 OFFCURVE",
"421 17 CURVE SMOOTH",
"440 25 OFFCURVE",
"457 34 OFFCURVE",
"472 45 CURVE",
"448 105 LINE",
"438 105 LINE",
"426 96 OFFCURVE",
"413 89 OFFCURVE",
"400 82 CURVE SMOOTH",
"377 71 OFFCURVE",
"345 60 OFFCURVE",
"310 60 CURVE SMOOTH",
"210 60 OFFCURVE",
"151 130 OFFCURVE",
"191 350 CURVE SMOOTH",
"231 570 OFFCURVE",
"311 640 OFFCURVE",
"402 640 CURVE SMOOTH",
"437 640 OFFCURVE",
"465 628 OFFCURVE",
"484 617 CURVE SMOOTH",
"495 610 OFFCURVE",
"505 603 OFFCURVE",
"514 595 CURVE",
"524 595 LINE",
"570 655 LINE",
"559 665 OFFCURVE",
"545 674 OFFCURVE",
"529 682 CURVE SMOOTH",
"501 697 OFFCURVE",
"461 710 OFFCURVE",
"405 710 CURVE SMOOTH",
"255 710 OFFCURVE",
"136 609 OFFCURVE",
"91 350 CURVE SMOOTH",
"46 90 OFFCURVE",
"127 -10 OFFCURVE",
"288 -10 CURVE SMOOTH"
);
}
);
width = 515;
},
{
layerId = "EFCBAD9B-4238-4620-A1C0-521E4552FF66";
paths = (
{
closed = 1;
nodes = (
"360 -10 OFFCURVE",
"408 2 OFFCURVE",
"443 17 CURVE SMOOTH",
"463 25 OFFCURVE",
"481 34 OFFCURVE",
"497 45 CURVE",
"467 125 LINE",
"457 125 LINE",
"446 116 OFFCURVE",
"434 109 OFFCURVE",
"421 102 CURVE SMOOTH",
"398 91 OFFCURVE",
"366 80 OFFCURVE",
"329 80 CURVE SMOOTH",
"239 80 OFFCURVE",
"189 139 OFFCURVE",
"226 350 CURVE SMOOTH",
"263 561 OFFCURVE",
"334 620 OFFCURVE",
"414 620 CURVE SMOOTH",
"451 620 OFFCURVE",
"479 608 OFFCURVE",
"498 597 CURVE SMOOTH",
"509 590 OFFCURVE",
"519 583 OFFCURVE",
"526 575 CURVE",
"536 575 LINE",
"595 655 LINE",
"583 665 OFFCURVE",
"568 674 OFFCURVE",
"551 682 CURVE SMOOTH",
"522 697 OFFCURVE",
"477 710 OFFCURVE",
"420 710 CURVE SMOOTH",
"255 710 OFFCURVE",
"131 605 OFFCURVE",
"86 350 CURVE SMOOTH",
"41 95 OFFCURVE",
"127 -10 OFFCURVE",
"303 -10 CURVE SMOOTH"
);
}
);
width = 535;
}
);
unicode = 0043;
},
{
glyphname = D;
layers = (
{
layerId = UUID0;
paths = (
{
closed = 1;
nodes = (
"215 0 LINE",
"405 0 OFFCURVE",
"521 99 OFFCURVE",
"566 350 CURVE",
"609 601 OFFCURVE",
"529 700 OFFCURVE",
"338 700 CURVE SMOOTH",
"188 700 LINE",
"65 0 LINE"
);
},
{
closed = 1;
nodes = (
"276 630 LINE",
"326 630 LINE SMOOTH",
"445 630 OFFCURVE",
"503 561 OFFCURVE",
"466 350 CURVE SMOOTH",
"429 139 OFFCURVE",
"348 70 OFFCURVE",
"227 70 CURVE SMOOTH",
"177 70 LINE"
);
}
);
width = 585;
},
{
layerId = "EFCBAD9B-4238-4620-A1C0-521E4552FF66";
paths = (
{
closed = 1;
nodes = (
"230 0 LINE",
"430 0 OFFCURVE",
"558 110 OFFCURVE",
"601 350 CURVE SMOOTH",
"644 590 OFFCURVE",
"553 700 OFFCURVE",
"353 700 CURVE SMOOTH",
"183 700 LINE",
"60 0 LINE"
);
},
{
closed = 1;
nodes = (
"307 610 LINE",
"337 610 LINE SMOOTH",
"447 610 OFFCURVE",
"496 550 OFFCURVE",
"461 350 CURVE SMOOTH",
"426 150 OFFCURVE",
"354 90 OFFCURVE",
"245 90 CURVE SMOOTH",
"215 90 LINE"
);
}
);
width = 615;
}
);
unicode = 0044;
},
{
glyphname = Eth;
layers = (
{
layerId = UUID0;
paths = (
{
closed = 1;
nodes = (
"215 0 LINE",
"405 0 OFFCURVE",
"521 99 OFFCURVE",
"566 350 CURVE",
"609 601 OFFCURVE",
"529 700 OFFCURVE",
"338 700 CURVE SMOOTH",
"188 700 LINE",
"135 400 LINE",
"80 400 LINE",
"66 320 LINE",
"121 320 LINE",
"65 0 LINE"
);
},
{
closed = 1;
nodes = (
"221 320 LINE",
"336 320 LINE",
"350 400 LINE",
"235 400 LINE",
"276 630 LINE",
"326 630 LINE SMOOTH",
"445 630 OFFCURVE",
"503 561 OFFCURVE",
"466 350 CURVE SMOOTH",
"429 139 OFFCURVE",
"348 70 OFFCURVE",
"227 70 CURVE SMOOTH",
"177 70 LINE"
);
}
);
width = 585;
},
{
layerId = "EFCBAD9B-4238-4620-A1C0-521E4552FF66";
paths = (
{
closed = 1;
nodes = (
"235 0 LINE SMOOTH",
"435 0 OFFCURVE",
"563 110 OFFCURVE",
"606 350 CURVE SMOOTH",
"649 590 OFFCURVE",
"558 700 OFFCURVE",
"358 700 CURVE SMOOTH",
"188 700 LINE",
"137 410 LINE",
"82 410 LINE",
"64 310 LINE",
"119 310 LINE",
"65 0 LINE"
);
},
{
closed = 1;
nodes = (
"259 310 LINE",
"354 310 LINE",
"372 410 LINE",
"277 410 LINE",
"312 610 LINE",
"342 610 LINE SMOOTH",
"452 610 OFFCURVE",
"501 550 OFFCURVE",
"466 350 CURVE SMOOTH",
"431 150 OFFCURVE",
"359 90 OFFCURVE",
"250 90 CURVE SMOOTH",
"220 90 LINE"
);
}
);
width = 620;
}
);
unicode = 00D0;
},
{
glyphname = Dcroat;
layers = (
{
layerId = UUID0;
paths = (
{
closed = 1;
nodes = (
"215 0 LINE",
"405 0 OFFCURVE",
"521 99 OFFCURVE",
"566 350 CURVE",
"609 601 OFFCURVE",
"529 700 OFFCURVE",
"338 700 CURVE SMOOTH",
"188 700 LINE",
"135 400 LINE",
"80 400 LINE",
"66 320 LINE",
"121 320 LINE",
"65 0 LINE"
);
},
{
closed = 1;
nodes = (
"221 320 LINE",
"336 320 LINE",
"350 400 LINE",
"235 400 LINE",
"276 630 LINE",
"326 630 LINE SMOOTH",
"445 630 OFFCURVE",
"503 561 OFFCURVE",
"466 350 CURVE SMOOTH",
"429 139 OFFCURVE",
"348 70 OFFCURVE",
"227 70 CURVE SMOOTH",
"177 70 LINE"
);
}
);
width = 585;
},
{
layerId = "EFCBAD9B-4238-4620-A1C0-521E4552FF66";
paths = (
{
closed = 1;
nodes = (
"235 0 LINE SMOOTH",
"435 0 OFFCURVE",
"563 110 OFFCURVE",
"606 350 CURVE SMOOTH",
"649 590 OFFCURVE",
"558 700 OFFCURVE",
"358 700 CURVE SMOOTH",
"188 700 LINE",
"137 410 LINE",
"82 410 LINE",
"64 310 LINE",
"119 310 LINE",
"65 0 LINE"
);
},
{
closed = 1;
nodes = (
"259 310 LINE",
"354 310 LINE",
"372 410 LINE",
"277 410 LINE",
"312 610 LINE",
"342 610 LINE SMOOTH",
"452 610 OFFCURVE",
"501 550 OFFCURVE",
"466 350 CURVE SMOOTH",
"431 150 OFFCURVE",
"359 90 OFFCURVE",
"250 90 CURVE SMOOTH",
"220 90 LINE"
);
}
);
width = 620;
}
);
unicode = 0110;
},
{
glyphname = E;
layers = (
{
layerId = UUID0;
paths = (
{
closed = 1;
nodes = (
"455 0 LINE",
"467 70 LINE",
"177 70 LINE",
"223 330 LINE",
"453 330 LINE",
"465 400 LINE",
"235 400 LINE",
"276 630 LINE",
"566 630 LINE",
"578 700 LINE",
"188 700 LINE",
"65 0 LINE"
);
}
);
width = 510;
},
{
layerId = "EFCBAD9B-4238-4620-A1C0-521E4552FF66";
paths = (
{
closed = 1;
nodes = (
"480 0 LINE",
"495 90 LINE",
"215 90 LINE",
"256 320 LINE",
"476 320 LINE",
"492 410 LINE",
"272 410 LINE",
"307 610 LINE",
"587 610 LINE",
"603 700 LINE",
"183 700 LINE",
"60 0 LINE"
);
}
);
width = 530;
}
);
unicode = 0045;
},
{
glyphname = F;
layers = (
{
layerId = UUID0;
paths = (
{
closed = 1;
nodes = (
"165 0 LINE",
"221 320 LINE",
"451 320 LINE",
"463 390 LINE",
"233 390 LINE",
"276 630 LINE",
"566 630 LINE",
"578 700 LINE",
"188 700 LINE",
"65 0 LINE"
);
}
);
width = 500;
},
{
layerId = "EFCBAD9B-4238-4620-A1C0-521E4552FF66";
paths = (
{
closed = 1;
nodes = (
"200 0 LINE",
"254 310 LINE",
"474 310 LINE",
"490 400 LINE",
"270 400 LINE",
"307 610 LINE",
"587 610 LINE",
"603 700 LINE",
"183 700 LINE",
"60 0 LINE"
);
}
);
width = 525;
}
);
unicode = 0046;
},
{
glyphname = G;
layers = (
{
layerId = UUID0;
paths = (
{
closed = 1;
nodes = (
"345 -10 OFFCURVE",
"393 2 OFFCURVE",
"428 17 CURVE SMOOTH",
"448 25 OFFCURVE",
"466 34 OFFCURVE",
"482 45 CURVE",
"536 350 LINE",
"512 380 LINE",
"327 380 LINE",
"314 310 LINE",
"429 310 LINE",
"389 80 LINE",
"390 80 OFFCURVE",
"349 61 OFFCURVE",
"310 60 CURVE",
"210 60 OFFCURVE",
"151 130 OFFCURVE",
"191 350 CURVE SMOOTH",
"231 570 OFFCURVE",
"311 640 OFFCURVE",
"402 640 CURVE SMOOTH",
"437 640 OFFCURVE",
"465 628 OFFCURVE",
"484 617 CURVE SMOOTH",
"495 610 OFFCURVE",
"505 603 OFFCURVE",
"514 595 CURVE",
"524 595 LINE",
"570 655 LINE",
"559 665 OFFCURVE",
"545 674 OFFCURVE",
"529 682 CURVE SMOOTH",
"501 697 OFFCURVE",
"461 710 OFFCURVE",
"405 710 CURVE SMOOTH",
"266 710 OFFCURVE",
"134 601 OFFCURVE",
"91 350 CURVE",
"46 99 OFFCURVE",
"140 -10 OFFCURVE",
"288 -10 CURVE SMOOTH"
);
}
);
width = 565;
},
{
layerId = "EFCBAD9B-4238-4620-A1C0-521E4552FF66";
paths = (
{
closed = 1;
nodes = (
"368 -10 OFFCURVE",
"420 2 OFFCURVE",
"456 17 CURVE SMOOTH",
"477 25 OFFCURVE",
"496 34 OFFCURVE",
"512 45 CURVE",
"566 350 LINE",
"533 390 LINE",
"328 390 LINE",
"312 300 LINE",
"417 300 LINE",
"380 90 LINE",
"375 88 OFFCURVE",
"370 86 OFFCURVE",
"364 85 CURVE SMOOTH",
"353 82 OFFCURVE",
"341 80 OFFCURVE",
"329 80 CURVE SMOOTH",
"239 80 OFFCURVE",
"189 139 OFFCURVE",
"226 350 CURVE SMOOTH",
"263 561 OFFCURVE",
"334 620 OFFCURVE",
"414 620 CURVE SMOOTH",
"451 620 OFFCURVE",
"479 608 OFFCURVE",
"498 597 CURVE SMOOTH",
"509 590 OFFCURVE",
"519 583 OFFCURVE",
"526 575 CURVE",
"536 575 LINE",
"595 655 LINE",
"583 665 OFFCURVE",
"568 674 OFFCURVE",
"551 682 CURVE SMOOTH",
"522 697 OFFCURVE",
"477 710 OFFCURVE",
"420 710 CURVE SMOOTH",
"255 710 OFFCURVE",
"131 605 OFFCURVE",
"86 350 CURVE SMOOTH",
"41 95 OFFCURVE",
"127 -10 OFFCURVE",
"303 -10 CURVE SMOOTH"
);
}
);
width = 590;
}
);
unicode = 0047;
},
{
glyphname = H;
layers = (
{
guideLines = (
{
angle = 80.034;
position = "{127, 350}";
}
);
layerId = UUID0;
paths = (
{
closed = 1;
nodes = (
"165 0 LINE",
"221 320 LINE",
"471 320 LINE",
"415 0 LINE",
"515 0 LINE",
"638 700 LINE",
"538 700 LINE",
"483 390 LINE",
"233 390 LINE",
"288 700 LINE",
"188 700 LINE",
"65 0 LINE"
);
}
);
width = 630;
},
{
guideLines = (
{
angle = 80.034;
position = "{122, 350}";
}
);
layerId = "EFCBAD9B-4238-4620-A1C0-521E4552FF66";
paths = (
{
closed = 1;
nodes = (
"200 0 LINE",
"254 310 LINE",
"464 310 LINE",
"410 0 LINE",
"550 0 LINE",
"673 700 LINE",
"533 700 LINE",
"480 400 LINE",
"270 400 LINE",
"323 700 LINE",
"183 700 LINE",
"60 0 LINE"
);
}
);
width = 660;
}
);
unicode = 0048;
},
{
glyphname = I;
layers = (
{
anchors = (
{
name = bottom;
position = "{114, 0}";
},
{
name = ogonek;
position = "{165, 0}";
},
{
name = top;
position = "{237, 700}";
},
{
name = topleft;
position = "{99, 700}";
}
);
layerId = UUID0;
paths = (
{
closed = 1;
nodes = (
"165 0 LINE",
"288 700 LINE",
"188 700 LINE",
"65 0 LINE"
);
}
);
width = 280;
},
{
anchors = (
{
name = bottom;
position = "{130, 0}";
},
{
name = ogonek;
position = "{200, 0}";
},
{
name = top;
position = "{261, 700}";
},
{
name = topleft;
position = "{99, 700}";
}
);
layerId = "EFCBAD9B-4238-4620-A1C0-521E4552FF66";
paths = (
{
closed = 1;
nodes = (
"200 0 LINE",
"323 700 LINE",
"183 700 LINE",
"60 0 LINE"
);
}
);
width = 310;
}
);
unicode = 0049;
},
{
glyphname = J;
layers = (
{
layerId = UUID0;
paths = (
{
closed = 1;
nodes = (
"244 -10 OFFCURVE",
"325 59 OFFCURVE",
"348 190 CURVE SMOOTH",
"438 700 LINE",
"338 700 LINE",
"248 190 LINE SMOOTH",
"232 99 OFFCURVE",
"186 60 OFFCURVE",
"110 60 CURVE SMOOTH",
"87 60 OFFCURVE",
"69 69 OFFCURVE",
"54 80 CURVE SMOOTH",
"46 86 OFFCURVE",
"39 93 OFFCURVE",
"32 100 CURVE",
"22 100 LINE",
"-19 35 LINE",
"-10 26 OFFCURVE",
"1 19 OFFCURVE",
"14 12 CURVE SMOOTH",
"37 1 OFFCURVE",
"68 -10 OFFCURVE",
"108 -10 CURVE SMOOTH"
);
}
);
width = 425;
},
{
layerId = "EFCBAD9B-4238-4620-A1C0-521E4552FF66";
paths = (
{
closed = 1;
nodes = (
"268 -10 OFFCURVE",
"362 70 OFFCURVE",
"383 190 CURVE SMOOTH",
"473 700 LINE",
"333 700 LINE",
"243 190 LINE SMOOTH",
"230 114 OFFCURVE",
"189 80 OFFCURVE",
"129 80 CURVE SMOOTH",
"106 80 OFFCURVE",
"86 89 OFFCURVE",
"71 100 CURVE SMOOTH",
"62 106 OFFCURVE",
"54 113 OFFCURVE",
"46 120 CURVE",
"36 120 LINE",
"-19 35 LINE",
"-7 26 OFFCURVE",
"7 19 OFFCURVE",
"22 12 CURVE SMOOTH",
"47 1 OFFCURVE",
"83 -10 OFFCURVE",
"123 -10 CURVE SMOOTH"
);
}
);
width = 450;
}
);
unicode = 004A;
},
{
glyphname = K;
layers = (
{
layerId = UUID0;
paths = (
{
closed = 1;
nodes = (
"165 0 LINE",
"226 350 LINE",
"400 0 LINE",
"515 0 LINE",
"338 360 LINE",
"628 700 LINE",
"513 700 LINE",
"230 370 LINE",
"288 700 LINE",
"188 700 LINE",
"65 0 LINE"
);
}
);
width = 555;
},
{
layerId = "EFCBAD9B-4238-4620-A1C0-521E4552FF66";
paths = (
{
closed = 1;
nodes = (
"200 0 LINE",
"258 330 LINE",
"395 0 LINE",
"555 0 LINE",
"394 365 LINE",
"663 700 LINE",
"508 700 LINE",
"268 390 LINE",
"323 700 LINE",
"183 700 LINE",
"60 0 LINE"
);
}
);
width = 585;
}
);
unicode = 004B;
},
{
glyphname = L;
layers = (
{
layerId = UUID0;
paths = (
{
closed = 1;
nodes = (
"455 0 LINE",
"467 70 LINE",
"177 70 LINE",
"288 700 LINE",
"188 700 LINE",
"65 0 LINE"
);
}
);
width = 490;
},
{
layerId = "EFCBAD9B-4238-4620-A1C0-521E4552FF66";
paths = (
{
closed = 1;
nodes = (
"470 0 LINE",
"485 90 LINE",
"215 90 LINE",
"323 700 LINE",
"183 700 LINE",
"60 0 LINE"
);
}
);
width = 505;
}
);
unicode = 004C;
},
{
glyphname = Lcaron;
layers = (
{
layerId = UUID0;
paths = (
{
closed = 1;
nodes = (
"455 0 LINE",
"467 70 LINE",
"177 70 LINE",
"288 700 LINE",
"188 700 LINE",
"65 0 LINE"
);
},
{
closed = 1;
nodes = (
"372 493 OFFCURVE",
"387 505 OFFCURVE",
"401 520 CURVE SMOOTH",
"425 545 OFFCURVE",
"451 583 OFFCURVE",
"462 636 CURVE",
"469 675 OFFCURVE",
"448 700 OFFCURVE",
"413 700 CURVE SMOOTH",
"388 700 OFFCURVE",
"360 676 OFFCURVE",
"353 645 CURVE",
"348 614 OFFCURVE",
"369 590 OFFCURVE",
"394 590 CURVE",
"390 570 OFFCURVE",
"374 552 OFFCURVE",
"359 537 CURVE SMOOTH",
"350 529 OFFCURVE",
"341 522 OFFCURVE",
"330 515 CURVE",
"355 484 LINE"
);
}
);
width = 490;
},
{
layerId = "EFCBAD9B-4238-4620-A1C0-521E4552FF66";
paths = (
{
closed = 1;
nodes = (
"470 0 LINE",
"485 90 LINE",
"215 90 LINE",
"323 700 LINE",
"183 700 LINE",
"60 0 LINE"
);
},
{
closed = 1;
nodes = (
"398 470 OFFCURVE",
"415 483 OFFCURVE",
"430 499 CURVE SMOOTH",
"457 526 OFFCURVE",
"484 566 OFFCURVE",
"495 625 CURVE SMOOTH",
"503 672 OFFCURVE",
"481 700 OFFCURVE",
"438 700 CURVE SMOOTH",
"406 700 OFFCURVE",
"373 672 OFFCURVE",
"366 635 CURVE SMOOTH",
"361 603 OFFCURVE",
"383 575 OFFCURVE",
"426 575 CURVE",
"422 552 OFFCURVE",
"404 533 OFFCURVE",
"388 518 CURVE SMOOTH",
"379 509 OFFCURVE",
"368 501 OFFCURVE",
"357 494 CURVE",
"381 460 LINE"
);
}
);
width = 505;
}
);
unicode = 013D;
},
{
glyphname = Lslash;
layers = (
{
layerId = UUID0;
paths = (
{
closed = 1;
nodes = (
"437 0 LINE",
"449 70 LINE",
"169 70 LINE",
"217 345 LINE",
"345 430 LINE",
"365 540 LINE",
"237 455 LINE",
"280 700 LINE",
"180 700 LINE",
"124 380 LINE",
"48 330 LINE",
"28 220 LINE",
"104 270 LINE",
"57 0 LINE"
);
}
);
width = 472;
},
{
layerId = "EFCBAD9B-4238-4620-A1C0-521E4552FF66";
paths = (
{
closed = 1;
nodes = (
"475 0 LINE",
"490 90 LINE",
"220 90 LINE",
"267 353 LINE",
"369 420 LINE",
"391 550 LINE",
"290 483 LINE",
"328 700 LINE",
"188 700 LINE",
"132 380 LINE",
"69 340 LINE",
"47 210 LINE",
"109 250 LINE",
"65 0 LINE"
);
}
);
width = 510;
}
);
unicode = 0141;
},
{
glyphname = M;
layers = (
{
layerId = UUID0;
paths = (
{
closed = 1;
nodes = (
"165 0 LINE",
"239 420 LINE SMOOTH",
"242 435 OFFCURVE",
"243 455 OFFCURVE",
"246 474 CURVE SMOOTH",
"250 505 LINE",
"254 505 LINE",
"255 494 OFFCURVE",
"256 484 OFFCURVE",
"258 474 CURVE SMOOTH",
"261 455 OFFCURVE",
"264 435 OFFCURVE",
"269 420 CURVE SMOOTH",
"367 125 LINE",
"467 125 LINE",
"669 420 LINE SMOOTH",
"680 435 OFFCURVE",
"690 455 OFFCURVE",
"699 474 CURVE SMOOTH",
"714 505 LINE",
"718 505 LINE",
"710 474 LINE",
"699 420 LINE",
"625 0 LINE",
"725 0 LINE",
"848 700 LINE",
"748 700 LINE",
"463 275 LINE",
"456 267 OFFCURVE",
"450 255 OFFCURVE",
"445 244 CURVE SMOOTH",
"436 225 LINE",
"432 225 LINE",
"430 244 LINE SMOOTH",
"429 255 OFFCURVE",
"426 266 OFFCURVE",
"423 275 CURVE SMOOTH",
"288 700 LINE",
"188 700 LINE",
"65 0 LINE"
);
}
);
width = 840;
},
{
layerId = "EFCBAD9B-4238-4620-A1C0-521E4552FF66";
paths = (
{
closed = 1;
nodes = (
"200 0 LINE",
"264 365 LINE SMOOTH",
"267 380 OFFCURVE",
"268 396 OFFCURVE",
"269 409 CURVE SMOOTH",
"270 416 OFFCURVE",
"270 424 OFFCURVE",
"270 431 CURVE",
"274 431 LINE",
"275 424 OFFCURVE",
"276 416 OFFCURVE",
"278 409 CURVE",
"280 396 OFFCURVE",
"284 381 OFFCURVE",
"289 365 CURVE SMOOTH",
"370 115 LINE",
"490 115 LINE",
"659 365 LINE SMOOTH",
"670 380 OFFCURVE",
"678 396 OFFCURVE",
"685 409 CURVE SMOOTH",
"696 431 LINE",
"700 431 LINE",
"694 409 LINE",
"684 365 LINE",
"620 0 LINE",
"760 0 LINE",
"883 700 LINE",
"748 700 LINE",
"483 305 LINE SMOOTH",
"476 294 OFFCURVE",
"470 283 OFFCURVE",
"465 272 CURVE SMOOTH",
"456 255 LINE",
"452 255 LINE",
"450 272 LINE SMOOTH",
"449 283 OFFCURVE",
"446 294 OFFCURVE",
"443 305 CURVE SMOOTH",
"318 700 LINE",
"183 700 LINE",
"60 0 LINE"
);
}
);
width = 870;
}
);
unicode = 004D;
},
{
glyphname = N;
layers = (
{
layerId = UUID0;
paths = (
{
closed = 1;
nodes = (
"165 0 LINE",
"243 445 LINE SMOOTH",
"246 460 OFFCURVE",
"247 480 OFFCURVE",
"250 499 CURVE SMOOTH",
"254 530 LINE",
"258 530 LINE",
"259 519 OFFCURVE",
"260 509 OFFCURVE",
"262 499 CURVE SMOOTH",
"265 480 OFFCURVE",
"268 460 OFFCURVE",
"273 445 CURVE SMOOTH",
"405 0 LINE",
"515 0 LINE",
"638 700 LINE",
"538 700 LINE",
"459 255 LINE SMOOTH",
"456 240 OFFCURVE",
"455 218 OFFCURVE",
"452 201 CURVE SMOOTH",
"448 170 LINE",
"444 170 LINE",
"443 180 OFFCURVE",
"442 190 OFFCURVE",
"440 201 CURVE SMOOTH",
"437 218 OFFCURVE",
"433 240 OFFCURVE",
"429 255 CURVE SMOOTH",
"298 700 LINE",
"188 700 LINE",
"65 0 LINE"
);
}
);
width = 630;
},
{
layerId = "EFCBAD9B-4238-4620-A1C0-521E4552FF66";
paths = (
{
closed = 1;
nodes = (
"200 0 LINE",
"268 390 LINE SMOOTH",
"271 405 OFFCURVE",
"273 421 OFFCURVE",
"274 434 CURVE SMOOTH",
"275 441 OFFCURVE",
"275 448 OFFCURVE",
"275 455 CURVE",
"279 455 LINE",
"280 448 OFFCURVE",
"281 441 OFFCURVE",
"283 434 CURVE SMOOTH",
"286 421 OFFCURVE",
"289 405 OFFCURVE",
"293 390 CURVE SMOOTH",
"400 0 LINE",
"550 0 LINE",
"673 700 LINE",
"533 700 LINE",
"464 310 LINE SMOOTH",
"461 295 OFFCURVE",
"460 278 OFFCURVE",
"459 266 CURVE SMOOTH",
"458 259 OFFCURVE",
"458 252 OFFCURVE",
"458 245 CURVE",
"454 245 LINE",
"453 252 OFFCURVE",
"452 259 OFFCURVE",
"450 266 CURVE SMOOTH",
"439 310 LINE",
"333 700 LINE",
"183 700 LINE",
"60 0 LINE"
);
}
);
width = 660;
}
);
unicode = 004E;
},
{
glyphname = O;
layers = (
{
layerId = UUID0;
paths = (
{
closed = 1;
nodes = (
"417 -10 OFFCURVE",
"536 90 OFFCURVE",
"581 350 CURVE SMOOTH",
"626 610 OFFCURVE",
"545 710 OFFCURVE",
"400 710 CURVE SMOOTH",
"255 710 OFFCURVE",
"136 610 OFFCURVE",
"91 350 CURVE SMOOTH",
"46 90 OFFCURVE",
"128 -10 OFFCURVE",
"273 -10 CURVE SMOOTH"
);
},
{
closed = 1;
nodes = (
"210 60 OFFCURVE",
"151 130 OFFCURVE",
"191 350 CURVE SMOOTH",
"231 570 OFFCURVE",
"311 640 OFFCURVE",
"387 640 CURVE SMOOTH",
"460 640 OFFCURVE",
"521 570 OFFCURVE",
"481 350 CURVE SMOOTH",
"441 130 OFFCURVE",
"360 60 OFFCURVE",
"285 60 CURVE SMOOTH"
);
}
);
width = 600;
},
{
layerId = "EFCBAD9B-4238-4620-A1C0-521E4552FF66";
paths = (
{
closed = 1;
nodes = (
"448 -10 OFFCURVE",
"571 95 OFFCURVE",
"616 350 CURVE SMOOTH",
"661 605 OFFCURVE",
"574 710 OFFCURVE",
"415 710 CURVE SMOOTH",
"255 710 OFFCURVE",
"131 605 OFFCURVE",
"86 350 CURVE SMOOTH",
"41 95 OFFCURVE",
"128 -10 OFFCURVE",
"288 -10 CURVE SMOOTH"
);
},
{
closed = 1;
nodes = (
"240 80 OFFCURVE",
"189 139 OFFCURVE",
"226 350 CURVE SMOOTH",
"263 561 OFFCURVE",
"334 620 OFFCURVE",
"399 620 CURVE SMOOTH",
"464 620 OFFCURVE",
"513 561 OFFCURVE",
"476 350 CURVE SMOOTH",
"439 139 OFFCURVE",
"369 80 OFFCURVE",
"304 80 CURVE SMOOTH"
);
}
);
width = 630;
}
);
unicode = 004F;
},
{
glyphname = Oslash;
layers = (
{
layerId = UUID0;
paths = (
{
closed = 1;
nodes = (
"417 -10 OFFCURVE",
"536 90 OFFCURVE",
"581 350 CURVE SMOOTH",
"602 467 OFFCURVE",
"598 553 OFFCURVE",
"571 610 CURVE",
"638 700 LINE",
"558 700 LINE",
"532 665 LINE",
"499 695 OFFCURVE",
"455 710 OFFCURVE",
"400 710 CURVE SMOOTH",
"255 710 OFFCURVE",
"136 610 OFFCURVE",
"91 350 CURVE SMOOTH",
"70 231 OFFCURVE",
"74 148 OFFCURVE",
"101 89 CURVE",
"35 0 LINE",
"115 0 LINE",
"141 35 LINE",
"173 4 OFFCURVE",
"218 -10 OFFCURVE",
"273 -10 CURVE SMOOTH"
);
},
{
closed = 1;
nodes = (
"250 60 OFFCURVE",
"219 74 OFFCURVE",
"199 113 CURVE",
"493 505 LINE",
"496 465 OFFCURVE",
"492 414 OFFCURVE",
"481 350 CURVE SMOOTH",
"441 130 OFFCURVE",
"360 60 OFFCURVE",
"285 60 CURVE SMOOTH"
);
},
{
closed = 1;
nodes = (
"177 235 OFFCURVE",
"180 286 OFFCURVE",
"191 350 CURVE SMOOTH",
"231 570 OFFCURVE",
"311 640 OFFCURVE",
"387 640 CURVE SMOOTH",
"422 640 OFFCURVE",
"454 625 OFFCURVE",
"473 586 CURVE",
"180 194 LINE"
);
}
);
width = 600;
},
{
layerId = "EFCBAD9B-4238-4620-A1C0-521E4552FF66";
paths = (
{
closed = 1;
nodes = (
"448 -10 OFFCURVE",
"571 95 OFFCURVE",
"616 350 CURVE SMOOTH",
"636 463 OFFCURVE",
"631 545 OFFCURVE",
"604 604 CURVE",
"678 700 LINE",
"563 700 LINE",
"544 676 LINE",
"511 699 OFFCURVE",
"468 710 OFFCURVE",
"415 710 CURVE SMOOTH",
"255 710 OFFCURVE",
"131 605 OFFCURVE",
"86 350 CURVE SMOOTH",
"66 237 OFFCURVE",
"71 155 OFFCURVE",
"98 96 CURVE",
"25 0 LINE",
"140 0 LINE",
"158 24 LINE",
"193 1 OFFCURVE",
"236 -10 OFFCURVE",
"288 -10 CURVE SMOOTH"
);
},
{
closed = 1;
nodes = (
"275 80 OFFCURVE",
"250 91 OFFCURVE",
"233 122 CURVE",
"488 453 LINE",
"487 423 OFFCURVE",
"483 389 OFFCURVE",
"476 350 CURVE SMOOTH",
"439 139 OFFCURVE",
"369 80 OFFCURVE",
"304 80 CURVE SMOOTH"
);
},
{
closed = 1;
nodes = (
"215 275 OFFCURVE",
"219 310 OFFCURVE",
"226 350 CURVE SMOOTH",
"263 561 OFFCURVE",
"334 620 OFFCURVE",
"399 620 CURVE SMOOTH",
"427 620 OFFCURVE",
"452 609 OFFCURVE",
"468 578 CURVE",
"214 246 LINE"
);
}
);
width = 630;
}
);
unicode = 00D8;
},
{
glyphname = OE;
layers = (
{
layerId = UUID0;
paths = (
{
closed = 1;
nodes = (
"760 0 LINE",
"772 70 LINE",
"482 70 LINE",
"528 330 LINE",
"758 330 LINE",
"770 400 LINE",
"540 400 LINE",
"581 630 LINE",
"871 630 LINE",
"883 700 LINE",
"443 700 LINE SMOOTH",
"254 700 OFFCURVE",
"134 601 OFFCURVE",
"91 350 CURVE",
"46 99 OFFCURVE",
"131 0 OFFCURVE",
"320 0 CURVE SMOOTH"
);
},
{
closed = 1;
nodes = (
"212 70 OFFCURVE",
"154 139 OFFCURVE",
"191 350 CURVE SMOOTH",
"228 561 OFFCURVE",
"311 630 OFFCURVE",
"431 630 CURVE SMOOTH",
"481 630 LINE",
"382 70 LINE",
"332 70 LINE"
);
}
);
width = 815;
},
{
layerId = "EFCBAD9B-4238-4620-A1C0-521E4552FF66";
paths = (
{
closed = 1;
nodes = (
"785 0 LINE",
"800 90 LINE",
"530 90 LINE",
"571 320 LINE",
"781 320 LINE",
"797 410 LINE",
"587 410 LINE",
"622 610 LINE",
"892 610 LINE",
"908 700 LINE",
"468 700 LINE",
"257 700 OFFCURVE",
"129 590 OFFCURVE",
"86 350 CURVE SMOOTH",
"43 110 OFFCURVE",
"134 0 OFFCURVE",
"345 0 CURVE SMOOTH"
);
},
{
closed = 1;
nodes = (
"240 90 OFFCURVE",
"191 150 OFFCURVE",
"226 350 CURVE SMOOTH",
"261 550 OFFCURVE",
"332 610 OFFCURVE",
"452 610 CURVE SMOOTH",
"482 610 LINE",
"390 90 LINE",
"360 90 LINE SMOOTH"
);
}
);
width = 835;
}
);
unicode = 0152;
},
{
glyphname = P;
layers = (
{
layerId = UUID0;
paths = (
{
closed = 1;
nodes = (
"165 0 LINE",
"207 240 LINE",
"287 240 LINE",
"458 240 OFFCURVE",
"550 319 OFFCURVE",
"577 470 CURVE SMOOTH",
"604 621 OFFCURVE",
"539 700 OFFCURVE",
"368 700 CURVE SMOOTH",
"188 700 LINE",
"65 0 LINE"
);
},
{
closed = 1;
nodes = (
"276 630 LINE",
"356 630 LINE SMOOTH",
"456 630 OFFCURVE",
"497 581 OFFCURVE",
"477 470 CURVE SMOOTH",
"458 359 OFFCURVE",
"399 310 OFFCURVE",
"299 310 CURVE SMOOTH",
"219 310 LINE"
);
}
);
width = 565;
},
{
layerId = "EFCBAD9B-4238-4620-A1C0-521E4552FF66";
paths = (
{
closed = 1;
nodes = (
"200 0 LINE",
"240 230 LINE",
"300 230 LINE",
"491 230 OFFCURVE",
"584 309 OFFCURVE",
"611 465 CURVE SMOOTH",
"639 621 OFFCURVE",
"574 700 OFFCURVE",
"383 700 CURVE SMOOTH",
"183 700 LINE",
"60 0 LINE"
);
},
{
closed = 1;
nodes = (
"307 610 LINE",
"367 610 LINE SMOOTH",
"458 610 OFFCURVE",
"490 570 OFFCURVE",
"471 465 CURVE SMOOTH",
"452 360 OFFCURVE",
"407 320 OFFCURVE",
"316 320 CURVE SMOOTH",
"256 320 LINE"
);
}
);
width = 595;
}
);
unicode = 0050;
},
{
glyphname = Thorn;
layers = (
{
layerId = UUID0;
paths = (
{
closed = 1;
nodes = (
"161 -20 LINE",
"175 60 LINE",
"265 60 LINE SMOOTH",
"452 60 OFFCURVE",
"574 163 OFFCURVE",
"606 350 CURVE SMOOTH",
"639 537 OFFCURVE",
"554 640 OFFCURVE",
"367 640 CURVE SMOOTH",
"277 640 LINE",
"291 720 LINE",
"191 720 LINE",
"61 -20 LINE"
);
},
{
closed = 1;
nodes = (
"265 570 LINE",
"355 570 LINE",
"469 570 OFFCURVE",
"533 495 OFFCURVE",
"506 350 CURVE",
"481 205 OFFCURVE",
"393 130 OFFCURVE",
"277 130 CURVE SMOOTH",
"187 130 LINE"
);
}
);
width = 615;
},
{
layerId = "EFCBAD9B-4238-4620-A1C0-521E4552FF66";
paths = (
{
closed = 1;
nodes = (
"196 -20 LINE",
"208 50 LINE",
"278 50 LINE SMOOTH",
"473 50 OFFCURVE",
"609 166 OFFCURVE",
"641 350 CURVE SMOOTH",
"673 534 OFFCURVE",
"580 650 OFFCURVE",
"384 650 CURVE SMOOTH",
"314 650 LINE",
"326 720 LINE",
"186 720 LINE",
"56 -20 LINE"
);
},
{
closed = 1;
nodes = (
"298 560 LINE",
"368 560 LINE",
"467 560 OFFCURVE",
"525 490 OFFCURVE",
"501 350 CURVE SMOOTH",
"477 210 OFFCURVE",
"394 140 OFFCURVE",
"294 140 CURVE SMOOTH",
"224 140 LINE"
);
}
);
width = 645;
}
);
unicode = 00DE;
},
{
glyphname = Q;
layers = (
{
layerId = UUID0;
paths = (
{
closed = 1;
nodes = (
"372 -155 OFFCURVE",
"391 -152 OFFCURVE",
"406 -148 CURVE SMOOTH",
"430 -140 LINE",
"421 -75 LINE",
"411 -75 LINE",
"400 -80 LINE SMOOTH",
"392 -83 OFFCURVE",
"384 -85 OFFCURVE",
"375 -85 CURVE SMOOTH",
"335 -85 OFFCURVE",
"313 -61 OFFCURVE",
"324 -5 CURVE",
"441 14 OFFCURVE",
"541 122 OFFCURVE",
"581 350 CURVE SMOOTH",
"626 610 OFFCURVE",
"545 710 OFFCURVE",
"400 710 CURVE SMOOTH",
"255 710 OFFCURVE",
"136 610 OFFCURVE",
"91 350 CURVE SMOOTH",
"51 121 OFFCURVE",
"112 14 OFFCURVE",
"224 -5 CURVE",
"208 -96 OFFCURVE",
"256 -155 OFFCURVE",
"352 -155 CURVE SMOOTH"
);
},
{
closed = 1;
nodes = (
"210 60 OFFCURVE",
"151 130 OFFCURVE",
"191 350 CURVE SMOOTH",
"231 570 OFFCURVE",
"311 640 OFFCURVE",
"387 640 CURVE SMOOTH",
"460 640 OFFCURVE",
"521 570 OFFCURVE",
"481 350 CURVE SMOOTH",
"441 130 OFFCURVE",
"360 60 OFFCURVE",
"285 60 CURVE SMOOTH"
);
}
);
width = 600;
},
{
layerId = "EFCBAD9B-4238-4620-A1C0-521E4552FF66";
paths = (
{
closed = 1;
nodes = (
"395 -165 OFFCURVE",
"416 -160 OFFCURVE",
"431 -155 CURVE SMOOTH",
"440 -152 OFFCURVE",
"447 -149 OFFCURVE",
"454 -145 CURVE",
"442 -65 LINE",
"432 -65 LINE",
"429 -67 OFFCURVE",
"426 -69 OFFCURVE",
"423 -70 CURVE SMOOTH",
"416 -73 OFFCURVE",
"407 -75 OFFCURVE",
"396 -75 CURVE SMOOTH",
"371 -75 OFFCURVE",
"351 -51 OFFCURVE",
"360 0 CURVE",
"485 29 OFFCURVE",
"577 135 OFFCURVE",
"616 350 CURVE SMOOTH",
"661 605 OFFCURVE",
"574 710 OFFCURVE",
"415 710 CURVE SMOOTH",
"255 710 OFFCURVE",
"131 605 OFFCURVE",
"86 350 CURVE SMOOTH",
"49 135 OFFCURVE",
"105 29 OFFCURVE",
"220 0 CURVE",
"204 -95 OFFCURVE",
"260 -165 OFFCURVE",
"370 -165 CURVE SMOOTH"
);
},
{
closed = 1;
nodes = (
"240 80 OFFCURVE",
"189 139 OFFCURVE",
"226 350 CURVE SMOOTH",
"263 561 OFFCURVE",
"334 620 OFFCURVE",
"399 620 CURVE SMOOTH",
"464 620 OFFCURVE",
"513 561 OFFCURVE",
"476 350 CURVE SMOOTH",
"439 139 OFFCURVE",
"369 80 OFFCURVE",
"304 80 CURVE SMOOTH"
);
}
);
width = 630;
}
);
unicode = 0051;
},
{
glyphname = R;
layers = (
{
layerId = UUID0;
paths = (
{
closed = 1;
nodes = (
"165 0 LINE",
"210 260 LINE",
"290 260 LINE",
"400 0 LINE",
"515 0 LINE",
"396 275 LINE",
"493 305 OFFCURVE",
"551 373 OFFCURVE",
"569 480 CURVE SMOOTH",
"594 621 OFFCURVE",
"529 700 OFFCURVE",
"358 700 CURVE SMOOTH",
"188 700 LINE",
"65 0 LINE"
);
},
{
closed = 1;
nodes = (
"276 630 LINE",
"346 630 LINE SMOOTH",
"446 630 OFFCURVE",
"487 580 OFFCURVE",
"469 480 CURVE SMOOTH",
"452 380 OFFCURVE",
"393 330 OFFCURVE",
"293 330 CURVE SMOOTH",
"223 330 LINE"
);
}
);
width = 575;
},
{
layerId = "EFCBAD9B-4238-4620-A1C0-521E4552FF66";
paths = (
{
closed = 1;
nodes = (
"200 0 LINE",
"244 250 LINE",
"299 250 LINE",
"400 0 LINE",
"560 0 LINE",
"438 275 LINE",
"464 283 OFFCURVE",
"488 296 OFFCURVE",
"510 313 CURVE SMOOTH",
"547 342 OFFCURVE",
"588 392 OFFCURVE",
"603 475 CURVE SMOOTH",
"630 619 OFFCURVE",
"562 700 OFFCURVE",
"373 700 CURVE SMOOTH",
"183 700 LINE",
"60 0 LINE"
);
},
{
closed = 1;
nodes = (
"307 610 LINE",
"357 610 LINE SMOOTH",
"448 610 OFFCURVE",
"480 571 OFFCURVE",
"463 475 CURVE SMOOTH",
"447 379 OFFCURVE",
"400 340 OFFCURVE",
"309 340 CURVE SMOOTH",
"259 340 LINE"
);
}
);
width = 600;
}
);
unicode = 0052;
},
{
glyphname = S;
layers = (
{
layerId = UUID0;
paths = (
{
closed = 1;
nodes = (
"363 -10 OFFCURVE",
"457 70 OFFCURVE",
"478 190 CURVE SMOOTH",
"518 410 OFFCURVE",
"185 370 OFFCURVE",
"213 530 CURVE SMOOTH",
"224 589 OFFCURVE",
"283 640 OFFCURVE",
"352 640 CURVE SMOOTH",
"397 640 OFFCURVE",
"429 628 OFFCURVE",
"452 617 CURVE SMOOTH",
"465 610 OFFCURVE",
"475 603 OFFCURVE",
"484 595 CURVE",
"494 595 LINE",
"540 655 LINE",
"528 665 OFFCURVE",
"513 674 OFFCURVE",
"496 682 CURVE SMOOTH",
"465 697 OFFCURVE",
"420 710 OFFCURVE",
"355 710 CURVE SMOOTH",
"225 710 OFFCURVE",
"130 630 OFFCURVE",
"111 520 CURVE",
"71 300 OFFCURVE",
"404 340 OFFCURVE",
"376 180 CURVE SMOOTH",
"364 109 OFFCURVE",
"306 60 OFFCURVE",
"215 60 CURVE SMOOTH",
"170 60 OFFCURVE",
"134 71 OFFCURVE",
"110 82 CURVE SMOOTH",
"96 89 OFFCURVE",
"84 96 OFFCURVE",
"73 105 CURVE",
"63 105 LINE",
"17 45 LINE",
"30 34 OFFCURVE",
"47 25 OFFCURVE",
"66 17 CURVE SMOOTH",
"99 2 OFFCURVE",
"148 -10 OFFCURVE",
"213 -10 CURVE SMOOTH"
);
}
);
width = 505;
},
{
layerId = "EFCBAD9B-4238-4620-A1C0-521E4552FF66";
paths = (
{
closed = 1;
nodes = (
"389 -10 OFFCURVE",
"487 75 OFFCURVE",
"508 190 CURVE SMOOTH",
"548 415 OFFCURVE",
"224 391 OFFCURVE",
"248 530 CURVE SMOOTH",
"256 575 OFFCURVE",
"309 620 OFFCURVE",
"369 620 CURVE SMOOTH",
"416 620 OFFCURVE",
"450 608 OFFCURVE",
"471 597 CURVE SMOOTH",
"483 590 OFFCURVE",
"493 583 OFFCURVE",
"501 575 CURVE",
"511 575 LINE",
"570 655 LINE",
"557 665 OFFCURVE",
"542 674 OFFCURVE",
"523 682 CURVE SMOOTH",
"491 697 OFFCURVE",
"443 710 OFFCURVE",
"375 710 CURVE SMOOTH",
"225 710 OFFCURVE",
"125 625 OFFCURVE",
"106 520 CURVE",
"68 295 OFFCURVE",
"391 319 OFFCURVE",
"366 180 CURVE SMOOTH",
"355 120 OFFCURVE",
"309 80 OFFCURVE",
"229 80 CURVE SMOOTH",
"176 80 OFFCURVE",
"142 91 OFFCURVE",
"119 102 CURVE SMOOTH",
"106 109 OFFCURVE",
"96 116 OFFCURVE",
"87 125 CURVE",
"77 125 LINE",
"17 45 LINE",
"30 34 OFFCURVE",
"47 25 OFFCURVE",
"66 17 CURVE SMOOTH",
"99 2 OFFCURVE",
"150 -10 OFFCURVE",
"223 -10 CURVE SMOOTH"
);
}
);
width = 535;
}
);
unicode = 0053;
},
{
glyphname = T;
layers = (
{
layerId = UUID0;
paths = (
{
closed = 1;
nodes = (
"265 0 LINE",
"376 630 LINE",
"556 630 LINE",
"568 700 LINE",
"108 700 LINE",
"96 630 LINE",
"276 630 LINE",
"165 0 LINE"
);
}
);
width = 480;
},
{
layerId = "EFCBAD9B-4238-4620-A1C0-521E4552FF66";
paths = (
{
closed = 1;
nodes = (
"300 0 LINE",
"407 610 LINE",
"582 610 LINE",
"598 700 LINE",
"108 700 LINE",
"92 610 LINE",
"267 610 LINE",
"160 0 LINE"
);
}
);
width = 510;
}
);
unicode = 0054;
},
{
glyphname = U;
layers = (
{
layerId = UUID0;
paths = (
{
closed = 1;
nodes = (
"428 -10 OFFCURVE",
"521 69 OFFCURVE",
"548 220 CURVE SMOOTH",
"633 700 LINE",
"533 700 LINE",
"448 220 LINE SMOOTH",
"429 109 OFFCURVE",
"371 60 OFFCURVE",
"295 60 CURVE SMOOTH",
"219 60 OFFCURVE",
"179 109 OFFCURVE",
"198 220 CURVE SMOOTH",
"283 700 LINE",
"183 700 LINE",
"98 220 LINE SMOOTH",
"71 69 OFFCURVE",
"138 -10 OFFCURVE",
"283 -10 CURVE SMOOTH"
);
}
);
width = 620;
},
{
layerId = "EFCBAD9B-4238-4620-A1C0-521E4552FF66";
paths = (
{
closed = 1;
nodes = (
"449 -10 OFFCURVE",
"553 79 OFFCURVE",
"580 230 CURVE SMOOTH",
"663 700 LINE",
"523 700 LINE",
"440 230 LINE SMOOTH",
"421 125 OFFCURVE",
"369 80 OFFCURVE",
"309 80 CURVE SMOOTH",
"249 80 OFFCURVE",
"211 125 OFFCURVE",
"230 230 CURVE SMOOTH",
"313 700 LINE",
"173 700 LINE",
"90 230 LINE SMOOTH",
"63 79 OFFCURVE",
"137 -10 OFFCURVE",
"293 -10 CURVE SMOOTH"
);
}
);
width = 640;
}
);
unicode = 0055;
},
{
glyphname = V;
layers = (
{
layerId = UUID0;
paths = (
{
closed = 1;
nodes = (
"315 0 LINE",
"633 700 LINE",
"533 700 LINE",
"295 175 LINE SMOOTH",
"288 160 OFFCURVE",
"283 144 OFFCURVE",
"278 129 CURVE SMOOTH",
"270 105 LINE",
"266 105 LINE",
"267 113 OFFCURVE",
"267 121 OFFCURVE",
"267 129 CURVE SMOOTH",
"267 144 OFFCURVE",
"266 160 OFFCURVE",
"265 175 CURVE SMOOTH",
"213 700 LINE",
"113 700 LINE",
"185 0 LINE"
);
}
);
width = 550;
},
{
layerId = "EFCBAD9B-4238-4620-A1C0-521E4552FF66";
paths = (
{
closed = 1;
nodes = (
"350 0 LINE",
"673 700 LINE",
"533 700 LINE",
"327 240 LINE",
"319 224 OFFCURVE",
"313 205 OFFCURVE",
"308 190 CURVE SMOOTH",
"301 165 LINE",
"297 165 LINE",
"298 174 OFFCURVE",
"298 182 OFFCURVE",
"298 191 CURVE SMOOTH",
"298 206 OFFCURVE",
"298 224 OFFCURVE",
"297 240 CURVE SMOOTH",
"253 700 LINE",
"113 700 LINE",
"190 0 LINE"
);
}
);
width = 590;
}
);
unicode = 0056;
},
{
glyphname = W;
layers = (
{
layerId = UUID0;
paths = (
{
closed = 1;
nodes = (
"275 0 LINE",
"476 490 LINE",
"483 505 OFFCURVE",
"489 525 OFFCURVE",
"494 541 CURVE SMOOTH",
"503 570 LINE",
"507 570 LINE",
"506 560 OFFCURVE",
"506 550 OFFCURVE",
"506 541 CURVE SMOOTH",
"505 524 OFFCURVE",
"505 507 OFFCURVE",
"506 490 CURVE SMOOTH",
"535 0 LINE",
"655 0 LINE",
"943 700 LINE",
"843 700 LINE",
"642 210 LINE",
"635 195 OFFCURVE",
"630 175 OFFCURVE",
"625 159 CURVE SMOOTH",
"617 130 LINE",
"613 130 LINE",
"615 159 LINE SMOOTH",
"616 175 OFFCURVE",
"617 195 OFFCURVE",
"617 210 CURVE",
"588 700 LINE",
"468 700 LINE",
"267 210 LINE",
"260 195 OFFCURVE",
"254 175 OFFCURVE",
"249 159 CURVE SMOOTH",
"241 130 LINE",
"237 130 LINE",
"240 159 LINE SMOOTH",
"241 175 OFFCURVE",
"242 195 OFFCURVE",
"242 210 CURVE",
"213 700 LINE",
"113 700 LINE",
"155 0 LINE"
);
}
);
width = 860;
},
{
layerId = "EFCBAD9B-4238-4620-A1C0-521E4552FF66";
paths = (
{
closed = 1;
nodes = (
"310 0 LINE",
"491 435 LINE SMOOTH",
"496 447 OFFCURVE",
"501 464 OFFCURVE",
"505 477 CURVE SMOOTH",
"508 484 OFFCURVE",
"510 492 OFFCURVE",
"511 500 CURVE",
"515 500 LINE",
"513 477 LINE SMOOTH",
"512 464 OFFCURVE",
"510 447 OFFCURVE",
"511 435 CURVE SMOOTH",
"540 0 LINE",
"690 0 LINE",
"983 700 LINE",
"843 700 LINE",
"665 260 LINE SMOOTH",
"660 247 OFFCURVE",
"655 233 OFFCURVE",
"652 221 CURVE SMOOTH",
"650 214 OFFCURVE",
"648 207 OFFCURVE",
"647 200 CURVE",
"643 200 LINE",
"645 221 LINE SMOOTH",
"646 234 OFFCURVE",
"646 247 OFFCURVE",
"645 260 CURVE SMOOTH",
"622 700 LINE",
"474 700 LINE",
"295 260 LINE SMOOTH",
"290 247 OFFCURVE",
"285 233 OFFCURVE",
"282 221 CURVE SMOOTH",
"280 214 OFFCURVE",
"278 207 OFFCURVE",
"277 200 CURVE",
"273 200 LINE",
"275 221 LINE SMOOTH",
"276 234 OFFCURVE",
"276 247 OFFCURVE",
"275 260 CURVE SMOOTH",
"253 700 LINE",
"113 700 LINE",
"160 0 LINE"
);
}
);
width = 900;
}
);
unicode = 0057;
},
{
glyphname = X;
layers = (
{
layerId = UUID0;
paths = (
{
closed = 1;
nodes = (
"100 0 LINE",
"261 235 LINE",
"268 243 OFFCURVE",
"273 255 OFFCURVE",
"278 264 CURVE SMOOTH",
"287 280 LINE",
"291 280 LINE",
"294 264 LINE",
"297 255 OFFCURVE",
"298 243 OFFCURVE",
"301 235 CURVE SMOOTH",
"380 0 LINE",
"490 0 LINE",
"367 355 LINE",
"608 700 LINE",
"498 700 LINE",
"343 475 LINE SMOOTH",
"336 466 OFFCURVE",
"330 455 OFFCURVE",
"325 446 CURVE SMOOTH",
"317 430 LINE",
"313 430 LINE",
"310 446 LINE",
"307 455 OFFCURVE",
"306 466 OFFCURVE",
"303 475 CURVE SMOOTH",
"228 700 LINE",
"118 700 LINE",
"237 355 LINE",
"-10 0 LINE"
);
}
);
width = 530;
},
{
layerId = "EFCBAD9B-4238-4620-A1C0-521E4552FF66";
paths = (
{
closed = 1;
nodes = (
"135 0 LINE",
"279 225 LINE SMOOTH",
"286 236 OFFCURVE",
"290 246 OFFCURVE",
"294 255 CURVE SMOOTH",
"297 260 OFFCURVE",
"299 265 OFFCURVE",
"300 270 CURVE",
"304 270 LINE",
"304 265 OFFCURVE",
"304 260 OFFCURVE",
"305 255 CURVE SMOOTH",
"306 246 OFFCURVE",
"306 236 OFFCURVE",
"309 225 CURVE SMOOTH",
"375 0 LINE",
"525 0 LINE",
"412 355 LINE",
"643 700 LINE",
"493 700 LINE",
"355 485 LINE SMOOTH",
"348 474 OFFCURVE",
"344 464 OFFCURVE",
"340 455 CURVE SMOOTH",
"337 450 OFFCURVE",
"335 445 OFFCURVE",
"334 440 CURVE",
"330 440 LINE",
"330 445 OFFCURVE",
"330 450 OFFCURVE",
"329 455 CURVE SMOOTH",
"328 464 OFFCURVE",
"328 474 OFFCURVE",
"325 485 CURVE SMOOTH",
"263 700 LINE",
"113 700 LINE",
"222 355 LINE",
"-15 0 LINE"
);
}
);
width = 560;
}
);
unicode = 0058;
},
{
glyphname = Y;
layers = (
{
layerId = UUID0;
paths = (
{
closed = 1;
nodes = (
"290 0 LINE",
"330 230 LINE",
"628 700 LINE",
"523 700 LINE",
"329 395 LINE SMOOTH",
"321 382 OFFCURVE",
"314 369 OFFCURVE",
"309 356 CURVE SMOOTH",
"301 335 LINE",
"297 335 LINE",
"297 342 OFFCURVE",
"297 349 OFFCURVE",
"296 356 CURVE SMOOTH",
"295 368 OFFCURVE",
"292 382 OFFCURVE",
"289 395 CURVE SMOOTH",
"203 700 LINE",
"98 700 LINE",
"230 230 LINE",
"190 0 LINE"
);
}
);
width = 530;
},
{
layerId = "EFCBAD9B-4238-4620-A1C0-521E4552FF66";
paths = (
{
closed = 1;
nodes = (
"330 0 LINE",
"370 230 LINE",
"668 700 LINE",
"523 700 LINE",
"346 405 LINE SMOOTH",
"339 394 OFFCURVE",
"335 384 OFFCURVE",
"331 375 CURVE SMOOTH",
"328 370 OFFCURVE",
"326 365 OFFCURVE",
"325 360 CURVE",
"321 360 LINE",
"321 365 OFFCURVE",
"321 370 OFFCURVE",
"320 375 CURVE SMOOTH",
"319 384 OFFCURVE",
"319 394 OFFCURVE",
"316 405 CURVE SMOOTH",
"243 700 LINE",
"98 700 LINE",
"230 230 LINE",
"190 0 LINE"
);
}
);
width = 570;
}
);
unicode = 0059;
},
{
glyphname = Z;
layers = (
{
layerId = UUID0;
paths = (
{
closed = 1;
nodes = (
"435 0 LINE",
"447 70 LINE",
"132 70 LINE",
"540 625 LINE",
"553 700 LINE",
"123 700 LINE",
"111 630 LINE",
"421 630 LINE",
"13 75 LINE",
"0 0 LINE"
);
}
);
width = 485;
},
{
layerId = "EFCBAD9B-4238-4620-A1C0-521E4552FF66";
paths = (
{
closed = 1;
nodes = (
"465 0 LINE",
"480 90 LINE",
"185 90 LINE",
"566 605 LINE",
"583 700 LINE",
"133 700 LINE",
"117 610 LINE",
"407 610 LINE",
"26 95 LINE",
"10 0 LINE"
);
}
);
width = 525;
}
);
unicode = 005A;
},
{
glyphname = a;
layers = (
{
layerId = UUID0;
paths = (
{
closed = 1;
nodes = (
"234 -10 OFFCURVE",
"272 6 OFFCURVE",
"299 25 CURVE SMOOTH",
"315 35 OFFCURVE",
"329 47 OFFCURVE",
"340 60 CURVE",
"345 60 LINE",
"345 0 LINE",
"415 0 LINE",
"471 320 LINE SMOOTH",
"490 430 OFFCURVE",
"424 510 OFFCURVE",
"309 510 CURVE SMOOTH",
"258 510 OFFCURVE",
"215 497 OFFCURVE",
"184 482 CURVE SMOOTH",
"166 474 OFFCURVE",
"150 465 OFFCURVE",
"135 455 CURVE",
"159 395 LINE",
"169 395 LINE",
"180 403 OFFCURVE",
"192 410 OFFCURVE",
"205 417 CURVE SMOOTH",
"228 428 OFFCURVE",
"256 440 OFFCURVE",
"287 440 CURVE SMOOTH",
"352 440 OFFCURVE",
"386 400 OFFCURVE",
"371 320 CURVE SMOOTH",
"367 295 LINE",
"287 295 LINE SMOOTH",
"132 295 OFFCURVE",
"61 235 OFFCURVE",
"45 145 CURVE SMOOTH",
"28 49 OFFCURVE",
"78 -10 OFFCURVE",
"183 -10 CURVE SMOOTH"
);
},
{
closed = 1;
nodes = (
"161 65 OFFCURVE",
"136 94 OFFCURVE",
"145 145 CURVE SMOOTH",
"153 190 OFFCURVE",
"194 225 OFFCURVE",
"274 225 CURVE SMOOTH",
"354 225 LINE",
"337 125 LINE",
"325 114 OFFCURVE",
"313 104 OFFCURVE",
"301 95 CURVE SMOOTH",
"278 80 OFFCURVE",
"252 65 OFFCURVE",
"221 65 CURVE SMOOTH"
);
}
);
width = 510;
},
{
layerId = "EFCBAD9B-4238-4620-A1C0-521E4552FF66";
paths = (
{
closed = 1;
nodes = (
"243 -10 OFFCURVE",
"278 6 OFFCURVE",
"305 25 CURVE SMOOTH",
"320 35 OFFCURVE",
"333 47 OFFCURVE",
"345 60 CURVE",
"350 60 LINE",
"350 0 LINE",
"450 0 LINE",
"506 320 LINE SMOOTH",
"525 430 OFFCURVE",
"459 510 OFFCURVE",
"314 510 CURVE SMOOTH",
"263 510 OFFCURVE",
"219 497 OFFCURVE",
"187 485 CURVE SMOOTH",
"168 478 OFFCURVE",
"151 469 OFFCURVE",
"136 460 CURVE",
"167 380 LINE",
"177 380 LINE",
"186 387 OFFCURVE",
"197 394 OFFCURVE",
"209 400 CURVE SMOOTH",
"229 411 OFFCURVE",
"256 420 OFFCURVE",
"289 420 CURVE SMOOTH",
"354 420 OFFCURVE",
"378 391 OFFCURVE",
"366 320 CURVE SMOOTH",
"363 305 LINE",
"293 305 LINE SMOOTH",
"134 305 OFFCURVE",
"56 241 OFFCURVE",
"40 145 CURVE SMOOTH",
"24 54 OFFCURVE",
"78 -10 OFFCURVE",
"198 -10 CURVE SMOOTH"
);
},
{
closed = 1;
nodes = (
"194 85 OFFCURVE",
"173 110 OFFCURVE",
"180 145 CURVE SMOOTH",
"188 190 OFFCURVE",
"217 215 OFFCURVE",
"277 215 CURVE SMOOTH",
"347 215 LINE",
"335 145 LINE",
"326 134 OFFCURVE",
"317 124 OFFCURVE",
"306 115 CURVE SMOOTH",
"287 100 OFFCURVE",
"264 85 OFFCURVE",
"239 85 CURVE SMOOTH"
);
}
);
width = 540;
}
);
unicode = 0061;
},
{
glyphname = ae;
layers = (
{
layerId = UUID0;
paths = (
{
closed = 1;
nodes = (
"239 -10 OFFCURVE",
"285 10 OFFCURVE",
"320 30 CURVE SMOOTH",
"340 42 OFFCURVE",
"358 55 OFFCURVE",
"374 70 CURVE",
"402 15 OFFCURVE",
"458 -10 OFFCURVE",
"523 -10 CURVE SMOOTH",
"574 -10 OFFCURVE",
"616 2 OFFCURVE",
"647 17 CURVE SMOOTH",
"665 25 OFFCURVE",
"682 34 OFFCURVE",
"697 45 CURVE",
"673 105 LINE",
"663 105 LINE",
"651 96 OFFCURVE",
"639 89 OFFCURVE",
"626 82 CURVE SMOOTH",
"603 71 OFFCURVE",
"576 60 OFFCURVE",
"545 60 CURVE SMOOTH",
"476 60 OFFCURVE",
"433 110 OFFCURVE",
"452 215 CURVE",
"732 215 LINE",
"756 235 LINE",
"759 250 LINE SMOOTH",
"788 425 OFFCURVE",
"720 510 OFFCURVE",
"604 510 CURVE SMOOTH",
"544 510 OFFCURVE",
"489 480 OFFCURVE",
"446 435 CURVE",
"429 480 OFFCURVE",
"385 510 OFFCURVE",
"309 510 CURVE SMOOTH",
"258 510 OFFCURVE",
"215 497 OFFCURVE",
"184 482 CURVE SMOOTH",
"166 474 OFFCURVE",
"150 465 OFFCURVE",
"135 455 CURVE",
"159 395 LINE",
"169 395 LINE",
"180 403 OFFCURVE",
"192 410 OFFCURVE",
"205 417 CURVE SMOOTH",
"228 428 OFFCURVE",
"256 440 OFFCURVE",
"287 440 CURVE SMOOTH",
"352 440 OFFCURVE",
"386 400 OFFCURVE",
"371 320 CURVE SMOOTH",
"367 295 LINE",
"287 295 LINE SMOOTH",
"132 295 OFFCURVE",
"61 235 OFFCURVE",
"45 145 CURVE SMOOTH",
"28 49 OFFCURVE",
"78 -10 OFFCURVE",
"183 -10 CURVE SMOOTH"
);
},
{
closed = 1;
nodes = (
"161 65 OFFCURVE",
"136 94 OFFCURVE",
"145 145 CURVE SMOOTH",
"153 190 OFFCURVE",
"194 225 OFFCURVE",
"274 225 CURVE SMOOTH",
"354 225 LINE",
"337 125 LINE",
"325 114 OFFCURVE",
"313 104 OFFCURVE",
"301 95 CURVE SMOOTH",
"278 80 OFFCURVE",
"252 65 OFFCURVE",
"221 65 CURVE SMOOTH"
);
},
{
closed = 1;
nodes = (
"484 394 OFFCURVE",
"537 440 OFFCURVE",
"592 440 CURVE SMOOTH",
"648 440 OFFCURVE",
"684 395 OFFCURVE",
"665 285 CURVE",
"465 285 LINE"
);
}
);
width = 785;
},
{
layerId = "EFCBAD9B-4238-4620-A1C0-521E4552FF66";
paths = (
{
closed = 1;
nodes = (
"289 -10 OFFCURVE",
"349 29 OFFCURVE",
"385 62 CURVE",
"410 29 OFFCURVE",
"462 -10 OFFCURVE",
"558 -10 CURVE SMOOTH",
"609 -10 OFFCURVE",
"653 2 OFFCURVE",
"685 15 CURVE SMOOTH",
"704 22 OFFCURVE",
"721 31 OFFCURVE",
"737 40 CURVE",
"706 120 LINE",
"696 120 LINE",
"687 113 OFFCURVE",
"676 106 OFFCURVE",
"664 100 CURVE SMOOTH",
"644 89 OFFCURVE",
"616 80 OFFCURVE",
"584 80 CURVE SMOOTH",
"504 80 OFFCURVE",
"471 122 OFFCURVE",
"486 205 CURVE",
"756 205 LINE",
"791 235 LINE",
"795 260 LINE SMOOTH",
"824 425 OFFCURVE",
"754 510 OFFCURVE",
"619 510 CURVE SMOOTH",
"548 510 OFFCURVE",
"499 481 OFFCURVE",
"464 450 CURVE",
"439 480 OFFCURVE",
"399 510 OFFCURVE",
"314 510 CURVE SMOOTH",
"263 510 OFFCURVE",
"219 497 OFFCURVE",
"187 485 CURVE SMOOTH",
"168 478 OFFCURVE",
"151 469 OFFCURVE",
"136 460 CURVE",
"167 380 LINE",
"177 380 LINE",
"186 387 OFFCURVE",
"197 394 OFFCURVE",
"209 400 CURVE SMOOTH",
"229 411 OFFCURVE",
"256 420 OFFCURVE",
"289 420 CURVE SMOOTH",
"354 420 OFFCURVE",
"378 391 OFFCURVE",
"366 320 CURVE SMOOTH",
"363 305 LINE",
"293 305 LINE SMOOTH",
"134 305 OFFCURVE",
"56 241 OFFCURVE",
"40 145 CURVE SMOOTH",
"24 54 OFFCURVE",
"78 -10 OFFCURVE",
"198 -10 CURVE SMOOTH"
);
},
{
closed = 1;
nodes = (
"194 85 OFFCURVE",
"173 110 OFFCURVE",
"180 145 CURVE SMOOTH",
"188 190 OFFCURVE",
"217 215 OFFCURVE",
"277 215 CURVE SMOOTH",
"347 215 LINE",
"335 145 LINE",
"326 134 OFFCURVE",
"317 124 OFFCURVE",
"306 115 CURVE SMOOTH",
"287 100 OFFCURVE",
"264 85 OFFCURVE",
"239 85 CURVE SMOOTH"
);
},
{
closed = 1;
nodes = (
"518 380 OFFCURVE",
"564 420 OFFCURVE",
"604 420 CURVE SMOOTH",
"644 420 OFFCURVE",
"677 380 OFFCURVE",
"662 295 CURVE",
"502 295 LINE"
);
}
);
width = 815;
}
);
unicode = 00E6;
},
{
glyphname = b;
layers = (
{
layerId = UUID0;
paths = (
{
closed = 1;
nodes = (
"374 -10 OFFCURVE",
"472 75 OFFCURVE",
"504 250 CURVE",
"533 425 OFFCURVE",
"465 510 OFFCURVE",
"349 510 CURVE SMOOTH",
"318 510 OFFCURVE",
"290 502 OFFCURVE",
"269 495 CURVE",
"234 480 LINE",
"273 700 LINE",
"203 700 LINE",
"168 670 LINE",
"50 0 LINE",
"120 0 LINE",
"140 60 LINE",
"145 60 LINE",
"152 47 OFFCURVE",
"162 35 OFFCURVE",
"174 25 CURVE SMOOTH",
"195 6 OFFCURVE",
"227 -10 OFFCURVE",
"278 -10 CURVE SMOOTH"
);
},
{
closed = 1;
nodes = (
"235 65 OFFCURVE",
"212 80 OFFCURVE",
"196 95 CURVE SMOOTH",
"187 104 OFFCURVE",
"179 114 OFFCURVE",
"172 125 CURVE",
"224 420 LINE",
"232 424 OFFCURVE",
"241 427 OFFCURVE",
"252 430 CURVE SMOOTH",
"271 435 OFFCURVE",
"294 440 OFFCURVE",
"322 440 CURVE SMOOTH",
"387 440 OFFCURVE",
"428 390 OFFCURVE",
"404 250 CURVE SMOOTH",
"380 115 OFFCURVE",
"321 65 OFFCURVE",
"266 65 CURVE SMOOTH"
);
}
);
width = 535;
},
{
layerId = "EFCBAD9B-4238-4620-A1C0-521E4552FF66";
paths = (
{
closed = 1;
nodes = (
"408 -10 OFFCURVE",
"507 75 OFFCURVE",
"539 250 CURVE",
"568 425 OFFCURVE",
"499 510 OFFCURVE",
"374 510 CURVE SMOOTH",
"343 510 OFFCURVE",
"318 502 OFFCURVE",
"299 495 CURVE",
"269 480 LINE",
"308 700 LINE",
"208 700 LINE",
"161 660 LINE",
"45 0 LINE",
"145 0 LINE",
"165 60 LINE",
"170 60 LINE",
"177 47 OFFCURVE",
"186 35 OFFCURVE",
"198 25 CURVE",
"217 6 OFFCURVE",
"248 -10 OFFCURVE",
"293 -10 CURVE SMOOTH"
);
},
{
closed = 1;
nodes = (
"256 85 OFFCURVE",
"238 100 OFFCURVE",
"226 115 CURVE SMOOTH",
"219 124 OFFCURVE",
"213 134 OFFCURVE",
"210 145 CURVE",
"253 390 LINE",
"260 395 OFFCURVE",
"268 400 OFFCURVE",
"277 405 CURVE SMOOTH",
"292 412 OFFCURVE",
"311 420 OFFCURVE",
"334 420 CURVE SMOOTH",
"389 420 OFFCURVE",
"423 380 OFFCURVE",
"399 250 CURVE",
"378 125 OFFCURVE",
"328 85 OFFCURVE",
"284 85 CURVE SMOOTH"
);
}
);
width = 560;
}
);
unicode = 0062;
},
{
glyphname = c;
layers = (
{
layerId = UUID0;
paths = (
{
closed = 1;
nodes = (
"294 -10 OFFCURVE",
"336 2 OFFCURVE",
"367 17 CURVE SMOOTH",
"385 25 OFFCURVE",
"402 34 OFFCURVE",
"417 45 CURVE",
"393 105 LINE",
"383 105 LINE",
"371 96 OFFCURVE",
"359 89 OFFCURVE",
"346 82 CURVE SMOOTH",
"323 71 OFFCURVE",
"296 60 OFFCURVE",
"265 60 CURVE SMOOTH",
"184 60 OFFCURVE",
"145 110 OFFCURVE",
"169 250 CURVE SMOOTH",
"193 390 OFFCURVE",
"252 440 OFFCURVE",
"322 440 CURVE SMOOTH",
"353 440 OFFCURVE",
"376 428 OFFCURVE",
"395 417 CURVE SMOOTH",
"406 410 OFFCURVE",
"415 403 OFFCURVE",
"424 395 CURVE",
"434 395 LINE",
"480 455 LINE",
"468 465 OFFCURVE",
"454 474 OFFCURVE",
"439 482 CURVE SMOOTH",
"412 497 OFFCURVE",
"375 510 OFFCURVE",
"324 510 CURVE SMOOTH",
"199 510 OFFCURVE",
"100 426 OFFCURVE",
"69 250 CURVE SMOOTH",
"38 74 OFFCURVE",
"107 -10 OFFCURVE",
"243 -10 CURVE SMOOTH"
);
}
);
width = 455;
},
{
layerId = "EFCBAD9B-4238-4620-A1C0-521E4552FF66";
paths = (
{
closed = 1;
nodes = (
"309 -10 OFFCURVE",
"353 2 OFFCURVE",
"385 15 CURVE SMOOTH",
"404 22 OFFCURVE",
"421 31 OFFCURVE",
"437 40 CURVE",
"406 120 LINE",
"396 120 LINE",
"387 113 OFFCURVE",
"376 106 OFFCURVE",
"364 100 CURVE SMOOTH",
"344 89 OFFCURVE",
"316 80 OFFCURVE",
"284 80 CURVE SMOOTH",
"210 80 OFFCURVE",
"175 120 OFFCURVE",
"199 250 CURVE SMOOTH",
"223 380 OFFCURVE",
"269 420 OFFCURVE",
"334 420 CURVE SMOOTH",
"366 420 OFFCURVE",
"391 411 OFFCURVE",
"407 400 CURVE SMOOTH",
"416 394 OFFCURVE",
"425 387 OFFCURVE",
"432 380 CURVE",
"442 380 LINE",
"501 460 LINE",
"488 469 OFFCURVE",
"474 478 OFFCURVE",
"457 485 CURVE SMOOTH",
"429 497 OFFCURVE",
"390 510 OFFCURVE",
"339 510 CURVE SMOOTH",
"188 510 OFFCURVE",
"90 426 OFFCURVE",
"59 250 CURVE SMOOTH",
"28 74 OFFCURVE",
"97 -10 OFFCURVE",
"258 -10 CURVE SMOOTH"
);
}
);
width = 475;
}
);
unicode = 0063;
},
{
glyphname = d;
layers = (
{
layerId = UUID0;
paths = (
{
closed = 1;
nodes = (
"254 -10 OFFCURVE",
"292 6 OFFCURVE",
"319 25 CURVE SMOOTH",
"335 35 OFFCURVE",
"349 47 OFFCURVE",
"360 60 CURVE",
"365 60 LINE",
"365 0 LINE",
"435 0 LINE",
"558 700 LINE",
"488 700 LINE",
"453 670 LINE",
"419 480 LINE",
"389 495 LINE",
"370 502 OFFCURVE",
"345 510 OFFCURVE",
"314 510 CURVE SMOOTH",
"199 510 OFFCURVE",
"98 425 OFFCURVE",
"69 250 CURVE",
"37 75 OFFCURVE",
"109 -10 OFFCURVE",
"203 -10 CURVE SMOOTH"
);
},
{
closed = 1;
nodes = (
"186 65 OFFCURVE",
"145 115 OFFCURVE",
"169 250 CURVE SMOOTH",
"193 390 OFFCURVE",
"252 440 OFFCURVE",
"317 440 CURVE SMOOTH",
"344 440 OFFCURVE",
"368 435 OFFCURVE",
"384 430 CURVE SMOOTH",
"393 427 OFFCURVE",
"402 424 OFFCURVE",
"409 420 CURVE",
"357 125 LINE",
"345 114 OFFCURVE",
"333 104 OFFCURVE",
"321 95 CURVE SMOOTH",
"298 80 OFFCURVE",
"272 65 OFFCURVE",
"241 65 CURVE SMOOTH"
);
}
);
width = 535;
},
{
layerId = "EFCBAD9B-4238-4620-A1C0-521E4552FF66";
paths = (
{
closed = 1;
nodes = (
"258 -10 OFFCURVE",
"293 6 OFFCURVE",
"320 25 CURVE SMOOTH",
"335 35 OFFCURVE",
"348 47 OFFCURVE",
"360 60 CURVE",
"365 60 LINE",
"365 0 LINE",
"465 0 LINE",
"588 700 LINE",
"488 700 LINE",
"441 660 LINE",
"409 480 LINE",
"402 485 OFFCURVE",
"393 490 OFFCURVE",
"384 495 CURVE SMOOTH",
"368 502 OFFCURVE",
"345 510 OFFCURVE",
"314 510 CURVE SMOOTH",
"189 510 OFFCURVE",
"90 426 OFFCURVE",
"59 250 CURVE",
"27 75 OFFCURVE",
"98 -10 OFFCURVE",
"213 -10 CURVE SMOOTH"
);
},
{
closed = 1;
nodes = (
"209 85 OFFCURVE",
"178 125 OFFCURVE",
"199 250 CURVE",
"223 380 OFFCURVE",
"268 420 OFFCURVE",
"324 420 CURVE SMOOTH",
"347 420 OFFCURVE",
"363 412 OFFCURVE",
"375 405 CURVE SMOOTH",
"382 400 OFFCURVE",
"388 395 OFFCURVE",
"393 390 CURVE",
"350 145 LINE",
"342 134 OFFCURVE",
"333 124 OFFCURVE",
"323 115 CURVE SMOOTH",
"306 100 OFFCURVE",
"281 85 OFFCURVE",
"254 85 CURVE SMOOTH"
);
}
);
width = 560;
}
);
unicode = 0064;
},
{
glyphname = eth;
layers = (
{
layerId = UUID0;
paths = (
{
closed = 1;
nodes = (
"349 -10 OFFCURVE",
"447 75 OFFCURVE",
"474 225 CURVE SMOOTH",
"492 325 LINE SMOOTH",
"519 482 OFFCURVE",
"493 574 OFFCURVE",
"417 625 CURVE",
"455 684 LINE",
"396 713 LINE",
"358 654 LINE",
"338 661 OFFCURVE",
"316 666 OFFCURVE",
"293 670 CURVE SMOOTH",
"234 680 LINE",
"212 610 LINE",
"265 600 LINE SMOOTH",
"285 596 OFFCURVE",
"302 592 OFFCURVE",
"315 587 CURVE",
"274 524 LINE",
"332 494 LINE",
"373 557 LINE",
"420 522 OFFCURVE",
"433 467 OFFCURVE",
"418 390 CURVE",
"397 441 OFFCURVE",
"352 460 OFFCURVE",
"281 460 CURVE SMOOTH",
"181 460 OFFCURVE",
"81 375 OFFCURVE",
"54 225 CURVE SMOOTH",
"27 75 OFFCURVE",
"98 -10 OFFCURVE",
"223 -10 CURVE SMOOTH"
);
},
{
closed = 1;
nodes = (
"176 60 OFFCURVE",
"133 111 OFFCURVE",
"154 225 CURVE SMOOTH",
"174 336 OFFCURVE",
"232 385 OFFCURVE",
"292 385 CURVE SMOOTH",
"352 385 OFFCURVE",
"393 336 OFFCURVE",
"374 225 CURVE SMOOTH",
"354 110 OFFCURVE",
"295 60 OFFCURVE",
"235 60 CURVE SMOOTH"
);
}
);
width = 515;
},
{
layerId = "EFCBAD9B-4238-4620-A1C0-521E4552FF66";
paths = (
{
closed = 1;
nodes = (
"383 -10 OFFCURVE",
"482 74 OFFCURVE",
"509 225 CURVE SMOOTH",
"527 325 LINE SMOOTH",
"554 482 OFFCURVE",
"526 575 OFFCURVE",
"434 631 CURVE",
"472 695 LINE",
"393 730 LINE",
"356 667 LINE",
"343 672 OFFCURVE",
"327 676 OFFCURVE",
"309 680 CURVE SMOOTH",
"247 695 LINE",
"212 610 LINE",
"280 596 LINE",
"309 588 LINE",
"272 525 LINE",
"351 490 LINE",
"385 549 LINE",
"424 514 OFFCURVE",
"437 465 OFFCURVE",
"425 400 CURVE",
"401 435 OFFCURVE",
"356 460 OFFCURVE",
"296 460 CURVE SMOOTH",
"176 460 OFFCURVE",
"76 375 OFFCURVE",
"49 225 CURVE SMOOTH",
"22 74 OFFCURVE",
"93 -10 OFFCURVE",
"238 -10 CURVE SMOOTH"
);
},
{
closed = 1;
nodes = (
"204 80 OFFCURVE",
"170 120 OFFCURVE",
"189 225 CURVE SMOOTH",
"208 325 OFFCURVE",
"253 365 OFFCURVE",
"304 365 CURVE SMOOTH",
"354 365 OFFCURVE",
"388 325 OFFCURVE",
"369 225 CURVE SMOOTH",
"350 120 OFFCURVE",
"305 80 OFFCURVE",
"254 80 CURVE SMOOTH"
);
}
);
width = 545;
}
);
unicode = 00F0;
},
{
glyphname = dcaron;
layers = (
{
layerId = UUID0;
paths = (
{
closed = 1;
nodes = (
"254 -10 OFFCURVE",
"292 6 OFFCURVE",
"319 25 CURVE SMOOTH",
"335 35 OFFCURVE",
"349 47 OFFCURVE",
"360 60 CURVE",
"365 60 LINE",
"365 0 LINE",
"435 0 LINE",
"558 700 LINE",
"488 700 LINE",
"453 670 LINE",
"419 480 LINE",
"389 495 LINE",
"370 502 OFFCURVE",
"345 510 OFFCURVE",
"314 510 CURVE SMOOTH",
"199 510 OFFCURVE",
"98 425 OFFCURVE",
"69 250 CURVE",
"37 75 OFFCURVE",
"109 -10 OFFCURVE",
"203 -10 CURVE SMOOTH"
);
},
{
closed = 1;
nodes = (
"186 65 OFFCURVE",
"145 115 OFFCURVE",
"169 250 CURVE SMOOTH",
"193 390 OFFCURVE",
"252 440 OFFCURVE",
"317 440 CURVE SMOOTH",
"344 440 OFFCURVE",
"368 435 OFFCURVE",
"384 430 CURVE SMOOTH",
"393 427 OFFCURVE",
"402 424 OFFCURVE",
"409 420 CURVE",
"357 125 LINE",
"345 114 OFFCURVE",
"333 104 OFFCURVE",
"321 95 CURVE SMOOTH",
"298 80 OFFCURVE",
"272 65 OFFCURVE",
"241 65 CURVE SMOOTH"
);
},
{
closed = 1;
nodes = (
"632 493 OFFCURVE",
"647 505 OFFCURVE",
"661 520 CURVE SMOOTH",
"685 545 OFFCURVE",
"711 583 OFFCURVE",
"722 636 CURVE",
"729 675 OFFCURVE",
"708 700 OFFCURVE",
"673 700 CURVE SMOOTH",
"648 700 OFFCURVE",
"620 676 OFFCURVE",
"613 645 CURVE",
"608 614 OFFCURVE",
"629 590 OFFCURVE",
"654 590 CURVE",
"650 570 OFFCURVE",
"634 552 OFFCURVE",
"619 537 CURVE SMOOTH",
"610 529 OFFCURVE",
"601 522 OFFCURVE",
"590 515 CURVE",
"615 484 LINE"
);
}
);
width = 645;
},
{
layerId = "EFCBAD9B-4238-4620-A1C0-521E4552FF66";
paths = (
{
closed = 1;
nodes = (
"258 -10 OFFCURVE",
"293 6 OFFCURVE",
"320 25 CURVE SMOOTH",
"335 35 OFFCURVE",
"348 47 OFFCURVE",
"360 60 CURVE",
"365 60 LINE",
"365 0 LINE",
"465 0 LINE",
"588 700 LINE",
"488 700 LINE",
"441 660 LINE",
"409 480 LINE",
"402 485 OFFCURVE",
"393 490 OFFCURVE",
"384 495 CURVE SMOOTH",
"368 502 OFFCURVE",
"345 510 OFFCURVE",
"314 510 CURVE SMOOTH",
"189 510 OFFCURVE",
"90 426 OFFCURVE",
"59 250 CURVE",
"27 75 OFFCURVE",
"98 -10 OFFCURVE",
"213 -10 CURVE SMOOTH"
);
},
{
closed = 1;
nodes = (
"209 85 OFFCURVE",
"178 125 OFFCURVE",
"199 250 CURVE",
"223 380 OFFCURVE",
"268 420 OFFCURVE",
"324 420 CURVE SMOOTH",
"347 420 OFFCURVE",
"363 412 OFFCURVE",
"375 405 CURVE SMOOTH",
"382 400 OFFCURVE",
"388 395 OFFCURVE",
"393 390 CURVE",
"350 145 LINE",
"342 134 OFFCURVE",
"333 124 OFFCURVE",
"323 115 CURVE SMOOTH",
"306 100 OFFCURVE",
"281 85 OFFCURVE",
"254 85 CURVE SMOOTH"
);
},
{
closed = 1;
nodes = (
"642 493 OFFCURVE",
"657 505 OFFCURVE",
"671 520 CURVE SMOOTH",
"695 545 OFFCURVE",
"721 583 OFFCURVE",
"732 636 CURVE",
"739 675 OFFCURVE",
"718 700 OFFCURVE",
"683 700 CURVE SMOOTH",
"658 700 OFFCURVE",
"630 676 OFFCURVE",
"623 645 CURVE",
"618 614 OFFCURVE",
"639 590 OFFCURVE",
"664 590 CURVE",
"660 570 OFFCURVE",
"644 552 OFFCURVE",
"629 537 CURVE SMOOTH",
"620 529 OFFCURVE",
"611 522 OFFCURVE",
"600 515 CURVE",
"625 484 LINE"
);
}
);
width = 655;
}
);
unicode = 010F;
},
{
glyphname = dcroat;
layers = (
{
layerId = UUID0;
paths = (
{
closed = 1;
nodes = (
"254 -10 OFFCURVE",
"292 6 OFFCURVE",
"319 25 CURVE SMOOTH",
"335 35 OFFCURVE",
"349 47 OFFCURVE",
"360 60 CURVE",
"365 60 LINE",
"365 0 LINE",
"435 0 LINE",
"528 530 LINE",
"593 530 LINE",
"605 600 LINE",
"540 600 LINE",
"558 700 LINE",
"488 700 LINE",
"453 670 LINE",
"440 600 LINE",
"335 600 LINE",
"323 530 LINE",
"428 530 LINE",
"412 440 LINE",
"382 455 LINE",
"363 462 OFFCURVE",
"338 470 OFFCURVE",
"307 470 CURVE SMOOTH",
"192 470 OFFCURVE",
"92 386 OFFCURVE",
"65 230 CURVE SMOOTH",
"38 74 OFFCURVE",
"108 -10 OFFCURVE",
"203 -10 CURVE SMOOTH"
);
},
{
closed = 1;
nodes = (
"187 65 OFFCURVE",
"144 116 OFFCURVE",
"165 230 CURVE SMOOTH",
"186 350 OFFCURVE",
"245 400 OFFCURVE",
"310 400 CURVE SMOOTH",
"337 400 OFFCURVE",
"361 395 OFFCURVE",
"377 390 CURVE SMOOTH",
"386 387 OFFCURVE",
"395 384 OFFCURVE",
"402 380 CURVE",
"357 125 LINE",
"345 114 OFFCURVE",
"333 104 OFFCURVE",
"321 95 CURVE SMOOTH",
"298 80 OFFCURVE",
"272 65 OFFCURVE",
"241 65 CURVE SMOOTH"
);
}
);
width = 545;
},
{
layerId = "EFCBAD9B-4238-4620-A1C0-521E4552FF66";
paths = (
{
closed = 1;
nodes = (
"258 -10 OFFCURVE",
"293 6 OFFCURVE",
"320 25 CURVE SMOOTH",
"335 35 OFFCURVE",
"348 47 OFFCURVE",
"360 60 CURVE",
"365 60 LINE",
"365 0 LINE",
"465 0 LINE",
"556 520 LINE",
"611 520 LINE",
"627 610 LINE",
"572 610 LINE",
"588 700 LINE",
"488 700 LINE",
"441 660 LINE",
"432 610 LINE",
"337 610 LINE",
"321 520 LINE",
"416 520 LINE",
"404 450 LINE",
"397 455 OFFCURVE",
"388 460 OFFCURVE",
"379 465 CURVE SMOOTH",
"363 472 OFFCURVE",
"340 480 OFFCURVE",
"309 480 CURVE SMOOTH",
"185 480 OFFCURVE",
"83 395 OFFCURVE",
"56 235 CURVE",
"27 75 OFFCURVE",
"99 -10 OFFCURVE",
"213 -10 CURVE SMOOTH"
);
},
{
closed = 1;
nodes = (
"208 85 OFFCURVE",
"177 126 OFFCURVE",
"196 235 CURVE SMOOTH",
"216 350 OFFCURVE",
"263 390 OFFCURVE",
"318 390 CURVE SMOOTH",
"341 390 OFFCURVE",
"358 382 OFFCURVE",
"370 375 CURVE SMOOTH",
"377 370 OFFCURVE",
"383 365 OFFCURVE",
"388 360 CURVE",
"350 145 LINE",
"342 134 OFFCURVE",
"333 124 OFFCURVE",
"323 115 CURVE SMOOTH",
"306 100 OFFCURVE",
"281 85 OFFCURVE",
"254 85 CURVE SMOOTH"
);
}
);
width = 560;
}
);
unicode = 0111;
},
{
glyphname = e;
layers = (
{
layerId = UUID0;
paths = (
{
closed = 1;
nodes = (
"294 -10 OFFCURVE",
"336 2 OFFCURVE",
"367 17 CURVE SMOOTH",
"385 25 OFFCURVE",
"402 34 OFFCURVE",
"417 45 CURVE",
"393 105 LINE",
"383 105 LINE",
"371 96 OFFCURVE",
"359 89 OFFCURVE",
"346 82 CURVE SMOOTH",
"323 71 OFFCURVE",
"296 60 OFFCURVE",
"265 60 CURVE SMOOTH",
"185 60 OFFCURVE",
"143 110 OFFCURVE",
"162 215 CURVE",
"452 215 LINE",
"476 235 LINE",
"479 250 LINE SMOOTH",
"508 425 OFFCURVE",
"440 510 OFFCURVE",
"319 510 CURVE SMOOTH",
"199 510 OFFCURVE",
"98 425 OFFCURVE",
"69 250 CURVE",
"38 74 OFFCURVE",
"107 -10 OFFCURVE",
"243 -10 CURVE SMOOTH"
);
},
{
closed = 1;
nodes = (
"194 394 OFFCURVE",
"247 440 OFFCURVE",
"307 440 CURVE SMOOTH",
"367 440 OFFCURVE",
"404 396 OFFCURVE",
"385 285 CURVE",
"175 285 LINE"
);
}
);
width = 505;
},
{
layerId = "EFCBAD9B-4238-4620-A1C0-521E4552FF66";
paths = (
{
closed = 1;
nodes = (
"314 -10 OFFCURVE",
"358 2 OFFCURVE",
"390 15 CURVE SMOOTH",
"409 22 OFFCURVE",
"426 31 OFFCURVE",
"442 40 CURVE",
"411 120 LINE",
"401 120 LINE",
"392 113 OFFCURVE",
"381 106 OFFCURVE",
"369 100 CURVE SMOOTH",
"349 89 OFFCURVE",
"321 80 OFFCURVE",
"289 80 CURVE SMOOTH",
"209 80 OFFCURVE",
"176 122 OFFCURVE",
"191 205 CURVE",
"461 205 LINE",
"496 235 LINE",
"500 260 LINE SMOOTH",
"529 425 OFFCURVE",
"459 510 OFFCURVE",
"324 510 CURVE SMOOTH",
"188 510 OFFCURVE",
"90 426 OFFCURVE",
"59 250 CURVE SMOOTH",
"28 77 OFFCURVE",
"96 -10 OFFCURVE",
"263 -10 CURVE SMOOTH"
);
},
{
closed = 1;
nodes = (
"223 380 OFFCURVE",
"269 420 OFFCURVE",
"309 420 CURVE SMOOTH",
"349 420 OFFCURVE",
"382 380 OFFCURVE",
"367 295 CURVE",
"207 295 LINE"
);
}
);
width = 520;
}
);
unicode = 0065;
},
{
glyphname = f;
layers = (
{
layerId = UUID0;
paths = (
{
closed = 1;
nodes = (
"160 0 LINE",
"235 430 LINE",
"370 430 LINE",
"383 500 LINE",
"248 500 LINE",
"256 550 LINE",
"267 610 OFFCURVE",
"302 640 OFFCURVE",
"347 640 CURVE SMOOTH",
"370 640 OFFCURVE",
"390 628 OFFCURVE",
"405 617 CURVE SMOOTH",
"414 610 OFFCURVE",
"422 603 OFFCURVE",
"429 595 CURVE",
"439 595 LINE",
"485 655 LINE",
"474 665 OFFCURVE",
"462 674 OFFCURVE",
"449 682 CURVE SMOOTH",
"426 697 OFFCURVE",
"393 710 OFFCURVE",
"350 710 CURVE SMOOTH",
"250 710 OFFCURVE",
"172 646 OFFCURVE",
"156 550 CURVE SMOOTH",
"148 500 LINE",
"83 500 LINE",
"70 430 LINE",
"135 430 LINE",
"60 0 LINE"
);
}
);
width = 340;
},
{
layerId = "EFCBAD9B-4238-4620-A1C0-521E4552FF66";
paths = (
{
closed = 1;
nodes = (
"190 0 LINE",
"262 410 LINE",
"387 410 LINE",
"403 500 LINE",
"278 500 LINE",
"285 540 LINE SMOOTH",
"294 591 OFFCURVE",
"329 620 OFFCURVE",
"364 620 CURVE SMOOTH",
"387 620 OFFCURVE",
"405 611 OFFCURVE",
"420 600 CURVE SMOOTH",
"428 594 OFFCURVE",
"435 587 OFFCURVE",
"442 580 CURVE",
"452 580 LINE",
"511 660 LINE",
"498 669 OFFCURVE",
"485 678 OFFCURVE",
"470 685 CURVE SMOOTH",
"445 697 OFFCURVE",
"410 710 OFFCURVE",
"370 710 CURVE SMOOTH",
"245 710 OFFCURVE",
"162 640 OFFCURVE",
"145 540 CURVE SMOOTH",
"138 500 LINE",
"83 500 LINE",
"67 410 LINE",
"122 410 LINE",
"50 0 LINE"
);
}
);
width = 365;
}
);
unicode = 0066;
},
{
glyphname = g;
layers = (
{
layerId = UUID0;
paths = (
{
closed = 1;
nodes = (
"318 -210 OFFCURVE",
"412 -130 OFFCURVE",
"433 -10 CURVE SMOOTH",
"523 500 LINE",
"453 500 LINE",
"432 440 LINE",
"427 440 LINE",
"420 453 OFFCURVE",
"410 464 OFFCURVE",
"398 475 CURVE SMOOTH",
"377 492 OFFCURVE",
"345 510 OFFCURVE",
"294 510 CURVE SMOOTH",
"200 510 OFFCURVE",
"98 425 OFFCURVE",
"69 250 CURVE",
"37 75 OFFCURVE",
"108 -10 OFFCURVE",
"223 -10 CURVE SMOOTH",
"254 -10 OFFCURVE",
"282 -3 OFFCURVE",
"303 5 CURVE SMOOTH",
"315 9 OFFCURVE",
"327 14 OFFCURVE",
"338 20 CURVE",
"333 -10 LINE SMOOTH",
"317 -101 OFFCURVE",
"270 -140 OFFCURVE",
"185 -140 CURVE SMOOTH",
"154 -140 OFFCURVE",
"130 -129 OFFCURVE",
"111 -118 CURVE SMOOTH",
"100 -111 OFFCURVE",
"91 -104 OFFCURVE",
"83 -95 CURVE",
"73 -95 LINE",
"27 -155 LINE",
"38 -166 OFFCURVE",
"52 -175 OFFCURVE",
"67 -183 CURVE SMOOTH",
"94 -198 OFFCURVE",
"131 -210 OFFCURVE",
"182 -210 CURVE SMOOTH"
);
},
{
closed = 1;
nodes = (
"184 60 OFFCURVE",
"145 110 OFFCURVE",
"169 250 CURVE SMOOTH",
"193 385 OFFCURVE",
"250 435 OFFCURVE",
"306 435 CURVE SMOOTH",
"337 435 OFFCURVE",
"360 420 OFFCURVE",
"376 405 CURVE SMOOTH",
"385 396 OFFCURVE",
"394 386 OFFCURVE",
"401 375 CURVE",
"349 80 LINE",
"340 76 OFFCURVE",
"331 73 OFFCURVE",
"320 70 CURVE SMOOTH",
"301 65 OFFCURVE",
"277 60 OFFCURVE",
"250 60 CURVE SMOOTH"
);
}
);
width = 535;
},
{
layerId = "EFCBAD9B-4238-4620-A1C0-521E4552FF66";
paths = (
{
closed = 1;
nodes = (
"342 -210 OFFCURVE",
"442 -124 OFFCURVE",
"463 -10 CURVE",
"553 500 LINE",
"453 500 LINE",
"432 440 LINE",
"427 440 LINE",
"420 453 OFFCURVE",
"410 464 OFFCURVE",
"399 475 CURVE",
"379 492 OFFCURVE",
"349 510 OFFCURVE",
"304 510 CURVE SMOOTH",
"189 510 OFFCURVE",
"88 425 OFFCURVE",
"59 250 CURVE",
"28 75 OFFCURVE",
"98 -10 OFFCURVE",
"223 -10 CURVE SMOOTH",
"254 -10 OFFCURVE",
"279 -3 OFFCURVE",
"298 5 CURVE SMOOTH",
"309 9 OFFCURVE",
"319 14 OFFCURVE",
"328 20 CURVE",
"323 -10 LINE SMOOTH",
"310 -81 OFFCURVE",
"263 -120 OFFCURVE",
"198 -120 CURVE SMOOTH",
"163 -120 OFFCURVE",
"137 -111 OFFCURVE",
"120 -100 CURVE SMOOTH",
"110 -94 OFFCURVE",
"102 -87 OFFCURVE",
"95 -80 CURVE",
"85 -80 LINE",
"26 -160 LINE",
"39 -169 OFFCURVE",
"53 -178 OFFCURVE",
"70 -185 CURVE SMOOTH",
"98 -198 OFFCURVE",
"139 -210 OFFCURVE",
"192 -210 CURVE SMOOTH"
);
},
{
closed = 1;
nodes = (
"209 80 OFFCURVE",
"175 120 OFFCURVE",
"199 250 CURVE",
"220 375 OFFCURVE",
"268 415 OFFCURVE",
"313 415 CURVE SMOOTH",
"340 415 OFFCURVE",
"359 400 OFFCURVE",
"371 385 CURVE SMOOTH",
"378 376 OFFCURVE",
"384 366 OFFCURVE",
"387 355 CURVE",
"344 110 LINE",
"337 104 OFFCURVE",
"329 99 OFFCURVE",
"321 95 CURVE SMOOTH",
"306 87 OFFCURVE",
"287 80 OFFCURVE",
"264 80 CURVE SMOOTH"
);
}
);
width = 560;
}
);
unicode = 0067;
},
{
glyphname = h;
layers = (
{
layerId = UUID0;
paths = (
{
closed = 1;
nodes = (
"150 0 LINE",
"216 375 LINE",
"227 386 OFFCURVE",
"239 396 OFFCURVE",
"251 405 CURVE SMOOTH",
"272 420 OFFCURVE",
"300 435 OFFCURVE",
"331 435 CURVE SMOOTH",
"387 435 OFFCURVE",
"420 396 OFFCURVE",
"409 340 CURVE",
"350 0 LINE",
"450 0 LINE",
"509 340 LINE",
"528 440 OFFCURVE",
"469 510 OFFCURVE",
"369 510 CURVE SMOOTH",
"326 510 OFFCURVE",
"292 497 OFFCURVE",
"268 485 CURVE SMOOTH",
"254 478 OFFCURVE",
"242 469 OFFCURVE",
"231 460 CURVE",
"273 700 LINE",
"203 700 LINE",
"168 670 LINE",
"50 0 LINE"
);
}
);
width = 545;
},
{
layerId = "EFCBAD9B-4238-4620-A1C0-521E4552FF66";
paths = (
{
closed = 1;
nodes = (
"185 0 LINE",
"247 355 LINE",
"255 366 OFFCURVE",
"264 376 OFFCURVE",
"274 385 CURVE SMOOTH",
"291 400 OFFCURVE",
"315 415 OFFCURVE",
"343 415 CURVE SMOOTH",
"388 415 OFFCURVE",
"412 385 OFFCURVE",
"401 320 CURVE SMOOTH",
"345 0 LINE",
"485 0 LINE",
"541 320 LINE SMOOTH",
"562 441 OFFCURVE",
"505 510 OFFCURVE",
"384 510 CURVE SMOOTH",
"349 510 OFFCURVE",
"320 498 OFFCURVE",
"299 487 CURVE SMOOTH",
"287 480 OFFCURVE",
"276 473 OFFCURVE",
"266 465 CURVE",
"308 700 LINE",
"208 700 LINE",
"161 660 LINE",
"45 0 LINE"
);
}
);
width = 575;
}
);
unicode = 0068;
},
{
glyphname = hbar;
layers = (
{
layerId = UUID0;
paths = (
{
closed = 1;
nodes = (
"165 0 LINE",
"220 315 LINE",
"231 326 OFFCURVE",
"242 336 OFFCURVE",
"255 345 CURVE SMOOTH",
"276 360 OFFCURVE",
"305 375 OFFCURVE",
"336 375 CURVE SMOOTH",
"392 375 OFFCURVE",
"425 336 OFFCURVE",
"414 280 CURVE",
"365 0 LINE",
"465 0 LINE",
"514 280 LINE",
"533 380 OFFCURVE",
"474 450 OFFCURVE",
"374 450 CURVE SMOOTH",
"331 450 OFFCURVE",
"297 437 OFFCURVE",
"273 425 CURVE SMOOTH",
"259 418 OFFCURVE",
"246 409 OFFCURVE",
"235 400 CURVE",
"256 520 LINE",
"391 520 LINE",
"404 590 LINE",
"269 590 LINE",
"288 700 LINE",
"218 700 LINE",
"183 670 LINE",
"169 590 LINE",
"104 590 LINE",
"91 520 LINE",
"156 520 LINE",
"65 0 LINE"
);
}
);
width = 560;
},
{
layerId = "EFCBAD9B-4238-4620-A1C0-521E4552FF66";
paths = (
{
closed = 1;
nodes = (
"190 0 LINE",
"242 295 LINE",
"250 306 OFFCURVE",
"259 316 OFFCURVE",
"269 325 CURVE SMOOTH",
"286 340 OFFCURVE",
"309 355 OFFCURVE",
"337 355 CURVE SMOOTH",
"382 355 OFFCURVE",
"407 325 OFFCURVE",
"395 260 CURVE",
"350 0 LINE",
"490 0 LINE",
"535 260 LINE",
"558 381 OFFCURVE",
"500 450 OFFCURVE",
"379 450 CURVE SMOOTH",
"344 450 OFFCURVE",
"315 438 OFFCURVE",
"294 427 CURVE SMOOTH",
"282 420 OFFCURVE",
"271 413 OFFCURVE",
"261 405 CURVE",
"278 500 LINE",
"403 500 LINE",
"419 590 LINE",
"294 590 LINE",
"313 700 LINE",
"213 700 LINE",
"166 660 LINE",
"154 590 LINE",
"99 590 LINE",
"83 500 LINE",
"138 500 LINE",
"50 0 LINE"
);
}
);
width = 575;
}
);
unicode = 0127;
},
{
glyphname = i;
layers = (
{
layerId = UUID0;
paths = (
{
closed = 1;
nodes = (
"150 0 LINE",
"238 500 LINE",
"138 500 LINE",
"50 0 LINE"
);
},
{
closed = 1;
nodes = (
"237 580 OFFCURVE",
"265 605 OFFCURVE",
"272 640 CURVE SMOOTH",
"279 675 OFFCURVE",
"258 700 OFFCURVE",
"223 700 CURVE SMOOTH",
"188 700 OFFCURVE",
"159 675 OFFCURVE",
"152 640 CURVE SMOOTH",
"145 605 OFFCURVE",
"167 580 OFFCURVE",
"202 580 CURVE SMOOTH"
);
}
);
width = 250;
},
{
layerId = "EFCBAD9B-4238-4620-A1C0-521E4552FF66";
paths = (
{
closed = 1;
nodes = (
"185 0 LINE",
"273 500 LINE",
"133 500 LINE",
"45 0 LINE"
);
},
{
closed = 1;
nodes = (
"254 565 OFFCURVE",
"294 600 OFFCURVE",
"302 640 CURVE SMOOTH",
"309 680 OFFCURVE",
"281 715 OFFCURVE",
"241 715 CURVE SMOOTH",
"200 715 OFFCURVE",
"160 680 OFFCURVE",
"152 640 CURVE SMOOTH",
"145 600 OFFCURVE",
"174 565 OFFCURVE",
"214 565 CURVE SMOOTH"
);
}
);
width = 280;
}
);
unicode = 0069;
},
{
glyphname = idotless;
layers = (
{
layerId = UUID0;
paths = (
{
closed = 1;
nodes = (
"150 0 LINE",
"238 500 LINE",
"138 500 LINE",
"50 0 LINE"
);
}
);
width = 250;
},
{
layerId = "EFCBAD9B-4238-4620-A1C0-521E4552FF66";
paths = (
{
closed = 1;
nodes = (
"185 0 LINE",
"273 500 LINE",
"133 500 LINE",
"45 0 LINE"
);
}
);
width = 280;
}
);
unicode = 0131;
},
{
glyphname = iacute;
layers = (
{
layerId = UUID0;
paths = (
{
closed = 1;
nodes = (
"150 0 LINE",
"238 500 LINE",
"138 500 LINE",
"50 0 LINE"
);
},
{
closed = 1;
nodes = (
"223 550 LINE",
"340 700 LINE",
"230 700 LINE",
"158 550 LINE"
);
}
);
width = 257;
},
{
layerId = "EFCBAD9B-4238-4620-A1C0-521E4552FF66";
paths = (
{
closed = 1;
nodes = (
"185 0 LINE",
"273 500 LINE",
"133 500 LINE",
"45 0 LINE"
);
},
{
closed = 1;
nodes = (
"238 550 LINE",
"365 700 LINE",
"230 700 LINE",
"158 550 LINE"
);
}
);
width = 282;
}
);
unicode = 00ED;
},
{
glyphname = icircumflex;
layers = (
{
layerId = UUID0;
paths = (
{
closed = 1;
nodes = (
"155 0 LINE",
"243 500 LINE",
"143 500 LINE",
"55 0 LINE"
);
},
{
closed = 1;
nodes = (
"128 560 LINE",
"215 625 LINE",
"278 560 LINE",
"343 560 LINE",
"261 690 LINE",
"191 690 LINE",
"63 560 LINE"
);
}
);
width = 260;
},
{
layerId = "EFCBAD9B-4238-4620-A1C0-521E4552FF66";
paths = (
{
closed = 1;
nodes = (
"190 0 LINE",
"278 500 LINE",
"138 500 LINE",
"50 0 LINE"
);
},
{
closed = 1;
nodes = (
"153 560 LINE",
"231 630 LINE",
"283 560 LINE",
"378 560 LINE",
"292 694 LINE",
"192 694 LINE",
"58 560 LINE"
);
}
);
width = 290;
}
);
unicode = 00EE;
},
{
glyphname = idieresis;
layers = (
{
layerId = UUID0;
paths = (
{
closed = 1;
nodes = (
"155 0 LINE",
"243 500 LINE",
"143 500 LINE",
"55 0 LINE"
);
},
{
closed = 1;
nodes = (
"146 565 OFFCURVE",
"172 588 OFFCURVE",
"179 620 CURVE",
"184 652 OFFCURVE",
"166 675 OFFCURVE",
"134 675 CURVE SMOOTH",
"102 675 OFFCURVE",
"74 652 OFFCURVE",
"69 620 CURVE",
"62 588 OFFCURVE",
"82 565 OFFCURVE",
"114 565 CURVE SMOOTH"
);
},
{
closed = 1;
nodes = (
"321 565 OFFCURVE",
"347 588 OFFCURVE",
"354 620 CURVE",
"359 652 OFFCURVE",
"341 675 OFFCURVE",
"309 675 CURVE SMOOTH",
"277 675 OFFCURVE",
"249 652 OFFCURVE",
"244 620 CURVE",
"237 588 OFFCURVE",
"257 565 OFFCURVE",
"289 565 CURVE SMOOTH"
);
}
);
width = 260;
},
{
layerId = "EFCBAD9B-4238-4620-A1C0-521E4552FF66";
paths = (
{
closed = 1;
nodes = (
"195 0 LINE",
"283 500 LINE",
"143 500 LINE",
"55 0 LINE"
);
},
{
closed = 1;
nodes = (
"161 570 OFFCURVE",
"202 603 OFFCURVE",
"207 640 CURVE",
"214 677 OFFCURVE",
"187 710 OFFCURVE",
"150 710 CURVE SMOOTH",
"113 710 OFFCURVE",
"75 677 OFFCURVE",
"67 640 CURVE SMOOTH",
"60 603 OFFCURVE",
"88 570 OFFCURVE",
"125 570 CURVE SMOOTH"
);
},
{
closed = 1;
nodes = (
"356 570 OFFCURVE",
"397 603 OFFCURVE",
"402 640 CURVE",
"409 677 OFFCURVE",
"382 710 OFFCURVE",
"345 710 CURVE SMOOTH",
"308 710 OFFCURVE",
"270 677 OFFCURVE",
"262 640 CURVE SMOOTH",
"255 603 OFFCURVE",
"283 570 OFFCURVE",
"320 570 CURVE SMOOTH"
);
}
);
width = 300;
}
);
unicode = 00EF;
},
{
glyphname = igrave;
layers = (
{
layerId = UUID0;
paths = (
{
closed = 1;
nodes = (
"158 0 LINE",
"246 500 LINE",
"146 500 LINE",
"58 0 LINE"
);
},
{
closed = 1;
nodes = (
"241 550 LINE",
"223 700 LINE",
"113 700 LINE",
"176 550 LINE"
);
}
);
width = 258;
},
{
layerId = "EFCBAD9B-4238-4620-A1C0-521E4552FF66";
paths = (
{
closed = 1;
nodes = (
"188 0 LINE",
"276 500 LINE",
"136 500 LINE",
"48 0 LINE"
);
},
{
closed = 1;
nodes = (
"266 550 LINE",
"248 700 LINE",
"113 700 LINE",
"186 550 LINE"
);
}
);
width = 283;
}
);
unicode = 00EC;
},
{
glyphname = ij;
layers = (
{
layerId = UUID0;
paths = (
{
closed = 1;
nodes = (
"304 -200 OFFCURVE",
"381 -136 OFFCURVE",
"397 -40 CURVE",
"493 500 LINE",
"138 500 LINE",
"50 0 LINE",
"150 0 LINE",
"225 430 LINE",
"380 430 LINE",
"297 -40 LINE SMOOTH",
"286 -100 OFFCURVE",
"252 -130 OFFCURVE",
"207 -130 CURVE SMOOTH",
"192 -130 OFFCURVE",
"179 -125 OFFCURVE",
"170 -118 CURVE SMOOTH",
"165 -115 OFFCURVE",
"160 -110 OFFCURVE",
"156 -105 CURVE",
"146 -105 LINE",
"110 -170 LINE",
"117 -176 OFFCURVE",
"125 -181 OFFCURVE",
"134 -185 CURVE SMOOTH",
"150 -193 OFFCURVE",
"173 -200 OFFCURVE",
"204 -200 CURVE SMOOTH"
);
},
{
closed = 1;
nodes = (
"237 580 OFFCURVE",
"265 605 OFFCURVE",
"272 640 CURVE SMOOTH",
"279 675 OFFCURVE",
"258 700 OFFCURVE",
"223 700 CURVE SMOOTH",
"188 700 OFFCURVE",
"159 675 OFFCURVE",
"152 640 CURVE SMOOTH",
"145 605 OFFCURVE",
"167 580 OFFCURVE",
"202 580 CURVE SMOOTH"
);
},
{
closed = 1;
nodes = (
"492 580 OFFCURVE",
"520 605 OFFCURVE",
"527 640 CURVE SMOOTH",
"534 675 OFFCURVE",
"513 700 OFFCURVE",
"478 700 CURVE SMOOTH",
"443 700 OFFCURVE",
"414 675 OFFCURVE",
"407 640 CURVE SMOOTH",
"400 605 OFFCURVE",
"422 580 OFFCURVE",
"457 580 CURVE SMOOTH"
);
}
);
width = 505;
},
{
layerId = "EFCBAD9B-4238-4620-A1C0-521E4552FF66";
paths = (
{
closed = 1;
nodes = (
"334 -200 OFFCURVE",
"417 -130 OFFCURVE",
"434 -30 CURVE",
"528 500 LINE",
"133 500 LINE",
"45 0 LINE",
"185 0 LINE",
"257 410 LINE",
"372 410 LINE",
"294 -30 LINE",
"285 -86 OFFCURVE",
"255 -110 OFFCURVE",
"215 -110 CURVE SMOOTH",
"200 -110 OFFCURVE",
"188 -105 OFFCURVE",
"179 -98 CURVE SMOOTH",
"174 -95 OFFCURVE",
"169 -90 OFFCURVE",
"165 -85 CURVE",
"155 -85 LINE",
"105 -170 LINE",
"113 -176 OFFCURVE",
"123 -181 OFFCURVE",
"134 -185 CURVE SMOOTH",
"153 -193 OFFCURVE",
"178 -200 OFFCURVE",
"209 -200 CURVE SMOOTH"
);
},
{
closed = 1;
nodes = (
"254 565 OFFCURVE",
"294 600 OFFCURVE",
"302 640 CURVE SMOOTH",
"309 680 OFFCURVE",
"281 715 OFFCURVE",
"241 715 CURVE SMOOTH",
"200 715 OFFCURVE",
"160 680 OFFCURVE",
"152 640 CURVE SMOOTH",
"145 600 OFFCURVE",
"174 565 OFFCURVE",
"214 565 CURVE SMOOTH"
);
},
{
closed = 1;
nodes = (
"509 565 OFFCURVE",
"549 600 OFFCURVE",
"557 640 CURVE SMOOTH",
"564 680 OFFCURVE",
"536 715 OFFCURVE",
"496 715 CURVE SMOOTH",
"455 715 OFFCURVE",
"415 680 OFFCURVE",
"407 640 CURVE SMOOTH",
"400 600 OFFCURVE",
"429 565 OFFCURVE",
"469 565 CURVE SMOOTH"
);
}
);
width = 535;
}
);
unicode = 0133;
},
{
glyphname = imacron;
layers = (
{
layerId = UUID0;
paths = (
{
closed = 1;
nodes = (
"150 0 LINE",
"238 500 LINE",
"138 500 LINE",
"50 0 LINE"
);
},
{
closed = 1;
nodes = (
"338 580 LINE",
"350 650 LINE",
"80 650 LINE",
"68 580 LINE"
);
}
);
width = 250;
},
{
layerId = "EFCBAD9B-4238-4620-A1C0-521E4552FF66";
paths = (
{
closed = 1;
nodes = (
"190 0 LINE",
"278 500 LINE",
"138 500 LINE",
"50 0 LINE"
);
},
{
closed = 1;
nodes = (
"364 560 LINE",
"380 650 LINE",
"90 650 LINE",
"74 560 LINE"
);
}
);
width = 290;
}
);
unicode = 012B;
},
{
glyphname = itilde;
layers = (
{
components = (
{
name = idotless;
},
{
name = tilde;
transform = "{1, 0, 0, 1, -33, 0}";
}
);
layerId = UUID0;
width = 240;
},
{
layerId = "EFCBAD9B-4238-4620-A1C0-521E4552FF66";
paths = (
{
closed = 1;
nodes = (
"190 0 LINE",
"278 500 LINE",
"138 500 LINE",
"50 0 LINE"
);
},
{
closed = 1;
nodes = (
"327 585 OFFCURVE",
"377 634 OFFCURVE",
"390 685 CURVE",
"340 715 LINE",
"331 715 LINE",
"332 714 OFFCURVE",
"309 674 OFFCURVE",
"284 675 CURVE",
"249 675 OFFCURVE",
"236 720 OFFCURVE",
"181 720 CURVE SMOOTH",
"130 720 OFFCURVE",
"82 671 OFFCURVE",
"69 620 CURVE",
"120 590 LINE",
"129 590 LINE",
"128 589 OFFCURVE",
"151 629 OFFCURVE",
"176 630 CURVE",
"211 630 OFFCURVE",
"222 585 OFFCURVE",
"278 585 CURVE SMOOTH"
);
}
);
width = 285;
}
);
unicode = 0129;
},
{
glyphname = j;
layers = (
{
layerId = UUID0;
paths = (
{
closed = 1;
nodes = (
"49 -200 OFFCURVE",
"126 -136 OFFCURVE",
"142 -40 CURVE",
"238 500 LINE",
"138 500 LINE",
"42 -40 LINE SMOOTH",
"31 -100 OFFCURVE",
"-3 -130 OFFCURVE",
"-47 -130 CURVE SMOOTH",
"-62 -130 OFFCURVE",
"-75 -125 OFFCURVE",
"-84 -118 CURVE SMOOTH",
"-89 -115 OFFCURVE",
"-94 -110 OFFCURVE",
"-98 -105 CURVE",
"-108 -105 LINE",
"-144 -170 LINE",
"-137 -176 OFFCURVE",
"-129 -181 OFFCURVE",
"-120 -185 CURVE SMOOTH",
"-104 -193 OFFCURVE",
"-81 -200 OFFCURVE",
"-50 -200 CURVE SMOOTH"
);
},
{
closed = 1;
nodes = (
"237 580 OFFCURVE",
"265 605 OFFCURVE",
"272 640 CURVE SMOOTH",
"279 675 OFFCURVE",
"258 700 OFFCURVE",
"223 700 CURVE SMOOTH",
"188 700 OFFCURVE",
"159 675 OFFCURVE",
"152 640 CURVE SMOOTH",
"145 605 OFFCURVE",
"167 580 OFFCURVE",
"202 580 CURVE SMOOTH"
);
}
);
width = 250;
},
{
layerId = "EFCBAD9B-4238-4620-A1C0-521E4552FF66";
paths = (
{
closed = 1;
nodes = (
"98 -200 OFFCURVE",
"183 -130 OFFCURVE",
"199 -30 CURVE",
"293 500 LINE",
"153 500 LINE",
"59 -30 LINE",
"50 -86 OFFCURVE",
"20 -110 OFFCURVE",
"-20 -110 CURVE SMOOTH",
"-35 -110 OFFCURVE",
"-46 -105 OFFCURVE",
"-55 -98 CURVE SMOOTH",
"-60 -95 OFFCURVE",
"-65 -90 OFFCURVE",
"-69 -85 CURVE",
"-79 -85 LINE",
"-129 -170 LINE",
"-121 -176 OFFCURVE",
"-111 -181 OFFCURVE",
"-100 -185 CURVE SMOOTH",
"-81 -193 OFFCURVE",
"-56 -200 OFFCURVE",
"-25 -200 CURVE SMOOTH"
);
},
{
closed = 1;
nodes = (
"274 565 OFFCURVE",
"314 600 OFFCURVE",
"322 640 CURVE SMOOTH",
"329 680 OFFCURVE",
"301 715 OFFCURVE",
"261 715 CURVE SMOOTH",
"220 715 OFFCURVE",
"180 680 OFFCURVE",
"172 640 CURVE SMOOTH",
"165 600 OFFCURVE",
"194 565 OFFCURVE",
"234 565 CURVE SMOOTH"
);
}
);
width = 300;
}
);
unicode = 006A;
},
{
glyphname = jcircumflex;
layers = (
{
layerId = UUID0;
paths = (
{
closed = 1;
nodes = (
"69 -200 OFFCURVE",
"146 -136 OFFCURVE",
"162 -40 CURVE",
"258 500 LINE",
"158 500 LINE",
"62 -40 LINE SMOOTH",
"51 -100 OFFCURVE",
"17 -130 OFFCURVE",
"-27 -130 CURVE SMOOTH",
"-42 -130 OFFCURVE",
"-55 -125 OFFCURVE",
"-64 -118 CURVE SMOOTH",
"-69 -115 OFFCURVE",
"-74 -110 OFFCURVE",
"-78 -105 CURVE",
"-88 -105 LINE",
"-124 -170 LINE",
"-117 -176 OFFCURVE",
"-109 -181 OFFCURVE",
"-100 -185 CURVE SMOOTH",
"-84 -193 OFFCURVE",
"-61 -200 OFFCURVE",
"-30 -200 CURVE SMOOTH"
);
},
{
closed = 1;
nodes = (
"135 550 LINE",
"222 615 LINE",
"285 550 LINE",
"350 550 LINE",
"268 680 LINE",
"198 680 LINE",
"70 550 LINE"
);
}
);
width = 268;
},
{
layerId = "EFCBAD9B-4238-4620-A1C0-521E4552FF66";
paths = (
{
closed = 1;
nodes = (
"98 -200 OFFCURVE",
"183 -130 OFFCURVE",
"199 -30 CURVE",
"293 500 LINE",
"153 500 LINE",
"59 -30 LINE",
"50 -86 OFFCURVE",
"20 -110 OFFCURVE",
"-20 -110 CURVE SMOOTH",
"-35 -110 OFFCURVE",
"-46 -105 OFFCURVE",
"-55 -98 CURVE SMOOTH",
"-60 -95 OFFCURVE",
"-65 -90 OFFCURVE",
"-69 -85 CURVE",
"-79 -85 LINE",
"-129 -170 LINE",
"-121 -176 OFFCURVE",
"-111 -181 OFFCURVE",
"-100 -185 CURVE SMOOTH",
"-81 -193 OFFCURVE",
"-56 -200 OFFCURVE",
"-25 -200 CURVE SMOOTH"
);
},
{
closed = 1;
nodes = (
"160 550 LINE",
"238 620 LINE",
"290 550 LINE",
"385 550 LINE",
"299 684 LINE",
"199 684 LINE",
"65 550 LINE"
);
}
);
width = 298;
}
);
unicode = 0135;
},
{
glyphname = k;
layers = (
{
layerId = UUID0;
paths = (
{
closed = 1;
nodes = (
"150 0 LINE",
"194 250 LINE",
"330 0 LINE",
"445 0 LINE",
"300 260 LINE",
"523 500 LINE",
"408 500 LINE",
"197 270 LINE",
"273 700 LINE",
"203 700 LINE",
"168 670 LINE",
"50 0 LINE"
);
}
);
width = 480;
},
{
layerId = "EFCBAD9B-4238-4620-A1C0-521E4552FF66";
paths = (
{
closed = 1;
nodes = (
"185 0 LINE",
"226 235 LINE",
"325 0 LINE",
"480 0 LINE",
"355 260 LINE",
"558 500 LINE",
"403 500 LINE",
"235 285 LINE",
"308 700 LINE",
"208 700 LINE",
"161 660 LINE",
"45 0 LINE"
);
}
);
width = 510;
}
);
unicode = 006B;
},
{
glyphname = kgreenlandic;
layers = (
{
layerId = UUID0;
paths = (
{
closed = 1;
nodes = (
"150 0 LINE",
"194 250 LINE",
"330 0 LINE",
"445 0 LINE",
"300 260 LINE",
"523 500 LINE",
"408 500 LINE",
"197 270 LINE",
"238 500 LINE",
"168 500 LINE",
"132 470 LINE",
"50 0 LINE"
);
}
);
width = 480;
},
{
layerId = "EFCBAD9B-4238-4620-A1C0-521E4552FF66";
paths = (
{
closed = 1;
nodes = (
"185 0 LINE",
"226 235 LINE",
"325 0 LINE",
"480 0 LINE",
"355 260 LINE",
"558 500 LINE",
"403 500 LINE",
"235 285 LINE",
"273 500 LINE",
"173 500 LINE",
"126 460 LINE",
"45 0 LINE"
);
}
);
width = 510;
}
);
unicode = 0138;
},
{
glyphname = l;
layers = (
{
layerId = UUID0;
paths = (
{
closed = 1;
nodes = (
"150 0 LINE",
"273 700 LINE",
"203 700 LINE",
"168 670 LINE",
"50 0 LINE"
);
}
);
width = 250;
},
{
layerId = "EFCBAD9B-4238-4620-A1C0-521E4552FF66";
paths = (
{
closed = 1;
nodes = (
"185 0 LINE",
"308 700 LINE",
"208 700 LINE",
"161 660 LINE",
"45 0 LINE"
);
}
);
width = 280;
}
);
unicode = 006C;
},
{
glyphname = lcaron;
layers = (
{
layerId = UUID0;
paths = (
{
closed = 1;
nodes = (
"150 0 LINE",
"273 700 LINE",
"203 700 LINE",
"168 670 LINE",
"50 0 LINE"
);
},
{
closed = 1;
nodes = (
"352 493 OFFCURVE",
"367 505 OFFCURVE",
"381 520 CURVE SMOOTH",
"405 545 OFFCURVE",
"431 583 OFFCURVE",
"442 636 CURVE",
"449 675 OFFCURVE",
"428 700 OFFCURVE",
"393 700 CURVE SMOOTH",
"368 700 OFFCURVE",
"340 676 OFFCURVE",
"333 645 CURVE",
"328 614 OFFCURVE",
"349 590 OFFCURVE",
"374 590 CURVE",
"370 570 OFFCURVE",
"354 552 OFFCURVE",
"339 537 CURVE SMOOTH",
"330 529 OFFCURVE",
"321 522 OFFCURVE",
"310 515 CURVE",
"335 484 LINE"
);
}
);
width = 365;
},
{
layerId = "EFCBAD9B-4238-4620-A1C0-521E4552FF66";
paths = (
{
closed = 1;
nodes = (
"185 0 LINE",
"308 700 LINE",
"208 700 LINE",
"161 660 LINE",
"45 0 LINE"
);
},
{
closed = 1;
nodes = (
"388 470 OFFCURVE",
"405 483 OFFCURVE",
"420 499 CURVE SMOOTH",
"447 526 OFFCURVE",
"474 566 OFFCURVE",
"485 625 CURVE SMOOTH",
"493 672 OFFCURVE",
"471 700 OFFCURVE",
"428 700 CURVE SMOOTH",
"396 700 OFFCURVE",
"363 672 OFFCURVE",
"356 635 CURVE SMOOTH",
"351 603 OFFCURVE",
"373 575 OFFCURVE",
"416 575 CURVE",
"412 552 OFFCURVE",
"394 533 OFFCURVE",
"378 518 CURVE SMOOTH",
"369 509 OFFCURVE",
"358 501 OFFCURVE",
"347 494 CURVE",
"371 460 LINE"
);
}
);
width = 410;
}
);
unicode = 013E;
},
{
glyphname = lslash;
layers = (
{
layerId = UUID0;
paths = (
{
closed = 1;
nodes = (
"160 0 LINE",
"221 349 LINE",
"314 420 LINE",
"333 530 LINE",
"240 459 LINE",
"283 700 LINE",
"213 700 LINE",
"178 670 LINE",
"126 379 LINE",
"58 330 LINE",
"38 220 LINE",
"107 269 LINE",
"60 0 LINE"
);
}
);
width = 290;
},
{
layerId = "EFCBAD9B-4238-4620-A1C0-521E4552FF66";
paths = (
{
closed = 1;
nodes = (
"210 0 LINE",
"274 363 LINE",
"354 420 LINE",
"376 550 LINE",
"296 493 LINE",
"333 700 LINE",
"233 700 LINE",
"186 660 LINE",
"137 380 LINE",
"79 340 LINE",
"57 210 LINE",
"114 250 LINE",
"70 0 LINE"
);
}
);
width = 325;
}
);
unicode = 0142;
},
{
glyphname = m;
layers = (
{
layerId = UUID0;
paths = (
{
closed = 1;
nodes = (
"150 0 LINE",
"216 375 LINE",
"227 386 OFFCURVE",
"238 396 OFFCURVE",
"250 405 CURVE SMOOTH",
"270 420 OFFCURVE",
"296 435 OFFCURVE",
"321 435 CURVE SMOOTH",
"366 435 OFFCURVE",
"398 395 OFFCURVE",
"389 340 CURVE SMOOTH",
"330 0 LINE",
"430 0 LINE",
"497 385 LINE",
"507 394 OFFCURVE",
"518 403 OFFCURVE",
"530 410 CURVE SMOOTH",
"550 422 OFFCURVE",
"576 435 OFFCURVE",
"601 435 CURVE SMOOTH",
"646 435 OFFCURVE",
"678 395 OFFCURVE",
"669 340 CURVE SMOOTH",
"610 0 LINE",
"710 0 LINE",
"769 340 LINE",
"788 440 OFFCURVE",
"729 510 OFFCURVE",
"639 510 CURVE SMOOTH",
"594 510 OFFCURVE",
"553 492 OFFCURVE",
"524 475 CURVE SMOOTH",
"507 464 OFFCURVE",
"491 453 OFFCURVE",
"477 440 CURVE",
"472 453 OFFCURVE",
"465 464 OFFCURVE",
"454 475 CURVE SMOOTH",
"435 492 OFFCURVE",
"406 510 OFFCURVE",
"359 510 CURVE SMOOTH",
"316 510 OFFCURVE",
"281 492 OFFCURVE",
"254 475 CURVE",
"239 464 OFFCURVE",
"225 453 OFFCURVE",
"212 440 CURVE",
"207 440 LINE",
"208 500 LINE",
"138 500 LINE",
"50 0 LINE"
);
}
);
width = 805;
},
{
layerId = "EFCBAD9B-4238-4620-A1C0-521E4552FF66";
paths = (
{
closed = 1;
nodes = (
"185 0 LINE",
"247 355 LINE",
"254 366 OFFCURVE",
"262 376 OFFCURVE",
"271 385 CURVE SMOOTH",
"286 400 OFFCURVE",
"308 415 OFFCURVE",
"333 415 CURVE SMOOTH",
"368 415 OFFCURVE",
"392 385 OFFCURVE",
"381 320 CURVE SMOOTH",
"325 0 LINE",
"465 0 LINE",
"529 365 LINE",
"537 374 OFFCURVE",
"545 383 OFFCURVE",
"554 390 CURVE SMOOTH",
"569 402 OFFCURVE",
"590 415 OFFCURVE",
"613 415 CURVE SMOOTH",
"648 415 OFFCURVE",
"672 385 OFFCURVE",
"661 320 CURVE SMOOTH",
"605 0 LINE",
"745 0 LINE",
"801 320 LINE SMOOTH",
"822 441 OFFCURVE",
"765 510 OFFCURVE",
"654 510 CURVE SMOOTH",
"606 510 OFFCURVE",
"566 492 OFFCURVE",
"537 475 CURVE SMOOTH",
"520 464 OFFCURVE",
"505 453 OFFCURVE",
"492 440 CURVE",
"487 453 OFFCURVE",
"480 464 OFFCURVE",
"470 475 CURVE SMOOTH",
"453 492 OFFCURVE",
"425 510 OFFCURVE",
"374 510 CURVE SMOOTH",
"334 510 OFFCURVE",
"299 492 OFFCURVE",
"275 475 CURVE SMOOTH",
"261 464 OFFCURVE",
"248 453 OFFCURVE",
"237 440 CURVE",
"232 440 LINE",
"233 500 LINE",
"133 500 LINE",
"45 0 LINE"
);
}
);
width = 835;
}
);
unicode = 006D;
},
{
glyphname = n;
layers = (
{
layerId = UUID0;
paths = (
{
closed = 1;
nodes = (
"150 0 LINE",
"216 375 LINE",
"227 386 OFFCURVE",
"239 396 OFFCURVE",
"251 405 CURVE SMOOTH",
"272 420 OFFCURVE",
"300 435 OFFCURVE",
"331 435 CURVE SMOOTH",
"387 435 OFFCURVE",
"420 396 OFFCURVE",
"409 340 CURVE",
"350 0 LINE",
"450 0 LINE",
"509 340 LINE",
"528 440 OFFCURVE",
"469 510 OFFCURVE",
"369 510 CURVE SMOOTH",
"318 510 OFFCURVE",
"280 492 OFFCURVE",
"253 475 CURVE SMOOTH",
"237 464 OFFCURVE",
"223 453 OFFCURVE",
"212 440 CURVE",
"207 440 LINE",
"208 500 LINE",
"138 500 LINE",
"50 0 LINE"
);
}
);
width = 545;
},
{
layerId = "EFCBAD9B-4238-4620-A1C0-521E4552FF66";
paths = (
{
closed = 1;
nodes = (
"185 0 LINE",
"247 355 LINE",
"255 366 OFFCURVE",
"264 376 OFFCURVE",
"274 385 CURVE SMOOTH",
"291 400 OFFCURVE",
"315 415 OFFCURVE",
"343 415 CURVE SMOOTH",
"388 415 OFFCURVE",
"412 385 OFFCURVE",
"401 320 CURVE SMOOTH",
"345 0 LINE",
"485 0 LINE",
"541 320 LINE SMOOTH",
"562 441 OFFCURVE",
"505 510 OFFCURVE",
"384 510 CURVE SMOOTH",
"339 510 OFFCURVE",
"302 492 OFFCURVE",
"277 475 CURVE SMOOTH",
"262 464 OFFCURVE",
"248 453 OFFCURVE",
"237 440 CURVE",
"232 440 LINE",
"233 500 LINE",
"133 500 LINE",
"45 0 LINE"
);
}
);
width = 575;
}
);
unicode = 006E;
},
{
glyphname = o;
layers = (
{
layerId = UUID0;
paths = (
{
closed = 1;
nodes = (
"369 -10 OFFCURVE",
"467 75 OFFCURVE",
"499 250 CURVE",
"528 425 OFFCURVE",
"459 510 OFFCURVE",
"329 510 CURVE SMOOTH",
"198 510 OFFCURVE",
"100 426 OFFCURVE",
"69 250 CURVE SMOOTH",
"38 75 OFFCURVE",
"107 -10 OFFCURVE",
"238 -10 CURVE SMOOTH"
);
},
{
closed = 1;
nodes = (
"184 60 OFFCURVE",
"145 110 OFFCURVE",
"169 250 CURVE SMOOTH",
"193 390 OFFCURVE",
"252 440 OFFCURVE",
"317 440 CURVE SMOOTH",
"382 440 OFFCURVE",
"423 390 OFFCURVE",
"399 250 CURVE SMOOTH",
"375 110 OFFCURVE",
"314 60 OFFCURVE",
"250 60 CURVE SMOOTH"
);
}
);
width = 530;
},
{
layerId = "EFCBAD9B-4238-4620-A1C0-521E4552FF66";
paths = (
{
closed = 1;
nodes = (
"388 -10 OFFCURVE",
"488 74 OFFCURVE",
"519 250 CURVE",
"548 425 OFFCURVE",
"479 510 OFFCURVE",
"334 510 CURVE SMOOTH",
"189 510 OFFCURVE",
"90 426 OFFCURVE",
"59 250 CURVE SMOOTH",
"28 74 OFFCURVE",
"98 -10 OFFCURVE",
"243 -10 CURVE SMOOTH"
);
},
{
closed = 1;
nodes = (
"209 80 OFFCURVE",
"175 120 OFFCURVE",
"199 250 CURVE SMOOTH",
"223 380 OFFCURVE",
"269 420 OFFCURVE",
"319 420 CURVE SMOOTH",
"369 420 OFFCURVE",
"403 380 OFFCURVE",
"379 250 CURVE SMOOTH",
"355 120 OFFCURVE",
"309 80 OFFCURVE",
"259 80 CURVE SMOOTH"
);
}
);
width = 540;
}
);
unicode = 006F;
},
{
glyphname = oslash;
layers = (
{
layerId = UUID0;
paths = (
{
closed = 1;
nodes = (
"369 -10 OFFCURVE",
"467 75 OFFCURVE",
"499 250 CURVE SMOOTH",
"514 333 OFFCURVE",
"505 394 OFFCURVE",
"480 437 CURVE",
"533 500 LINE",
"453 500 LINE",
"437 482 LINE",
"410 501 OFFCURVE",
"374 510 OFFCURVE",
"329 510 CURVE SMOOTH",
"198 510 OFFCURVE",
"100 426 OFFCURVE",
"69 250 CURVE SMOOTH",
"54 169 OFFCURVE",
"60 107 OFFCURVE",
"87 63 CURVE",
"35 0 LINE",
"115 0 LINE",
"130 18 LINE",
"160 -1 OFFCURVE",
"196 -10 OFFCURVE",
"238 -10 CURVE SMOOTH"
);
},
{
closed = 1;
nodes = (
"223 60 OFFCURVE",
"201 67 OFFCURVE",
"186 86 CURVE",
"405 347 LINE",
"407 321 OFFCURVE",
"405 289 OFFCURVE",
"399 250 CURVE SMOOTH",
"375 110 OFFCURVE",
"314 60 OFFCURVE",
"250 60 CURVE SMOOTH"
);
},
{
closed = 1;
nodes = (
"160 180 OFFCURVE",
"162 213 OFFCURVE",
"169 250 CURVE SMOOTH",
"193 390 OFFCURVE",
"252 440 OFFCURVE",
"317 440 CURVE SMOOTH",
"344 440 OFFCURVE",
"365 431 OFFCURVE",
"380 414 CURVE",
"162 153 LINE"
);
}
);
width = 530;
},
{
layerId = "EFCBAD9B-4238-4620-A1C0-521E4552FF66";
paths = (
{
closed = 1;
nodes = (
"388 -10 OFFCURVE",
"488 74 OFFCURVE",
"519 250 CURVE",
"534 330 OFFCURVE",
"525 389 OFFCURVE",
"501 432 CURVE",
"562 500 LINE",
"468 500 LINE",
"451 482 LINE",
"422 501 OFFCURVE",
"383 510 OFFCURVE",
"334 510 CURVE SMOOTH",
"189 510 OFFCURVE",
"90 426 OFFCURVE",
"59 250 CURVE SMOOTH",
"45 173 OFFCURVE",
"50 112 OFFCURVE",
"75 68 CURVE",
"15 0 LINE",
"110 0 LINE",
"124 17 LINE",
"155 -1 OFFCURVE",
"194 -10 OFFCURVE",
"243 -10 CURVE SMOOTH"
);
},
{
closed = 1;
nodes = (
"236 80 OFFCURVE",
"218 87 OFFCURVE",
"206 107 CURVE",
"385 305 LINE",
"384 288 OFFCURVE",
"382 270 OFFCURVE",
"379 250 CURVE",
"355 120 OFFCURVE",
"309 80 OFFCURVE",
"259 80 CURVE SMOOTH"
);
},
{
closed = 1;
nodes = (
"192 211 OFFCURVE",
"195 229 OFFCURVE",
"199 250 CURVE SMOOTH",
"223 380 OFFCURVE",
"269 420 OFFCURVE",
"319 420 CURVE SMOOTH",
"342 420 OFFCURVE",
"359 411 OFFCURVE",
"371 393 CURVE",
"191 195 LINE"
);
}
);
width = 540;
}
);
unicode = 00F8;
},
{
glyphname = oe;
layers = (
{
layerId = UUID0;
paths = (
{
closed = 1;
nodes = (
"309 -10 OFFCURVE",
"361 15 OFFCURVE",
"408 70 CURVE",
"436 15 OFFCURVE",
"493 -10 OFFCURVE",
"558 -10 CURVE SMOOTH",
"609 -10 OFFCURVE",
"651 2 OFFCURVE",
"682 17 CURVE SMOOTH",
"700 25 OFFCURVE",
"717 34 OFFCURVE",
"732 45 CURVE",
"708 105 LINE",
"698 105 LINE",
"686 96 OFFCURVE",
"674 89 OFFCURVE",
"661 82 CURVE SMOOTH",
"638 71 OFFCURVE",
"611 60 OFFCURVE",
"580 60 CURVE SMOOTH",
"511 60 OFFCURVE",
"468 110 OFFCURVE",
"487 215 CURVE",
"767 215 LINE",
"791 235 LINE",
"794 250 LINE SMOOTH",
"823 425 OFFCURVE",
"755 510 OFFCURVE",
"639 510 CURVE SMOOTH",
"570 510 OFFCURVE",
"513 475 OFFCURVE",
"470 430 CURVE",
"443 475 OFFCURVE",
"400 510 OFFCURVE",
"324 510 CURVE SMOOTH",
"199 510 OFFCURVE",
"100 426 OFFCURVE",
"69 250 CURVE SMOOTH",
"38 75 OFFCURVE",
"108 -10 OFFCURVE",
"233 -10 CURVE SMOOTH"
);
},
{
closed = 1;
nodes = (
"184 60 OFFCURVE",
"145 110 OFFCURVE",
"169 250 CURVE SMOOTH",
"193 390 OFFCURVE",
"252 440 OFFCURVE",
"312 440 CURVE SMOOTH",
"369 440 OFFCURVE",
"411 392 OFFCURVE",
"390 260 CURVE SMOOTH",
"389 250 LINE",
"387 239 LINE SMOOTH",
"361 107 OFFCURVE",
"303 60 OFFCURVE",
"245 60 CURVE SMOOTH"
);
},
{
closed = 1;
nodes = (
"519 394 OFFCURVE",
"572 440 OFFCURVE",
"627 440 CURVE SMOOTH",
"683 440 OFFCURVE",
"719 395 OFFCURVE",
"700 285 CURVE",
"500 285 LINE"
);
}
);
width = 820;
},
{
layerId = "EFCBAD9B-4238-4620-A1C0-521E4552FF66";
paths = (
{
closed = 1;
nodes = (
"314 -10 OFFCURVE",
"367 15 OFFCURVE",
"415 60 CURVE",
"447 15 OFFCURVE",
"508 -10 OFFCURVE",
"588 -10 CURVE SMOOTH",
"639 -10 OFFCURVE",
"683 2 OFFCURVE",
"715 15 CURVE SMOOTH",
"734 22 OFFCURVE",
"751 31 OFFCURVE",
"767 40 CURVE",
"736 120 LINE",
"726 120 LINE",
"717 113 OFFCURVE",
"706 106 OFFCURVE",
"694 100 CURVE SMOOTH",
"674 89 OFFCURVE",
"646 80 OFFCURVE",
"614 80 CURVE SMOOTH",
"534 80 OFFCURVE",
"501 122 OFFCURVE",
"516 205 CURVE",
"786 205 LINE",
"821 235 LINE",
"825 260 LINE SMOOTH",
"854 425 OFFCURVE",
"784 510 OFFCURVE",
"649 510 CURVE SMOOTH",
"589 510 OFFCURVE",
"530 485 OFFCURVE",
"482 440 CURVE",
"450 485 OFFCURVE",
"394 510 OFFCURVE",
"334 510 CURVE SMOOTH",
"189 510 OFFCURVE",
"90 426 OFFCURVE",
"59 250 CURVE SMOOTH",
"28 74 OFFCURVE",
"98 -10 OFFCURVE",
"243 -10 CURVE SMOOTH"
);
},
{
closed = 1;
nodes = (
"209 80 OFFCURVE",
"175 120 OFFCURVE",
"199 250 CURVE SMOOTH",
"223 380 OFFCURVE",
"269 420 OFFCURVE",
"319 420 CURVE SMOOTH",
"369 420 OFFCURVE",
"403 380 OFFCURVE",
"379 250 CURVE SMOOTH",
"355 120 OFFCURVE",
"309 80 OFFCURVE",
"259 80 CURVE SMOOTH"
);
},
{
closed = 1;
nodes = (
"548 380 OFFCURVE",
"594 420 OFFCURVE",
"634 420 CURVE SMOOTH",
"674 420 OFFCURVE",
"707 380 OFFCURVE",
"692 295 CURVE",
"532 295 LINE"
);
}
);
width = 845;
}
);
unicode = 0153;
},
{
glyphname = p;
layers = (
{
layerId = UUID0;
paths = (
{
closed = 1;
nodes = (
"84 -200 LINE",
"120 -170 LINE",
"153 20 LINE",
"162 14 OFFCURVE",
"172 9 OFFCURVE",
"183 5 CURVE SMOOTH",
"202 -3 OFFCURVE",
"227 -10 OFFCURVE",
"258 -10 CURVE SMOOTH",
"373 -10 OFFCURVE",
"472 75 OFFCURVE",
"504 250 CURVE",
"533 425 OFFCURVE",
"465 510 OFFCURVE",
"369 510 CURVE SMOOTH",
"318 510 OFFCURVE",
"280 492 OFFCURVE",
"253 475 CURVE SMOOTH",
"237 464 OFFCURVE",
"223 453 OFFCURVE",
"212 440 CURVE",
"207 440 LINE",
"208 500 LINE",
"138 500 LINE",
"14 -200 LINE"
);
},
{
closed = 1;
nodes = (
"227 60 OFFCURVE",
"205 65 OFFCURVE",
"189 70 CURVE SMOOTH",
"180 73 OFFCURVE",
"171 76 OFFCURVE",
"164 80 CURVE",
"216 375 LINE",
"227 386 OFFCURVE",
"239 396 OFFCURVE",
"251 405 CURVE SMOOTH",
"272 420 OFFCURVE",
"300 435 OFFCURVE",
"331 435 CURVE SMOOTH",
"385 435 OFFCURVE",
"428 385 OFFCURVE",
"404 250 CURVE SMOOTH",
"380 110 OFFCURVE",
"319 60 OFFCURVE",
"255 60 CURVE SMOOTH"
);
}
);
width = 535;
},
{
layerId = "EFCBAD9B-4238-4620-A1C0-521E4552FF66";
paths = (
{
closed = 1;
nodes = (
"109 -200 LINE",
"156 -160 LINE",
"188 20 LINE",
"195 14 OFFCURVE",
"204 9 OFFCURVE",
"213 5 CURVE SMOOTH",
"229 -3 OFFCURVE",
"252 -10 OFFCURVE",
"283 -10 CURVE SMOOTH",
"409 -10 OFFCURVE",
"507 75 OFFCURVE",
"539 250 CURVE",
"568 425 OFFCURVE",
"500 510 OFFCURVE",
"384 510 CURVE SMOOTH",
"339 510 OFFCURVE",
"302 492 OFFCURVE",
"277 475 CURVE SMOOTH",
"262 464 OFFCURVE",
"248 453 OFFCURVE",
"237 440 CURVE",
"232 440 LINE",
"233 500 LINE",
"133 500 LINE",
"9 -200 LINE"
);
},
{
closed = 1;
nodes = (
"251 80 OFFCURVE",
"234 87 OFFCURVE",
"222 95 CURVE SMOOTH",
"215 99 OFFCURVE",
"209 104 OFFCURVE",
"204 110 CURVE",
"247 355 LINE",
"255 366 OFFCURVE",
"264 376 OFFCURVE",
"274 385 CURVE SMOOTH",
"291 400 OFFCURVE",
"315 415 OFFCURVE",
"343 415 CURVE SMOOTH",
"388 415 OFFCURVE",
"420 375 OFFCURVE",
"399 250 CURVE",
"375 120 OFFCURVE",
"330 80 OFFCURVE",
"274 80 CURVE SMOOTH"
);
}
);
width = 560;
}
);
unicode = 0070;
},
{
glyphname = thorn;
layers = (
{
layerId = UUID0;
paths = (
{
closed = 1;
nodes = (
"119 -200 LINE",
"158 20 LINE",
"167 14 OFFCURVE",
"177 9 OFFCURVE",
"188 5 CURVE SMOOTH",
"207 -3 OFFCURVE",
"232 -10 OFFCURVE",
"263 -10 CURVE SMOOTH",
"378 -10 OFFCURVE",
"477 75 OFFCURVE",
"509 250 CURVE",
"538 425 OFFCURVE",
"470 510 OFFCURVE",
"354 510 CURVE SMOOTH",
"323 510 OFFCURVE",
"295 502 OFFCURVE",
"274 495 CURVE",
"239 480 LINE",
"278 700 LINE",
"208 700 LINE",
"173 670 LINE",
"19 -200 LINE"
);
},
{
closed = 1;
nodes = (
"232 60 OFFCURVE",
"210 65 OFFCURVE",
"194 70 CURVE SMOOTH",
"185 73 OFFCURVE",
"176 76 OFFCURVE",
"169 80 CURVE",
"229 420 LINE",
"237 424 OFFCURVE",
"246 427 OFFCURVE",
"257 430 CURVE SMOOTH",
"276 435 OFFCURVE",
"299 440 OFFCURVE",
"327 440 CURVE SMOOTH",
"392 440 OFFCURVE",
"433 390 OFFCURVE",
"409 250 CURVE SMOOTH",
"385 110 OFFCURVE",
"324 60 OFFCURVE",
"260 60 CURVE SMOOTH"
);
}
);
width = 540;
},
{
layerId = "EFCBAD9B-4238-4620-A1C0-521E4552FF66";
paths = (
{
closed = 1;
nodes = (
"149 -200 LINE",
"188 20 LINE",
"195 14 OFFCURVE",
"204 9 OFFCURVE",
"213 5 CURVE SMOOTH",
"229 -3 OFFCURVE",
"252 -10 OFFCURVE",
"283 -10 CURVE SMOOTH",
"409 -10 OFFCURVE",
"507 75 OFFCURVE",
"539 250 CURVE",
"568 425 OFFCURVE",
"499 510 OFFCURVE",
"374 510 CURVE SMOOTH",
"343 510 OFFCURVE",
"318 502 OFFCURVE",
"299 495 CURVE",
"269 480 LINE",
"308 700 LINE",
"208 700 LINE",
"161 660 LINE",
"9 -200 LINE"
);
},
{
closed = 1;
nodes = (
"251 80 OFFCURVE",
"234 87 OFFCURVE",
"222 95 CURVE SMOOTH",
"215 99 OFFCURVE",
"209 104 OFFCURVE",
"204 110 CURVE",
"253 390 LINE",
"260 395 OFFCURVE",
"268 400 OFFCURVE",
"277 405 CURVE SMOOTH",
"292 412 OFFCURVE",
"311 420 OFFCURVE",
"334 420 CURVE SMOOTH",
"389 420 OFFCURVE",
"423 380 OFFCURVE",
"399 250 CURVE SMOOTH",
"375 120 OFFCURVE",
"330 80 OFFCURVE",
"274 80 CURVE SMOOTH"
);
}
);
width = 560;
}
);
unicode = 00FE;
},
{
glyphname = q;
layers = (
{
layerId = UUID0;
paths = (
{
closed = 1;
nodes = (
"399 -200 LINE",
"523 500 LINE",
"453 500 LINE",
"432 440 LINE",
"427 440 LINE",
"420 453 OFFCURVE",
"410 464 OFFCURVE",
"398 475 CURVE SMOOTH",
"377 492 OFFCURVE",
"345 510 OFFCURVE",
"294 510 CURVE SMOOTH",
"200 510 OFFCURVE",
"98 425 OFFCURVE",
"69 250 CURVE",
"37 75 OFFCURVE",
"108 -10 OFFCURVE",
"223 -10 CURVE SMOOTH",
"254 -10 OFFCURVE",
"282 -3 OFFCURVE",
"303 5 CURVE SMOOTH",
"315 9 OFFCURVE",
"327 14 OFFCURVE",
"338 20 CURVE",
"305 -170 LINE",
"329 -200 LINE"
);
},
{
closed = 1;
nodes = (
"184 60 OFFCURVE",
"145 110 OFFCURVE",
"169 250 CURVE SMOOTH",
"193 385 OFFCURVE",
"250 435 OFFCURVE",
"306 435 CURVE SMOOTH",
"337 435 OFFCURVE",
"360 420 OFFCURVE",
"376 405 CURVE SMOOTH",
"385 396 OFFCURVE",
"394 386 OFFCURVE",
"401 375 CURVE",
"349 80 LINE",
"340 76 OFFCURVE",
"331 73 OFFCURVE",
"320 70 CURVE SMOOTH",
"301 65 OFFCURVE",
"277 60 OFFCURVE",
"250 60 CURVE SMOOTH"
);
}
);
width = 535;
},
{
layerId = "EFCBAD9B-4238-4620-A1C0-521E4552FF66";
paths = (
{
closed = 1;
nodes = (
"429 -200 LINE",
"553 500 LINE",
"453 500 LINE",
"432 440 LINE",
"427 440 LINE",
"420 453 OFFCURVE",
"410 464 OFFCURVE",
"399 475 CURVE",
"379 492 OFFCURVE",
"349 510 OFFCURVE",
"304 510 CURVE SMOOTH",
"189 510 OFFCURVE",
"88 425 OFFCURVE",
"59 250 CURVE",
"28 75 OFFCURVE",
"98 -10 OFFCURVE",
"223 -10 CURVE SMOOTH",
"254 -10 OFFCURVE",
"279 -3 OFFCURVE",
"298 5 CURVE SMOOTH",
"309 9 OFFCURVE",
"319 14 OFFCURVE",
"328 20 CURVE",
"296 -160 LINE",
"329 -200 LINE"
);
},
{
closed = 1;
nodes = (
"209 80 OFFCURVE",
"175 120 OFFCURVE",
"199 250 CURVE",
"220 375 OFFCURVE",
"268 415 OFFCURVE",
"313 415 CURVE SMOOTH",
"340 415 OFFCURVE",
"359 400 OFFCURVE",
"371 385 CURVE SMOOTH",
"378 376 OFFCURVE",
"384 366 OFFCURVE",
"387 355 CURVE",
"344 110 LINE",
"337 104 OFFCURVE",
"329 99 OFFCURVE",
"321 95 CURVE SMOOTH",
"306 87 OFFCURVE",
"287 80 OFFCURVE",
"264 80 CURVE SMOOTH"
);
}
);
width = 560;
}
);
unicode = 0071;
},
{
glyphname = r;
layers = (
{
layerId = UUID0;
paths = (
{
closed = 1;
nodes = (
"150 0 LINE",
"215 370 LINE",
"226 381 OFFCURVE",
"237 391 OFFCURVE",
"249 400 CURVE SMOOTH",
"270 415 OFFCURVE",
"297 430 OFFCURVE",
"325 430 CURVE SMOOTH",
"340 430 OFFCURVE",
"356 428 OFFCURVE",
"368 425 CURVE SMOOTH",
"375 423 OFFCURVE",
"382 421 OFFCURVE",
"389 420 CURVE",
"399 420 LINE",
"428 500 LINE",
"409 505 LINE SMOOTH",
"397 508 OFFCURVE",
"381 510 OFFCURVE",
"364 510 CURVE SMOOTH",
"316 510 OFFCURVE",
"279 492 OFFCURVE",
"252 475 CURVE",
"237 464 OFFCURVE",
"223 453 OFFCURVE",
"212 440 CURVE",
"207 440 LINE",
"208 500 LINE",
"138 500 LINE",
"50 0 LINE"
);
}
);
width = 365;
},
{
layerId = "EFCBAD9B-4238-4620-A1C0-521E4552FF66";
paths = (
{
closed = 1;
nodes = (
"185 0 LINE",
"246 350 LINE",
"254 361 OFFCURVE",
"263 371 OFFCURVE",
"273 380 CURVE SMOOTH",
"290 395 OFFCURVE",
"314 410 OFFCURVE",
"342 410 CURVE SMOOTH",
"359 410 OFFCURVE",
"376 408 OFFCURVE",
"389 405 CURVE SMOOTH",
"396 403 OFFCURVE",
"403 401 OFFCURVE",
"410 400 CURVE",
"420 400 LINE",
"458 500 LINE",
"450 501 OFFCURVE",
"442 503 OFFCURVE",
"434 505 CURVE SMOOTH",
"419 508 OFFCURVE",
"401 510 OFFCURVE",
"384 510 CURVE SMOOTH",
"339 510 OFFCURVE",
"302 492 OFFCURVE",
"277 475 CURVE SMOOTH",
"262 464 OFFCURVE",
"248 453 OFFCURVE",
"237 440 CURVE",
"232 440 LINE",
"233 500 LINE",
"133 500 LINE",
"45 0 LINE"
);
}
);
width = 395;
}
);
unicode = 0072;
},
{
glyphname = s;
layers = (
{
layerId = UUID0;
paths = (
{
closed = 1;
nodes = (
"338 -10 OFFCURVE",
"408 49 OFFCURVE",
"424 140 CURVE",
"452 309 OFFCURVE",
"166 266 OFFCURVE",
"186 375 CURVE SMOOTH",
"193 410 OFFCURVE",
"226 440 OFFCURVE",
"297 440 CURVE SMOOTH",
"332 440 OFFCURVE",
"360 428 OFFCURVE",
"379 417 CURVE SMOOTH",
"390 410 OFFCURVE",
"400 403 OFFCURVE",
"409 395 CURVE",
"419 395 LINE",
"465 455 LINE",
"454 465 OFFCURVE",
"440 474 OFFCURVE",
"423 482 CURVE SMOOTH",
"395 497 OFFCURVE",
"355 510 OFFCURVE",
"299 510 CURVE SMOOTH",
"168 510 OFFCURVE",
"99 450 OFFCURVE",
"84 365 CURVE SMOOTH",
"54 195 OFFCURVE",
"342 240 OFFCURVE",
"322 130 CURVE SMOOTH",
"315 90 OFFCURVE",
"280 60 OFFCURVE",
"195 60 CURVE SMOOTH",
"155 60 OFFCURVE",
"124 71 OFFCURVE",
"104 82 CURVE SMOOTH",
"92 89 OFFCURVE",
"82 96 OFFCURVE",
"73 105 CURVE",
"63 105 LINE",
"17 45 LINE",
"28 34 OFFCURVE",
"43 25 OFFCURVE",
"60 17 CURVE SMOOTH",
"89 2 OFFCURVE",
"133 -10 OFFCURVE",
"193 -10 CURVE SMOOTH"
);
}
);
width = 460;
},
{
layerId = "EFCBAD9B-4238-4620-A1C0-521E4552FF66";
paths = (
{
closed = 1;
nodes = (
"363 -10 OFFCURVE",
"439 55 OFFCURVE",
"455 146 CURVE SMOOTH",
"485 316 OFFCURVE",
"205 286 OFFCURVE",
"220 370 CURVE SMOOTH",
"224 395 OFFCURVE",
"253 420 OFFCURVE",
"309 420 CURVE SMOOTH",
"346 420 OFFCURVE",
"376 411 OFFCURVE",
"396 400 CURVE SMOOTH",
"408 394 OFFCURVE",
"418 387 OFFCURVE",
"427 380 CURVE",
"437 380 LINE",
"496 460 LINE",
"481 469 OFFCURVE",
"465 478 OFFCURVE",
"446 485 CURVE SMOOTH",
"414 497 OFFCURVE",
"370 510 OFFCURVE",
"314 510 CURVE SMOOTH",
"168 510 OFFCURVE",
"94 445 OFFCURVE",
"78 360 CURVE SMOOTH",
"46 190 OFFCURVE",
"329 221 OFFCURVE",
"313 136 CURVE",
"308 105 OFFCURVE",
"280 80 OFFCURVE",
"209 80 CURVE SMOOTH",
"166 80 OFFCURVE",
"134 89 OFFCURVE",
"113 100 CURVE SMOOTH",
"101 106 OFFCURVE",
"90 113 OFFCURVE",
"81 120 CURVE",
"71 120 LINE",
"12 40 LINE",
"27 31 OFFCURVE",
"45 22 OFFCURVE",
"65 15 CURVE SMOOTH",
"100 2 OFFCURVE",
"148 -10 OFFCURVE",
"208 -10 CURVE SMOOTH"
);
}
);
width = 485;
}
);
unicode = 0073;
},
{
glyphname = germandbls;
layers = (
{
layerId = UUID0;
paths = (
{
closed = 1;
nodes = (
"484 -10 OFFCURVE",
"570 65 OFFCURVE",
"591 180 CURVE SMOOTH",
"619 330 OFFCURVE",
"434 345 OFFCURVE",
"454 450 CURVE",
"462 501 OFFCURVE",
"504 509 OFFCURVE",
"515 570 CURVE",
"528 650 OFFCURVE",
"480 710 OFFCURVE",
"365 710 CURVE SMOOTH",
"265 710 OFFCURVE",
"187 646 OFFCURVE",
"171 550 CURVE SMOOTH",
"161 490 LINE",
"96 490 LINE",
"84 420 LINE",
"149 420 LINE",
"75 0 LINE",
"175 0 LINE",
"271 550 LINE SMOOTH",
"282 610 OFFCURVE",
"317 640 OFFCURVE",
"362 640 CURVE SMOOTH",
"397 640 OFFCURVE",
"422 610 OFFCURVE",
"415 570 CURVE SMOOTH",
"407 519 OFFCURVE",
"372 501 OFFCURVE",
"364 450 CURVE",
"336 300 OFFCURVE",
"509 286 OFFCURVE",
"489 170 CURVE SMOOTH",
"477 99 OFFCURVE",
"430 60 OFFCURVE",
"365 60 CURVE SMOOTH",
"345 60 OFFCURVE",
"330 65 OFFCURVE",
"319 72 CURVE SMOOTH",
"313 75 OFFCURVE",
"308 80 OFFCURVE",
"304 85 CURVE",
"294 85 LINE",
"258 20 LINE",
"265 14 OFFCURVE",
"273 9 OFFCURVE",
"284 5 CURVE",
"301 -3 OFFCURVE",
"328 -10 OFFCURVE",
"363 -10 CURVE SMOOTH"
);
}
);
width = 620;
},
{
layerId = "EFCBAD9B-4238-4620-A1C0-521E4552FF66";
paths = (
{
closed = 1;
nodes = (
"498 -10 OFFCURVE",
"585 66 OFFCURVE",
"604 170 CURVE SMOOTH",
"632 319 OFFCURVE",
"448 330 OFFCURVE",
"464 420 CURVE SMOOTH",
"472 470 OFFCURVE",
"527 499 OFFCURVE",
"538 560 CURVE SMOOTH",
"551 635 OFFCURVE",
"490 710 OFFCURVE",
"360 710 CURVE SMOOTH",
"250 710 OFFCURVE",
"162 635 OFFCURVE",
"146 550 CURVE",
"138 500 LINE",
"83 500 LINE",
"67 410 LINE",
"122 410 LINE",
"50 0 LINE",
"190 0 LINE",
"286 550 LINE SMOOTH",
"294 595 OFFCURVE",
"323 620 OFFCURVE",
"354 620 CURVE SMOOTH",
"385 620 OFFCURVE",
"405 595 OFFCURVE",
"398 560 CURVE",
"390 510 OFFCURVE",
"345 480 OFFCURVE",
"334 420 CURVE SMOOTH",
"310 281 OFFCURVE",
"484 269 OFFCURVE",
"464 170 CURVE",
"454 110 OFFCURVE",
"421 80 OFFCURVE",
"364 80 CURVE SMOOTH",
"344 80 OFFCURVE",
"329 85 OFFCURVE",
"318 92 CURVE SMOOTH",
"312 95 OFFCURVE",
"307 100 OFFCURVE",
"303 105 CURVE",
"293 105 LINE",
"243 20 LINE",
"252 14 OFFCURVE",
"262 9 OFFCURVE",
"274 5 CURVE SMOOTH",
"294 -3 OFFCURVE",
"323 -10 OFFCURVE",
"358 -10 CURVE SMOOTH"
);
}
);
width = 620;
}
);
unicode = 00DF;
},
{
glyphname = t;
layers = (
{
layerId = UUID0;
paths = (
{
closed = 1;
nodes = (
"273 -10 OFFCURVE",
"310 2 OFFCURVE",
"337 15 CURVE SMOOTH",
"353 22 OFFCURVE",
"368 31 OFFCURVE",
"382 40 CURVE",
"357 100 LINE",
"347 100 LINE",
"338 93 OFFCURVE",
"328 86 OFFCURVE",
"318 80 CURVE SMOOTH",
"301 69 OFFCURVE",
"278 60 OFFCURVE",
"255 60 CURVE SMOOTH",
"210 60 OFFCURVE",
"185 90 OFFCURVE",
"196 150 CURVE SMOOTH",
"245 430 LINE",
"370 430 LINE",
"383 500 LINE",
"258 500 LINE",
"279 620 LINE",
"234 620 LINE",
"81 490 LINE",
"70 430 LINE",
"145 430 LINE",
"96 150 LINE",
"80 54 OFFCURVE",
"133 -10 OFFCURVE",
"233 -10 CURVE SMOOTH"
);
}
);
width = 400;
},
{
layerId = "EFCBAD9B-4238-4620-A1C0-521E4552FF66";
paths = (
{
closed = 1;
nodes = (
"278 -10 OFFCURVE",
"316 2 OFFCURVE",
"347 15 CURVE SMOOTH",
"364 22 OFFCURVE",
"381 31 OFFCURVE",
"397 40 CURVE",
"366 120 LINE",
"356 120 LINE",
"347 113 OFFCURVE",
"337 106 OFFCURVE",
"327 100 CURVE SMOOTH",
"310 89 OFFCURVE",
"287 80 OFFCURVE",
"264 80 CURVE SMOOTH",
"233 80 OFFCURVE",
"212 104 OFFCURVE",
"223 160 CURVE",
"267 410 LINE",
"382 410 LINE",
"398 500 LINE",
"283 500 LINE",
"304 620 LINE",
"249 620 LINE",
"72 470 LINE",
"62 410 LINE",
"127 410 LINE",
"83 160 LINE SMOOTH",
"65 60 OFFCURVE",
"124 -10 OFFCURVE",
"238 -10 CURVE SMOOTH"
);
}
);
width = 415;
}
);
unicode = 0074;
},
{
glyphname = tcaron;
layers = (
{
layerId = UUID0;
paths = (
{
closed = 1;
nodes = (
"273 -10 OFFCURVE",
"310 2 OFFCURVE",
"337 15 CURVE SMOOTH",
"353 22 OFFCURVE",
"368 31 OFFCURVE",
"382 40 CURVE",
"357 100 LINE",
"347 100 LINE",
"338 93 OFFCURVE",
"328 86 OFFCURVE",
"318 80 CURVE SMOOTH",
"301 69 OFFCURVE",
"278 60 OFFCURVE",
"255 60 CURVE SMOOTH",
"210 60 OFFCURVE",
"185 90 OFFCURVE",
"196 150 CURVE SMOOTH",
"245 430 LINE",
"370 430 LINE",
"383 500 LINE",
"258 500 LINE",
"279 620 LINE",
"234 620 LINE",
"81 490 LINE",
"70 430 LINE",
"145 430 LINE",
"96 150 LINE",
"80 54 OFFCURVE",
"133 -10 OFFCURVE",
"233 -10 CURVE SMOOTH"
);
},
{
closed = 1;
nodes = (
"453 413 OFFCURVE",
"468 425 OFFCURVE",
"482 440 CURVE SMOOTH",
"506 465 OFFCURVE",
"532 503 OFFCURVE",
"543 556 CURVE",
"550 595 OFFCURVE",
"529 620 OFFCURVE",
"494 620 CURVE SMOOTH",
"469 620 OFFCURVE",
"439 596 OFFCURVE",
"434 565 CURVE SMOOTH",
"429 534 OFFCURVE",
"449 510 OFFCURVE",
"474 510 CURVE",
"470 490 OFFCURVE",
"455 472 OFFCURVE",
"440 457 CURVE SMOOTH",
"431 449 OFFCURVE",
"422 442 OFFCURVE",
"411 435 CURVE",
"436 404 LINE"
);
}
);
width = 480;
},
{
layerId = "EFCBAD9B-4238-4620-A1C0-521E4552FF66";
paths = (
{
closed = 1;
nodes = (
"278 -10 OFFCURVE",
"316 2 OFFCURVE",
"347 15 CURVE SMOOTH",
"364 22 OFFCURVE",
"381 31 OFFCURVE",
"397 40 CURVE",
"366 120 LINE",
"356 120 LINE",
"347 113 OFFCURVE",
"337 106 OFFCURVE",
"327 100 CURVE SMOOTH",
"310 89 OFFCURVE",
"287 80 OFFCURVE",
"264 80 CURVE SMOOTH",
"233 80 OFFCURVE",
"212 104 OFFCURVE",
"223 160 CURVE",
"267 410 LINE",
"382 410 LINE",
"398 500 LINE",
"283 500 LINE",
"304 620 LINE",
"249 620 LINE",
"72 470 LINE",
"62 410 LINE",
"127 410 LINE",
"83 160 LINE SMOOTH",
"65 60 OFFCURVE",
"124 -10 OFFCURVE",
"238 -10 CURVE SMOOTH"
);
},
{
closed = 1;
nodes = (
"474 390 OFFCURVE",
"491 403 OFFCURVE",
"506 419 CURVE SMOOTH",
"533 446 OFFCURVE",
"560 486 OFFCURVE",
"571 545 CURVE SMOOTH",
"579 592 OFFCURVE",
"557 620 OFFCURVE",
"514 620 CURVE SMOOTH",
"482 620 OFFCURVE",
"449 592 OFFCURVE",
"442 555 CURVE SMOOTH",
"437 523 OFFCURVE",
"459 495 OFFCURVE",
"502 495 CURVE",
"498 472 OFFCURVE",
"480 453 OFFCURVE",
"464 438 CURVE SMOOTH",
"454 429 OFFCURVE",
"443 421 OFFCURVE",
"432 414 CURVE",
"457 380 LINE"
);
}
);
width = 510;
}
);
unicode = 0165;
},
{
glyphname = u;
layers = (
{
layerId = UUID0;
paths = (
{
closed = 1;
nodes = (
"269 -10 OFFCURVE",
"307 6 OFFCURVE",
"334 25 CURVE SMOOTH",
"350 35 OFFCURVE",
"364 47 OFFCURVE",
"375 60 CURVE",
"380 60 LINE",
"380 0 LINE",
"450 0 LINE",
"538 500 LINE",
"438 500 LINE",
"372 125 LINE",
"360 114 OFFCURVE",
"348 104 OFFCURVE",
"336 95 CURVE SMOOTH",
"313 80 OFFCURVE",
"287 65 OFFCURVE",
"256 65 CURVE SMOOTH",
"200 65 OFFCURVE",
"167 104 OFFCURVE",
"178 160 CURVE",
"238 500 LINE",
"138 500 LINE",
"78 160 LINE SMOOTH",
"60 60 OFFCURVE",
"117 -10 OFFCURVE",
"218 -10 CURVE SMOOTH"
);
}
);
width = 550;
},
{
layerId = "EFCBAD9B-4238-4620-A1C0-521E4552FF66";
paths = (
{
closed = 1;
nodes = (
"278 -10 OFFCURVE",
"313 6 OFFCURVE",
"340 25 CURVE SMOOTH",
"355 35 OFFCURVE",
"368 47 OFFCURVE",
"380 60 CURVE",
"385 60 LINE",
"385 0 LINE",
"485 0 LINE",
"573 500 LINE",
"433 500 LINE",
"370 145 LINE",
"362 134 OFFCURVE",
"353 124 OFFCURVE",
"343 115 CURVE SMOOTH",
"326 100 OFFCURVE",
"301 85 OFFCURVE",
"274 85 CURVE SMOOTH",
"229 85 OFFCURVE",
"205 115 OFFCURVE",
"216 180 CURVE SMOOTH",
"273 500 LINE",
"133 500 LINE",
"76 180 LINE SMOOTH",
"55 59 OFFCURVE",
"112 -10 OFFCURVE",
"233 -10 CURVE SMOOTH"
);
}
);
width = 580;
}
);
unicode = 0075;
},
{
glyphname = v;
layers = (
{
layerId = UUID0;
paths = (
{
closed = 1;
nodes = (
"270 0 LINE",
"518 500 LINE",
"418 500 LINE",
"254 170 LINE SMOOTH",
"246 155 OFFCURVE",
"240 139 OFFCURVE",
"236 124 CURVE SMOOTH",
"233 116 OFFCURVE",
"231 108 OFFCURVE",
"229 100 CURVE",
"225 100 LINE",
"226 108 OFFCURVE",
"226 116 OFFCURVE",
"226 124 CURVE SMOOTH",
"226 139 OFFCURVE",
"227 155 OFFCURVE",
"224 170 CURVE",
"178 500 LINE",
"78 500 LINE",
"150 0 LINE"
);
}
);
width = 470;
},
{
layerId = "EFCBAD9B-4238-4620-A1C0-521E4552FF66";
paths = (
{
closed = 1;
nodes = (
"300 0 LINE",
"553 500 LINE",
"413 500 LINE",
"268 190 LINE SMOOTH",
"263 179 OFFCURVE",
"258 166 OFFCURVE",
"255 155 CURVE SMOOTH",
"253 148 OFFCURVE",
"251 142 OFFCURVE",
"250 135 CURVE",
"246 135 LINE",
"248 155 LINE SMOOTH",
"249 167 OFFCURVE",
"249 179 OFFCURVE",
"248 190 CURVE SMOOTH",
"213 500 LINE",
"73 500 LINE",
"150 0 LINE"
);
}
);
width = 500;
}
);
unicode = 0076;
},
{
glyphname = w;
layers = (
{
layerId = UUID0;
paths = (
{
closed = 1;
nodes = (
"230 0 LINE",
"370 315 LINE SMOOTH",
"375 327 OFFCURVE",
"382 344 OFFCURVE",
"387 359 CURVE SMOOTH",
"390 367 OFFCURVE",
"392 376 OFFCURVE",
"395 385 CURVE",
"399 385 LINE",
"398 376 OFFCURVE",
"398 367 OFFCURVE",
"398 359 CURVE SMOOTH",
"398 344 OFFCURVE",
"397 327 OFFCURVE",
"400 315 CURVE",
"430 0 LINE",
"540 0 LINE",
"758 500 LINE",
"663 500 LINE",
"529 195 LINE SMOOTH",
"522 180 OFFCURVE",
"517 163 OFFCURVE",
"513 151 CURVE SMOOTH",
"510 144 OFFCURVE",
"508 137 OFFCURVE",
"507 130 CURVE",
"503 130 LINE",
"505 151 LINE SMOOTH",
"506 163 OFFCURVE",
"505 180 OFFCURVE",
"504 195 CURVE SMOOTH",
"478 500 LINE",
"358 500 LINE",
"224 195 LINE SMOOTH",
"217 180 OFFCURVE",
"212 163 OFFCURVE",
"208 151 CURVE SMOOTH",
"205 144 OFFCURVE",
"203 137 OFFCURVE",
"201 130 CURVE",
"197 130 LINE",
"199 151 LINE SMOOTH",
"200 164 OFFCURVE",
"200 179 OFFCURVE",
"199 195 CURVE SMOOTH",
"173 500 LINE",
"78 500 LINE",
"120 0 LINE"
);
}
);
width = 710;
},
{
layerId = "EFCBAD9B-4238-4620-A1C0-521E4552FF66";
paths = (
{
closed = 1;
nodes = (
"260 0 LINE",
"392 295 LINE",
"396 306 OFFCURVE",
"400 319 OFFCURVE",
"403 330 CURVE SMOOTH",
"409 350 LINE",
"413 350 LINE",
"412 343 OFFCURVE",
"412 337 OFFCURVE",
"412 330 CURVE SMOOTH",
"411 318 OFFCURVE",
"411 306 OFFCURVE",
"412 295 CURVE SMOOTH",
"440 0 LINE",
"580 0 LINE",
"803 500 LINE",
"663 500 LINE",
"544 225 LINE",
"540 214 OFFCURVE",
"535 201 OFFCURVE",
"532 190 CURVE",
"529 183 OFFCURVE",
"527 177 OFFCURVE",
"526 170 CURVE",
"522 170 LINE",
"524 190 LINE SMOOTH",
"525 202 OFFCURVE",
"525 214 OFFCURVE",
"524 225 CURVE SMOOTH",
"508 500 LINE",
"368 500 LINE",
"254 225 LINE SMOOTH",
"250 214 OFFCURVE",
"245 201 OFFCURVE",
"242 190 CURVE",
"239 183 OFFCURVE",
"237 177 OFFCURVE",
"236 170 CURVE",
"232 170 LINE",
"234 190 LINE SMOOTH",
"235 202 OFFCURVE",
"235 214 OFFCURVE",
"234 225 CURVE SMOOTH",
"213 500 LINE",
"73 500 LINE",
"120 0 LINE"
);
}
);
width = 750;
}
);
unicode = 0077;
},
{
glyphname = x;
layers = (
{
layerId = UUID0;
paths = (
{
closed = 1;
nodes = (
"100 0 LINE",
"210 145 LINE",
"217 153 OFFCURVE",
"222 163 OFFCURVE",
"227 171 CURVE SMOOTH",
"235 185 LINE",
"239 185 LINE",
"242 171 LINE",
"245 163 OFFCURVE",
"246 153 OFFCURVE",
"250 145 CURVE SMOOTH",
"310 0 LINE",
"420 0 LINE",
"309 255 LINE",
"503 500 LINE",
"393 500 LINE",
"288 360 LINE",
"281 352 OFFCURVE",
"276 342 OFFCURVE",
"271 334 CURVE SMOOTH",
"263 320 LINE",
"259 320 LINE",
"256 334 LINE",
"253 343 OFFCURVE",
"251 352 OFFCURVE",
"248 360 CURVE SMOOTH",
"193 500 LINE",
"83 500 LINE",
"189 255 LINE",
"-10 0 LINE"
);
}
);
width = 460;
},
{
layerId = "EFCBAD9B-4238-4620-A1C0-521E4552FF66";
paths = (
{
closed = 1;
nodes = (
"130 0 LINE",
"228 135 LINE",
"235 146 OFFCURVE",
"241 154 OFFCURVE",
"244 162 CURVE SMOOTH",
"246 166 OFFCURVE",
"247 170 OFFCURVE",
"248 175 CURVE",
"252 175 LINE",
"251 170 OFFCURVE",
"251 166 OFFCURVE",
"252 162 CURVE SMOOTH",
"253 154 OFFCURVE",
"254 146 OFFCURVE",
"258 135 CURVE SMOOTH",
"310 0 LINE",
"455 0 LINE",
"349 255 LINE",
"538 500 LINE",
"393 500 LINE",
"300 370 LINE SMOOTH",
"292 359 OFFCURVE",
"287 349 OFFCURVE",
"284 342 CURVE SMOOTH",
"280 330 LINE",
"276 330 LINE",
"277 333 OFFCURVE",
"277 337 OFFCURVE",
"276 342 CURVE SMOOTH",
"275 349 OFFCURVE",
"273 359 OFFCURVE",
"270 370 CURVE",
"223 500 LINE",
"78 500 LINE",
"179 255 LINE",
"-15 0 LINE"
);
}
);
width = 490;
}
);
unicode = 0078;
},
{
glyphname = y;
layers = (
{
layerId = UUID0;
paths = (
{
closed = 1;
nodes = (
"157 -210 OFFCURVE",
"226 -150 OFFCURVE",
"262 -70 CURVE SMOOTH",
"523 500 LINE",
"423 500 LINE",
"273 170 LINE SMOOTH",
"266 155 OFFCURVE",
"259 135 OFFCURVE",
"252 119 CURVE SMOOTH",
"240 90 LINE",
"236 90 LINE",
"234 119 LINE SMOOTH",
"233 135 OFFCURVE",
"232 155 OFFCURVE",
"229 170 CURVE",
"178 500 LINE",
"78 500 LINE",
"155 0 LINE",
"195 0 LINE",
"162 -70 LINE SMOOTH",
"143 -110 OFFCURVE",
"110 -140 OFFCURVE",
"75 -140 CURVE SMOOTH",
"60 -140 OFFCURVE",
"47 -135 OFFCURVE",
"38 -128 CURVE SMOOTH",
"33 -125 OFFCURVE",
"28 -120 OFFCURVE",
"24 -115 CURVE",
"14 -115 LINE",
"-22 -180 LINE",
"-15 -186 OFFCURVE",
"-7 -191 OFFCURVE",
"2 -195 CURVE SMOOTH",
"18 -203 OFFCURVE",
"41 -210 OFFCURVE",
"72 -210 CURVE SMOOTH"
);
}
);
width = 475;
},
{
layerId = "EFCBAD9B-4238-4620-A1C0-521E4552FF66";
paths = (
{
closed = 1;
nodes = (
"178 -210 OFFCURVE",
"248 -150 OFFCURVE",
"296 -50 CURVE SMOOTH",
"558 500 LINE",
"418 500 LINE",
"275 175 LINE",
"271 164 OFFCURVE",
"266 151 OFFCURVE",
"263 140 CURVE SMOOTH",
"261 133 OFFCURVE",
"259 127 OFFCURVE",
"258 120 CURVE",
"254 120 LINE",
"256 140 LINE SMOOTH",
"257 151 OFFCURVE",
"256 164 OFFCURVE",
"255 175 CURVE SMOOTH",
"213 500 LINE",
"73 500 LINE",
"150 0 LINE",
"190 0 LINE",
"167 -50 LINE SMOOTH",
"147 -95 OFFCURVE",
"119 -120 OFFCURVE",
"88 -120 CURVE SMOOTH",
"73 -120 OFFCURVE",
"61 -115 OFFCURVE",
"52 -108 CURVE SMOOTH",
"47 -105 OFFCURVE",
"42 -100 OFFCURVE",
"38 -95 CURVE",
"28 -95 LINE",
"-22 -180 LINE",
"-14 -186 OFFCURVE",
"-4 -191 OFFCURVE",
"7 -195 CURVE SMOOTH",
"26 -203 OFFCURVE",
"51 -210 OFFCURVE",
"82 -210 CURVE SMOOTH"
);
}
);
width = 505;
}
);
unicode = 0079;
},
{
glyphname = z;
layers = (
{
layerId = UUID0;
paths = (
{
closed = 1;
nodes = (
"380 0 LINE",
"392 70 LINE",
"142 70 LINE",
"449 425 LINE",
"463 500 LINE",
"98 500 LINE",
"85 430 LINE",
"330 430 LINE",
"23 75 LINE",
"10 0 LINE"
);
}
);
width = 440;
},
{
layerId = "EFCBAD9B-4238-4620-A1C0-521E4552FF66";
paths = (
{
closed = 1;
nodes = (
"410 0 LINE",
"425 90 LINE",
"185 90 LINE",
"476 405 LINE",
"493 500 LINE",
"98 500 LINE",
"82 410 LINE",
"317 410 LINE",
"26 95 LINE",
"10 0 LINE"
);
}
);
width = 470;
}
);
unicode = 007A;
},
{
glyphname = ordfeminine;
layers = (
{
layerId = UUID0;
paths = (
{
closed = 1;
nodes = (
"221 350 OFFCURVE",
"246 362 OFFCURVE",
"263 375 CURVE SMOOTH",
"273 382 OFFCURVE",
"282 391 OFFCURVE",
"290 400 CURVE",
"295 400 LINE",
"294 360 LINE",
"363 360 LINE",
"404 590 LINE SMOOTH",
"416 661 OFFCURVE",
"376 710 OFFCURVE",
"285 710 CURVE SMOOTH",
"245 710 OFFCURVE",
"211 698 OFFCURVE",
"188 687 CURVE SMOOTH",
"174 680 OFFCURVE",
"162 673 OFFCURVE",
"151 665 CURVE",
"169 620 LINE",
"179 620 LINE",
"185 625 OFFCURVE",
"192 630 OFFCURVE",
"200 635 CURVE",
"215 642 OFFCURVE",
"234 650 OFFCURVE",
"259 650 CURVE SMOOTH",
"299 650 OFFCURVE",
"321 625 OFFCURVE",
"314 590 CURVE SMOOTH",
"309 565 LINE",
"264 565 LINE SMOOTH",
"153 565 OFFCURVE",
"101 520 OFFCURVE",
"90 455 CURVE SMOOTH",
"79 395 OFFCURVE",
"116 350 OFFCURVE",
"192 350 CURVE SMOOTH"
);
},
{
closed = 1;
nodes = (
"191 410 OFFCURVE",
"175 430 OFFCURVE",
"180 455 CURVE SMOOTH",
"185 486 OFFCURVE",
"209 505 OFFCURVE",
"254 505 CURVE SMOOTH",
"299 505 LINE",
"287 440 LINE",
"282 434 OFFCURVE",
"275 429 OFFCURVE",
"268 425 CURVE SMOOTH",
"256 417 OFFCURVE",
"239 410 OFFCURVE",
"222 410 CURVE SMOOTH"
);
}
);
width = 360;
},
{
layerId = "EFCBAD9B-4238-4620-A1C0-521E4552FF66";
paths = (
{
closed = 1;
nodes = (
"213 350 OFFCURVE",
"238 361 OFFCURVE",
"257 372 CURVE SMOOTH",
"268 379 OFFCURVE",
"277 386 OFFCURVE",
"284 395 CURVE",
"289 395 LINE",
"289 360 LINE",
"383 360 LINE",
"422 580 LINE",
"437 660 OFFCURVE",
"396 710 OFFCURVE",
"285 710 CURVE SMOOTH",
"245 710 OFFCURVE",
"209 698 OFFCURVE",
"182 687 CURVE SMOOTH",
"167 680 OFFCURVE",
"153 673 OFFCURVE",
"140 665 CURVE",
"165 605 LINE",
"175 605 LINE",
"200 620 LINE",
"215 627 OFFCURVE",
"232 635 OFFCURVE",
"251 635 CURVE SMOOTH",
"291 635 OFFCURVE",
"308 617 OFFCURVE",
"302 580 CURVE SMOOTH",
"299 565 LINE",
"259 565 LINE SMOOTH",
"144 565 OFFCURVE",
"91 520 OFFCURVE",
"80 455 CURVE SMOOTH",
"69 395 OFFCURVE",
"105 350 OFFCURVE",
"181 350 CURVE SMOOTH"
);
},
{
closed = 1;
nodes = (
"203 430 OFFCURVE",
"192 440 OFFCURVE",
"196 460 CURVE SMOOTH",
"199 480 OFFCURVE",
"215 490 OFFCURVE",
"246 490 CURVE SMOOTH",
"286 490 LINE",
"280 455 LINE",
"275 450 OFFCURVE",
"269 445 OFFCURVE",
"264 442 CURVE SMOOTH",
"255 435 OFFCURVE",
"242 430 OFFCURVE",
"230 430 CURVE SMOOTH"
);
}
);
width = 380;
}
);
unicode = 00AA;
},
{
glyphname = ordmasculine;
layers = (
{
layerId = UUID0;
paths = (
{
closed = 1;
nodes = (
"327 350 OFFCURVE",
"403 414 OFFCURVE",
"423 530 CURVE SMOOTH",
"443 646 OFFCURVE",
"391 710 OFFCURVE",
"295 710 CURVE SMOOTH",
"199 710 OFFCURVE",
"123 646 OFFCURVE",
"103 530 CURVE SMOOTH",
"83 414 OFFCURVE",
"135 350 OFFCURVE",
"231 350 CURVE SMOOTH"
);
},
{
closed = 1;
nodes = (
"202 410 OFFCURVE",
"177 439 OFFCURVE",
"193 530 CURVE SMOOTH",
"209 621 OFFCURVE",
"244 650 OFFCURVE",
"284 650 CURVE SMOOTH",
"324 650 OFFCURVE",
"349 619 OFFCURVE",
"333 530 CURVE SMOOTH",
"317 439 OFFCURVE",
"282 410 OFFCURVE",
"242 410 CURVE SMOOTH"
);
}
);
width = 390;
},
{
layerId = "EFCBAD9B-4238-4620-A1C0-521E4552FF66";
paths = (
{
closed = 1;
nodes = (
"346 350 OFFCURVE",
"434 426 OFFCURVE",
"453 530 CURVE SMOOTH",
"472 634 OFFCURVE",
"410 710 OFFCURVE",
"310 710 CURVE SMOOTH",
"209 710 OFFCURVE",
"122 634 OFFCURVE",
"103 530 CURVE SMOOTH",
"84 426 OFFCURVE",
"146 350 OFFCURVE",
"246 350 CURVE SMOOTH"
);
},
{
closed = 1;
nodes = (
"229 430 OFFCURVE",
"210 455 OFFCURVE",
"223 530 CURVE SMOOTH",
"236 605 OFFCURVE",
"265 630 OFFCURVE",
"296 630 CURVE SMOOTH",
"325 630 OFFCURVE",
"346 605 OFFCURVE",
"333 530 CURVE SMOOTH",
"320 455 OFFCURVE",
"289 430 OFFCURVE",
"260 430 CURVE SMOOTH"
);
}
);
width = 420;
}
);
unicode = 00BA;
},
{
color = 4;
glyphname = "Be-cy";
layers = (
{
layerId = UUID0;
paths = (
{
closed = 1;
nodes = (
"255 0 LINE SMOOTH",
"420 0 OFFCURVE",
"514 79 OFFCURVE",
"537 210 CURVE",
"558 341 OFFCURVE",
"495 420 OFFCURVE",
"329 420 CURVE SMOOTH",
"239 420 LINE",
"276 630 LINE",
"566 630 LINE",
"578 700 LINE",
"188 700 LINE",
"65 0 LINE"
);
},
{
closed = 1;
nodes = (
"226 350 LINE",
"316 350 LINE",
"412 350 OFFCURVE",
"452 301 OFFCURVE",
"437 210 CURVE SMOOTH",
"421 119 OFFCURVE",
"363 70 OFFCURVE",
"267 70 CURVE SMOOTH",
"177 70 LINE"
);
}
);
width = 570;
},
{
layerId = "EFCBAD9B-4238-4620-A1C0-521E4552FF66";
paths = (
{
closed = 1;
nodes = (
"265 0 LINE SMOOTH",
"454 0 OFFCURVE",
"549 80 OFFCURVE",
"572 215 CURVE SMOOTH",
"593 340 OFFCURVE",
"530 430 OFFCURVE",
"340 430 CURVE SMOOTH",
"275 430 LINE",
"307 610 LINE",
"587 610 LINE",
"603 700 LINE",
"183 700 LINE",
"60 0 LINE"
);
},
{
closed = 1;
nodes = (
"259 340 LINE",
"324 340 LINE",
"415 340 OFFCURVE",
"447 300 OFFCURVE",
"432 215 CURVE SMOOTH",
"417 130 OFFCURVE",
"371 90 OFFCURVE",
"280 90 CURVE SMOOTH",
"215 90 LINE"
);
}
);
width = 600;
}
);
unicode = 0411;
},
{
color = 4;
glyphname = "Ge-cy";
layers = (
{
anchors = (
{
name = bottomright;
position = "{65, 0}";
},
{
name = center;
position = "{213, 350}";
},
{
name = top;
position = "{414, 700}";
}
);
layerId = UUID0;
paths = (
{
closed = 1;
nodes = (
"165 0 LINE",
"276 630 LINE",
"566 630 LINE",
"578 700 LINE",
"188 700 LINE",
"65 0 LINE"
);
}
);
width = 490;
},
{
anchors = (
{
name = bottomright;
position = "{60, 0}";
},
{
name = center;
position = "{226, 350}";
},
{
name = top;
position = "{407, 700}";
}
);
layerId = "EFCBAD9B-4238-4620-A1C0-521E4552FF66";
paths = (
{
closed = 1;
nodes = (
"200 0 LINE",
"307 610 LINE",
"587 610 LINE",
"603 700 LINE",
"183 700 LINE",
"60 0 LINE"
);
}
);
width = 515;
}
);
unicode = 0413;
},
{
color = 4;
glyphname = "Gheupturn-cy";
layers = (
{
layerId = UUID0;
paths = (
{
closed = 1;
nodes = (
"165 0 LINE",
"276 630 LINE",
"566 630 LINE",
"596 800 LINE",
"516 800 LINE",
"488 700 LINE",
"188 700 LINE",
"65 0 LINE"
);
}
);
width = 490;
},
{
layerId = "EFCBAD9B-4238-4620-A1C0-521E4552FF66";
paths = (
{
closed = 1;
nodes = (
"200 0 LINE",
"307 610 LINE",
"587 610 LINE",
"622 810 LINE",
"527 810 LINE",
"493 700 LINE",
"183 700 LINE",
"60 0 LINE"
);
}
);
width = 515;
}
);
unicode = 0490;
},
{
color = 4;
glyphname = "De-cy";
layers = (
{
layerId = UUID0;
paths = (
{
closed = 1;
nodes = (
"43 -150 LINE",
"85 0 LINE",
"460 0 LINE",
"448 -150 LINE",
"528 -150 LINE",
"567 70 LINE",
"502 70 LINE",
"613 700 LINE",
"238 700 LINE",
"134 250 LINE SMOOTH",
"119 186 OFFCURVE",
"99 142 OFFCURVE",
"80 113 CURVE SMOOTH",
"69 96 OFFCURVE",
"58 81 OFFCURVE",
"47 70 CURVE",
"-3 70 LINE",
"-41 -150 LINE"
);
},
{
closed = 1;
nodes = (
"158 81 OFFCURVE",
"169 96 OFFCURVE",
"180 113 CURVE SMOOTH",
"199 142 OFFCURVE",
"219 186 OFFCURVE",
"234 250 CURVE SMOOTH",
"321 630 LINE",
"501 630 LINE",
"402 70 LINE",
"147 70 LINE"
);
}
);
width = 620;
},
{
layerId = "EFCBAD9B-4238-4620-A1C0-521E4552FF66";
paths = (
{
closed = 1;
nodes = (
"63 -150 LINE",
"110 0 LINE",
"465 0 LINE",
"458 -150 LINE",
"563 -150 LINE",
"605 90 LINE",
"540 90 LINE",
"648 700 LINE",
"233 700 LINE",
"127 240 LINE SMOOTH",
"114 184 OFFCURVE",
"93 148 OFFCURVE",
"76 124 CURVE SMOOTH",
"66 110 OFFCURVE",
"56 99 OFFCURVE",
"45 90 CURVE",
"-5 90 LINE",
"-46 -150 LINE"
);
},
{
closed = 1;
nodes = (
"191 99 OFFCURVE",
"201 110 OFFCURVE",
"211 124 CURVE SMOOTH",
"228 148 OFFCURVE",
"249 184 OFFCURVE",
"262 240 CURVE SMOOTH",
"347 610 LINE",
"492 610 LINE",
"400 90 LINE",
"180 90 LINE"
);
}
);
width = 655;
}
);
unicode = 0414;
},
{
color = 4;
glyphname = "Zhe-cy";
layers = (
{
anchors = (
{
name = bottomright;
position = "{651, 0}";
},
{
name = top;
position = "{529, 700}";
}
);
layerId = UUID0;
paths = (
{
closed = 1;
nodes = (
"123 -10 OFFCURVE",
"167 30 OFFCURVE",
"190 90 CURVE",
"254 250 LINE",
"273 295 OFFCURVE",
"306 325 OFFCURVE",
"357 325 CURVE SMOOTH",
"412 325 LINE",
"355 0 LINE",
"455 0 LINE",
"512 325 LINE",
"567 325 LINE SMOOTH",
"618 325 OFFCURVE",
"641 295 OFFCURVE",
"644 250 CURVE",
"650 90 LINE",
"653 30 OFFCURVE",
"683 -10 OFFCURVE",
"748 -10 CURVE SMOOTH",
"767 -10 OFFCURVE",
"782 -8 OFFCURVE",
"794 -5 CURVE SMOOTH",
"800 -4 OFFCURVE",
"805 -2 OFFCURVE",
"810 0 CURVE",
"811 65 LINE",
"806 65 LINE",
"799 62 LINE",
"794 61 OFFCURVE",
"789 60 OFFCURVE",
"785 60 CURVE SMOOTH",
"766 60 OFFCURVE",
"755 75 OFFCURVE",
"753 105 CURVE",
"746 265 LINE",
"743 308 OFFCURVE",
"722 332 OFFCURVE",
"701 347 CURVE SMOOTH",
"689 355 OFFCURVE",
"675 361 OFFCURVE",
"659 365 CURVE",
"675 368 OFFCURVE",
"691 373 OFFCURVE",
"706 380 CURVE SMOOTH",
"731 392 OFFCURVE",
"760 415 OFFCURVE",
"775 455 CURVE",
"824 595 LINE SMOOTH",
"835 625 OFFCURVE",
"851 640 OFFCURVE",
"872 640 CURVE SMOOTH",
"877 640 OFFCURVE",
"881 638 OFFCURVE",
"885 637 CURVE SMOOTH",
"891 635 LINE",
"896 635 LINE",
"918 700 LINE",
"904 705 LINE SMOOTH",
"893 708 OFFCURVE",
"880 710 OFFCURVE",
"860 710 CURVE SMOOTH",
"795 710 OFFCURVE",
"750 670 OFFCURVE",
"727 610 CURVE",
"677 470 LINE SMOOTH",
"661 425 OFFCURVE",
"625 395 OFFCURVE",
"569 395 CURVE SMOOTH",
"524 395 LINE",
"578 700 LINE",
"478 700 LINE",
"424 395 LINE",
"379 395 LINE SMOOTH",
"323 395 OFFCURVE",
"297 425 OFFCURVE",
"297 470 CURVE SMOOTH",
"297 610 LINE SMOOTH",
"297 670 OFFCURVE",
"265 710 OFFCURVE",
"200 710 CURVE SMOOTH",
"180 710 OFFCURVE",
"165 708 OFFCURVE",
"154 705 CURVE SMOOTH",
"138 700 LINE",
"136 635 LINE",
"141 635 LINE",
"148 637 LINE SMOOTH",
"152 638 OFFCURVE",
"157 640 OFFCURVE",
"162 640 CURVE SMOOTH",
"182 640 OFFCURVE",
"195 626 OFFCURVE",
"194 595 CURVE",
"195 455 LINE SMOOTH",
"195 415 OFFCURVE",
"216 392 OFFCURVE",
"237 380 CURVE SMOOTH",
"249 373 OFFCURVE",
"263 368 OFFCURVE",
"279 365 CURVE",
"262 361 OFFCURVE",
"245 355 OFFCURVE",
"230 347 CURVE SMOOTH",
"203 332 OFFCURVE",
"173 308 OFFCURVE",
"156 265 CURVE SMOOTH",
"93 105 LINE SMOOTH",
"81 75 OFFCURVE",
"65 60 OFFCURVE",
"45 60 CURVE SMOOTH",
"40 60 OFFCURVE",
"36 61 OFFCURVE",
"32 62 CURVE SMOOTH",
"26 65 LINE",
"21 65 LINE",
"0 0 LINE",
"3 -2 OFFCURVE",
"8 -4 OFFCURVE",
"14 -5 CURVE SMOOTH",
"24 -8 OFFCURVE",
"39 -10 OFFCURVE",
"58 -10 CURVE SMOOTH"
);
}
);
width = 860;
},
{
anchors = (
{
name = bottomright;
position = "{646, 0}";
},
{
name = top;
position = "{542, 700}";
}
);
layerId = "EFCBAD9B-4238-4620-A1C0-521E4552FF66";
paths = (
{
closed = 1;
nodes = (
"149 -10 OFFCURVE",
"194 34 OFFCURVE",
"215 90 CURVE",
"279 250 LINE",
"300 295 OFFCURVE",
"325 315 OFFCURVE",
"375 315 CURVE SMOOTH",
"410 315 LINE",
"355 0 LINE",
"495 0 LINE",
"550 315 LINE",
"585 315 LINE SMOOTH",
"637 315 OFFCURVE",
"656 295 OFFCURVE",
"659 250 CURVE",
"665 90 LINE",
"668 34 OFFCURVE",
"699 -10 OFFCURVE",
"763 -10 CURVE SMOOTH",
"803 -10 OFFCURVE",
"823 -6 OFFCURVE",
"850 5 CURVE",
"854 85 LINE",
"849 85 LINE",
"842 82 OFFCURVE",
"837 80 OFFCURVE",
"830 80 CURVE SMOOTH",
"810 80 OFFCURVE",
"800 92 OFFCURVE",
"800 115 CURVE",
"794 255 LINE",
"791 302 OFFCURVE",
"768 330 OFFCURVE",
"745 346 CURVE SMOOTH",
"732 355 OFFCURVE",
"716 362 OFFCURVE",
"699 365 CURVE",
"716 368 OFFCURVE",
"732 374 OFFCURVE",
"747 383 CURVE SMOOTH",
"774 398 OFFCURVE",
"803 423 OFFCURVE",
"822 470 CURVE SMOOTH",
"868 585 LINE SMOOTH",
"877 608 OFFCURVE",
"890 620 OFFCURVE",
"909 620 CURVE SMOOTH",
"914 620 OFFCURVE",
"918 618 OFFCURVE",
"922 617 CURVE SMOOTH",
"928 615 LINE",
"933 615 LINE",
"957 695 LINE",
"935 702 LINE SMOOTH",
"920 706 OFFCURVE",
"900 710 OFFCURVE",
"875 710 CURVE SMOOTH",
"809 710 OFFCURVE",
"763 666 OFFCURVE",
"742 610 CURVE SMOOTH",
"688 475 LINE SMOOTH",
"666 424 OFFCURVE",
"643 405 OFFCURVE",
"586 405 CURVE SMOOTH",
"566 405 LINE",
"618 700 LINE",
"478 700 LINE",
"426 405 LINE",
"406 405 LINE SMOOTH",
"340 405 OFFCURVE",
"322 424 OFFCURVE",
"318 475 CURVE",
"312 610 LINE SMOOTH",
"310 666 OFFCURVE",
"283 710 OFFCURVE",
"225 710 CURVE SMOOTH",
"197 710 OFFCURVE",
"182 707 OFFCURVE",
"137 695 CURVE",
"133 615 LINE",
"138 615 LINE",
"145 618 OFFCURVE",
"151 620 OFFCURVE",
"159 620 CURVE SMOOTH",
"178 620 OFFCURVE",
"187 608 OFFCURVE",
"188 585 CURVE SMOOTH",
"192 470 LINE",
"195 423 OFFCURVE",
"216 398 OFFCURVE",
"237 383 CURVE SMOOTH",
"249 374 OFFCURVE",
"263 368 OFFCURVE",
"279 365 CURVE",
"260 362 OFFCURVE",
"242 355 OFFCURVE",
"225 346 CURVE SMOOTH",
"196 330 OFFCURVE",
"163 302 OFFCURVE",
"144 255 CURVE SMOOTH",
"90 115 LINE",
"79 90 OFFCURVE",
"69 80 OFFCURVE",
"48 80 CURVE SMOOTH",
"39 80 OFFCURVE",
"38 81 OFFCURVE",
"29 85 CURVE",
"24 85 LINE",
"0 5 LINE",
"21 -6 OFFCURVE",
"54 -10 OFFCURVE",
"83 -10 CURVE SMOOTH"
);
}
);
width = 900;
}
);
unicode = 0416;
},
{
color = 4;
glyphname = "Ze-cy";
layers = (
{
anchors = (
{
name = bottom;
position = "{186, 0}";
},
{
name = top;
position = "{319, 700}";
}
);
layerId = UUID0;
paths = (
{
closed = 1;
nodes = (
"365 -10 OFFCURVE",
"456 70 OFFCURVE",
"477 185 CURVE SMOOTH",
"491 266 OFFCURVE",
"464 310 OFFCURVE",
"434 337 CURVE SMOOTH",
"417 352 OFFCURVE",
"395 363 OFFCURVE",
"370 370 CURVE",
"395 377 OFFCURVE",
"417 387 OFFCURVE",
"438 401 CURVE SMOOTH",
"473 425 OFFCURVE",
"511 465 OFFCURVE",
"523 530 CURVE SMOOTH",
"542 630 OFFCURVE",
"474 710 OFFCURVE",
"325 710 CURVE SMOOTH",
"265 710 OFFCURVE",
"217 697 OFFCURVE",
"182 682 CURVE SMOOTH",
"162 674 OFFCURVE",
"145 665 OFFCURVE",
"130 655 CURVE",
"154 595 LINE",
"164 595 LINE",
"175 603 OFFCURVE",
"188 610 OFFCURVE",
"203 617 CURVE SMOOTH",
"227 628 OFFCURVE",
"262 640 OFFCURVE",
"302 640 CURVE SMOOTH",
"393 640 OFFCURVE",
"434 591 OFFCURVE",
"421 520 CURVE SMOOTH",
"409 449 OFFCURVE",
"350 400 OFFCURVE",
"270 400 CURVE SMOOTH",
"180 400 LINE",
"168 330 LINE",
"258 330 LINE SMOOTH",
"354 330 OFFCURVE",
"394 280 OFFCURVE",
"379 195 CURVE SMOOTH",
"364 110 OFFCURVE",
"306 60 OFFCURVE",
"190 60 CURVE SMOOTH",
"145 60 OFFCURVE",
"113 71 OFFCURVE",
"90 82 CURVE SMOOTH",
"77 89 OFFCURVE",
"67 96 OFFCURVE",
"58 105 CURVE",
"48 105 LINE",
"2 45 LINE",
"14 34 OFFCURVE",
"29 25 OFFCURVE",
"46 17 CURVE SMOOTH",
"77 2 OFFCURVE",
"123 -10 OFFCURVE",
"188 -10 CURVE SMOOTH"
);
}
);
width = 520;
},
{
anchors = (
{
name = bottom;
position = "{194, 0}";
},
{
name = top;
position = "{330, 700}";
}
);
layerId = "EFCBAD9B-4238-4620-A1C0-521E4552FF66";
paths = (
{
closed = 1;
nodes = (
"382 -10 OFFCURVE",
"477 70 OFFCURVE",
"498 190 CURVE",
"511 270 OFFCURVE",
"482 315 OFFCURVE",
"449 340 CURVE SMOOTH",
"430 355 OFFCURVE",
"407 365 OFFCURVE",
"380 370 CURVE",
"406 375 OFFCURVE",
"430 384 OFFCURVE",
"452 397 CURVE SMOOTH",
"489 420 OFFCURVE",
"530 457 OFFCURVE",
"542 525 CURVE SMOOTH",
"561 630 OFFCURVE",
"496 710 OFFCURVE",
"325 710 CURVE SMOOTH",
"261 710 OFFCURVE",
"212 697 OFFCURVE",
"176 682 CURVE SMOOTH",
"155 674 OFFCURVE",
"136 665 OFFCURVE",
"120 655 CURVE",
"151 575 LINE",
"161 575 LINE",
"172 583 OFFCURVE",
"184 590 OFFCURVE",
"198 597 CURVE SMOOTH",
"222 608 OFFCURVE",
"256 620 OFFCURVE",
"299 620 CURVE SMOOTH",
"384 620 OFFCURVE",
"412 580 OFFCURVE",
"400 515 CURVE SMOOTH",
"389 450 OFFCURVE",
"343 410 OFFCURVE",
"267 410 CURVE SMOOTH",
"172 410 LINE",
"156 320 LINE",
"251 320 LINE SMOOTH",
"342 320 OFFCURVE",
"375 280 OFFCURVE",
"360 200 CURVE SMOOTH",
"345 120 OFFCURVE",
"299 80 OFFCURVE",
"199 80 CURVE SMOOTH",
"151 80 OFFCURVE",
"118 91 OFFCURVE",
"97 102 CURVE SMOOTH",
"85 109 OFFCURVE",
"75 116 OFFCURVE",
"67 125 CURVE",
"57 125 LINE",
"-3 45 LINE",
"10 34 OFFCURVE",
"25 25 OFFCURVE",
"44 17 CURVE SMOOTH",
"76 2 OFFCURVE",
"125 -10 OFFCURVE",
"193 -10 CURVE SMOOTH"
);
}
);
width = 535;
}
);
unicode = 0417;
},
{
color = 4;
glyphname = "Ii-cy";
layers = (
{
anchors = (
{
name = bottomright;
position = "{425, 0}";
},
{
name = top;
position = "{423, 700}";
}
);
guideLines = (
{
angle = 79.9333;
position = "{249, 478}";
},
{
angle = 80.0581;
position = "{454, 223}";
}
);
layerId = UUID0;
paths = (
{
closed = 1;
nodes = (
"165 0 LINE",
"477 465 LINE SMOOTH",
"487 480 OFFCURVE",
"498 500 OFFCURVE",
"522 550 CURVE",
"526 550 LINE",
"518 521 OFFCURVE",
"512 495 OFFCURVE",
"507 465 CURVE SMOOTH",
"425 0 LINE",
"525 0 LINE",
"648 700 LINE",
"548 700 LINE",
"235 235 LINE SMOOTH",
"217 208 OFFCURVE",
"204 180 OFFCURVE",
"190 150 CURVE",
"186 150 LINE",
"196 181 OFFCURVE",
"199 206 OFFCURVE",
"205 235 CURVE SMOOTH",
"288 700 LINE",
"188 700 LINE",
"65 0 LINE"
);
}
);
width = 630;
},
{
anchors = (
{
name = bottomright;
position = "{430, 0}";
},
{
name = top;
position = "{439, 700}";
}
);
background = {
components = (
{
name = H;
}
);
};
guideLines = (
{
angle = 79.9507;
position = "{288, 503}";
},
{
angle = 80.0913;
position = "{455, 198}";
}
);
layerId = "EFCBAD9B-4238-4620-A1C0-521E4552FF66";
paths = (
{
closed = 1;
nodes = (
"195 0 LINE",
"480 425 LINE SMOOTH",
"490 439 OFFCURVE",
"503 464 OFFCURVE",
"518 491 CURVE",
"522 491 LINE",
"514 467 OFFCURVE",
"510 452 OFFCURVE",
"505 425 CURVE SMOOTH",
"430 0 LINE",
"560 0 LINE",
"683 700 LINE",
"558 700 LINE",
"273 275 LINE SMOOTH",
"262 258 OFFCURVE",
"250 240 OFFCURVE",
"236 209 CURVE",
"232 209 LINE",
"239 231 OFFCURVE",
"244 251 OFFCURVE",
"248 275 CURVE SMOOTH",
"323 700 LINE",
"193 700 LINE",
"70 0 LINE"
);
}
);
width = 660;
}
);
unicode = 0418;
},
{
color = 4;
glyphname = "Ka-cy";
layers = (
{
anchors = (
{
name = bottomright;
position = "{371, 0}";
},
{
name = center;
position = "{311, 350}";
},
{
name = top;
position = "{392, 700}";
}
);
layerId = UUID0;
paths = (
{
closed = 1;
nodes = (
"500 -10 OFFCURVE",
"517 -7 OFFCURVE",
"535 0 CURVE",
"536 65 LINE",
"531 65 LINE",
"525 62 OFFCURVE",
"517 60 OFFCURVE",
"510 60 CURVE SMOOTH",
"491 60 OFFCURVE",
"480 75 OFFCURVE",
"478 105 CURVE SMOOTH",
"471 265 LINE",
"468 308 OFFCURVE",
"447 332 OFFCURVE",
"426 347 CURVE SMOOTH",
"414 355 OFFCURVE",
"400 361 OFFCURVE",
"384 365 CURVE",
"400 368 OFFCURVE",
"416 373 OFFCURVE",
"431 380 CURVE SMOOTH",
"456 392 OFFCURVE",
"485 415 OFFCURVE",
"500 455 CURVE",
"549 595 LINE SMOOTH",
"560 625 OFFCURVE",
"576 640 OFFCURVE",
"597 640 CURVE SMOOTH",
"607 640 OFFCURVE",
"611 638 OFFCURVE",
"616 635 CURVE",
"621 635 LINE",
"643 700 LINE",
"623 708 OFFCURVE",
"609 710 OFFCURVE",
"585 710 CURVE SMOOTH",
"525 710 OFFCURVE",
"481 670 OFFCURVE",
"460 610 CURVE SMOOTH",
"410 470 LINE SMOOTH",
"394 425 OFFCURVE",
"355 395 OFFCURVE",
"294 395 CURVE SMOOTH",
"234 395 LINE",
"288 700 LINE",
"188 700 LINE",
"65 0 LINE",
"165 0 LINE",
"222 325 LINE",
"292 325 LINE SMOOTH",
"350 325 OFFCURVE",
"375 295 OFFCURVE",
"377 250 CURVE SMOOTH",
"383 90 LINE SMOOTH",
"385 30 OFFCURVE",
"415 -10 OFFCURVE",
"473 -10 CURVE SMOOTH"
);
}
);
width = 585;
},
{
anchors = (
{
name = bottomright;
position = "{371, 0}";
},
{
name = center;
position = "{326, 350}";
},
{
name = top;
position = "{407, 700}";
}
);
layerId = "EFCBAD9B-4238-4620-A1C0-521E4552FF66";
paths = (
{
closed = 1;
nodes = (
"508 -10 OFFCURVE",
"538 -6 OFFCURVE",
"565 5 CURVE",
"569 85 LINE",
"564 85 LINE",
"557 81 OFFCURVE",
"551 80 OFFCURVE",
"545 80 CURVE SMOOTH",
"525 80 OFFCURVE",
"515 92 OFFCURVE",
"515 115 CURVE SMOOTH",
"509 255 LINE",
"506 302 OFFCURVE",
"483 330 OFFCURVE",
"460 346 CURVE SMOOTH",
"447 355 OFFCURVE",
"431 362 OFFCURVE",
"414 365 CURVE",
"431 368 OFFCURVE",
"447 374 OFFCURVE",
"462 383 CURVE SMOOTH",
"489 398 OFFCURVE",
"518 423 OFFCURVE",
"537 470 CURVE SMOOTH",
"583 585 LINE SMOOTH",
"592 608 OFFCURVE",
"604 620 OFFCURVE",
"623 620 CURVE SMOOTH",
"634 620 OFFCURVE",
"639 618 OFFCURVE",
"643 615 CURVE",
"648 615 LINE",
"672 695 LINE",
"645 706 OFFCURVE",
"625 710 OFFCURVE",
"590 710 CURVE SMOOTH",
"529 710 OFFCURVE",
"491 673 OFFCURVE",
"463 610 CURVE SMOOTH",
"403 475 LINE SMOOTH",
"381 425 OFFCURVE",
"352 405 OFFCURVE",
"301 405 CURVE SMOOTH",
"271 405 LINE",
"323 700 LINE",
"183 700 LINE",
"60 0 LINE",
"200 0 LINE",
"255 315 LINE",
"300 315 LINE SMOOTH",
"345 315 OFFCURVE",
"371 295 OFFCURVE",
"374 250 CURVE",
"380 90 LINE",
"383 34 OFFCURVE",
"407 -10 OFFCURVE",
"478 -10 CURVE SMOOTH"
);
}
);
width = 615;
}
);
unicode = 041A;
},
{
color = 4;
glyphname = "El-cy";
layers = (
{
layerId = UUID0;
paths = (
{
closed = 1;
nodes = (
"114 -10 OFFCURVE",
"176 44 OFFCURVE",
"203 160 CURVE SMOOTH",
"311 630 LINE",
"506 630 LINE",
"395 0 LINE",
"495 0 LINE",
"618 700 LINE",
"228 700 LINE",
"103 160 LINE",
"84 84 OFFCURVE",
"55 60 OFFCURVE",
"30 60 CURVE SMOOTH",
"25 60 OFFCURVE",
"21 61 OFFCURVE",
"17 62 CURVE SMOOTH",
"11 65 LINE",
"1 65 LINE",
"-15 0 LINE",
"-11 -2 OFFCURVE",
"-6 -4 OFFCURVE",
"0 -5 CURVE SMOOTH",
"10 -8 OFFCURVE",
"23 -10 OFFCURVE",
"38 -10 CURVE SMOOTH"
);
}
);
width = 610;
},
{
layerId = "EFCBAD9B-4238-4620-A1C0-521E4552FF66";
paths = (
{
closed = 1;
nodes = (
"148 -10 OFFCURVE",
"211 49 OFFCURVE",
"238 160 CURVE",
"342 610 LINE",
"492 610 LINE",
"385 0 LINE",
"525 0 LINE",
"648 700 LINE",
"223 700 LINE",
"98 160 LINE",
"83 100 OFFCURVE",
"64 80 OFFCURVE",
"39 80 CURVE SMOOTH",
"35 80 OFFCURVE",
"30 81 OFFCURVE",
"23 82 CURVE",
"14 85 LINE",
"4 85 LINE",
"-20 5 LINE",
"1 -3 LINE SMOOTH",
"14 -7 OFFCURVE",
"29 -10 OFFCURVE",
"48 -10 CURVE SMOOTH"
);
}
);
width = 635;
}
);
unicode = 041B;
},
{
color = 4;
glyphname = "Pe-cy";
layers = (
{
anchors = (
{
name = bottomright;
position = "{415, 0}";
}
);
layerId = UUID0;
paths = (
{
closed = 1;
nodes = (
"165 0 LINE",
"276 630 LINE",
"526 630 LINE",
"415 0 LINE",
"515 0 LINE",
"638 700 LINE",
"188 700 LINE",
"65 0 LINE"
);
}
);
width = 630;
},
{
anchors = (
{
name = bottomright;
position = "{410, 0}";
}
);
layerId = "EFCBAD9B-4238-4620-A1C0-521E4552FF66";
paths = (
{
closed = 1;
nodes = (
"200 0 LINE",
"307 610 LINE",
"517 610 LINE",
"410 0 LINE",
"550 0 LINE",
"673 700 LINE",
"183 700 LINE",
"60 0 LINE"
);
}
);
width = 660;
}
);
unicode = 041F;
},
{
color = 4;
glyphname = "U-cy";
layers = (
{
anchors = (
{
name = top;
position = "{357, 700}";
}
);
layerId = UUID0;
paths = (
{
closed = 1;
nodes = (
"223 -15 OFFCURVE",
"301 50 OFFCURVE",
"338 125 CURVE SMOOTH",
"624 700 LINE",
"524 700 LINE",
"340 335 LINE SMOOTH",
"333 322 OFFCURVE",
"326 303 OFFCURVE",
"319 288 CURVE SMOOTH",
"307 260 LINE",
"303 260 LINE",
"301 288 LINE SMOOTH",
"300 304 OFFCURVE",
"298 322 OFFCURVE",
"295 335 CURVE SMOOTH",
"213 700 LINE",
"108 700 LINE",
"223 185 LINE",
"268 185 LINE",
"238 125 LINE SMOOTH",
"217 85 OFFCURVE",
"180 55 OFFCURVE",
"140 55 CURVE SMOOTH",
"121 55 OFFCURVE",
"108 60 OFFCURVE",
"99 67 CURVE SMOOTH",
"94 70 OFFCURVE",
"89 75 OFFCURVE",
"85 80 CURVE",
"75 80 LINE",
"38 15 LINE",
"45 9 OFFCURVE",
"54 4 OFFCURVE",
"64 0 CURVE SMOOTH",
"81 -8 OFFCURVE",
"105 -15 OFFCURVE",
"138 -15 CURVE SMOOTH"
);
}
);
width = 536;
},
{
anchors = (
{
name = top;
position = "{377, 700}";
}
);
layerId = "EFCBAD9B-4238-4620-A1C0-521E4552FF66";
paths = (
{
closed = 1;
nodes = (
"267 -15 OFFCURVE",
"340 50 OFFCURVE",
"383 135 CURVE",
"663 700 LINE",
"518 700 LINE",
"359 365 LINE SMOOTH",
"350 346 OFFCURVE",
"344 329 OFFCURVE",
"340 314 CURVE SMOOTH",
"337 306 OFFCURVE",
"335 298 OFFCURVE",
"333 290 CURVE",
"329 290 LINE",
"329 314 LINE SMOOTH",
"329 329 OFFCURVE",
"327 346 OFFCURVE",
"324 365 CURVE",
"253 700 LINE",
"108 700 LINE",
"231 185 LINE",
"272 185 LINE",
"248 135 LINE SMOOTH",
"232 100 OFFCURVE",
"203 75 OFFCURVE",
"168 75 CURVE SMOOTH",
"149 75 OFFCURVE",
"138 80 OFFCURVE",
"127 87 CURVE SMOOTH",
"121 90 OFFCURVE",
"116 95 OFFCURVE",
"112 100 CURVE",
"102 100 LINE",
"52 15 LINE",
"61 9 OFFCURVE",
"72 4 OFFCURVE",
"83 0 CURVE SMOOTH",
"102 -8 OFFCURVE",
"129 -15 OFFCURVE",
"162 -15 CURVE SMOOTH"
);
}
);
width = 575;
}
);
unicode = 0423;
},
{
color = 4;
glyphname = "Ef-cy";
layers = (
{
layerId = UUID0;
paths = (
{
closed = 1;
nodes = (
"404 -30 LINE",
"417 40 LINE",
"604 51 OFFCURVE",
"726 154 OFFCURVE",
"761 350 CURVE SMOOTH",
"796 546 OFFCURVE",
"710 649 OFFCURVE",
"526 660 CURVE",
"538 730 LINE",
"438 730 LINE",
"426 660 LINE",
"238 649 OFFCURVE",
"116 546 OFFCURVE",
"81 350 CURVE SMOOTH",
"46 154 OFFCURVE",
"132 51 OFFCURVE",
"317 40 CURVE",
"304 -30 LINE"
);
},
{
closed = 1;
nodes = (
"216 121 OFFCURVE",
"154 194 OFFCURVE",
"181 350 CURVE SMOOTH",
"209 506 OFFCURVE",
"297 579 OFFCURVE",
"414 590 CURVE",
"329 110 LINE"
);
},
{
closed = 1;
nodes = (
"514 590 LINE",
"627 579 OFFCURVE",
"689 505 OFFCURVE",
"661 350 CURVE SMOOTH",
"634 195 OFFCURVE",
"546 119 OFFCURVE",
"429 110 CURVE"
);
}
);
width = 770;
},
{
layerId = "EFCBAD9B-4238-4620-A1C0-521E4552FF66";
paths = (
{
closed = 1;
nodes = (
"434 -30 LINE",
"447 40 LINE",
"627 51 OFFCURVE",
"759 160 OFFCURVE",
"791 350 CURVE",
"826 540 OFFCURVE",
"733 649 OFFCURVE",
"556 660 CURVE",
"568 730 LINE",
"428 730 LINE",
"416 660 LINE",
"233 649 OFFCURVE",
"106 541 OFFCURVE",
"71 350 CURVE",
"39 160 OFFCURVE",
"128 51 OFFCURVE",
"307 40 CURVE",
"294 -30 LINE"
);
},
{
closed = 1;
nodes = (
"235 141 OFFCURVE",
"184 200 OFFCURVE",
"211 350 CURVE SMOOTH",
"238 500 OFFCURVE",
"307 559 OFFCURVE",
"400 570 CURVE",
"322 130 LINE"
);
},
{
closed = 1;
nodes = (
"540 570 LINE",
"629 559 OFFCURVE",
"678 500 OFFCURVE",
"651 350 CURVE SMOOTH",
"624 200 OFFCURVE",
"555 141 OFFCURVE",
"462 130 CURVE"
);
}
);
width = 790;
}
);
unicode = 0424;
},
{
color = 4;
glyphname = "Che-cy";
layers = (
{
anchors = (
{
name = bottomright;
position = "{385, 0}";
},
{
name = center;
position = "{305, 295}";
},
{
name = top;
position = "{379, 700}";
}
);
layerId = UUID0;
paths = (
{
closed = 1;
nodes = (
"485 0 LINE",
"608 700 LINE",
"508 700 LINE",
"445 345 LINE",
"411 337 LINE SMOOTH",
"390 333 OFFCURVE",
"360 330 OFFCURVE",
"328 330 CURVE SMOOTH",
"243 330 OFFCURVE",
"202 379 OFFCURVE",
"215 455 CURVE SMOOTH",
"258 700 LINE",
"158 700 LINE",
"115 455 LINE SMOOTH",
"94 340 OFFCURVE",
"159 260 OFFCURVE",
"290 260 CURVE SMOOTH",
"330 260 OFFCURVE",
"364 263 OFFCURVE",
"391 267 CURVE SMOOTH",
"406 270 OFFCURVE",
"420 272 OFFCURVE",
"433 275 CURVE",
"385 0 LINE"
);
}
);
width = 600;
},
{
anchors = (
{
name = bottomright;
position = "{380, 0}";
},
{
name = center;
position = "{315, 289}";
},
{
name = top;
position = "{396, 700}";
}
);
layerId = "EFCBAD9B-4238-4620-A1C0-521E4552FF66";
paths = (
{
closed = 1;
nodes = (
"520 0 LINE",
"643 700 LINE",
"503 700 LINE",
"440 345 LINE",
"412 337 LINE SMOOTH",
"395 333 OFFCURVE",
"370 330 OFFCURVE",
"343 330 CURVE SMOOTH",
"266 330 OFFCURVE",
"235 368 OFFCURVE",
"248 445 CURVE SMOOTH",
"293 700 LINE",
"153 700 LINE",
"108 445 LINE",
"85 320 OFFCURVE",
"151 240 OFFCURVE",
"302 240 CURVE SMOOTH",
"337 240 OFFCURVE",
"366 243 OFFCURVE",
"389 247 CURVE",
"424 255 LINE",
"380 0 LINE"
);
}
);
width = 630;
}
);
unicode = 0427;
},
{
color = 4;
glyphname = "Tse-cy";
layers = (
{
layerId = UUID0;
paths = (
{
closed = 1;
nodes = (
"543 -150 LINE",
"582 70 LINE",
"517 70 LINE",
"628 700 LINE",
"528 700 LINE",
"417 70 LINE",
"177 70 LINE",
"288 700 LINE",
"188 700 LINE",
"65 0 LINE",
"475 0 LINE",
"463 -150 LINE"
);
}
);
width = 635;
},
{
layerId = "EFCBAD9B-4238-4620-A1C0-521E4552FF66";
paths = (
{
closed = 1;
nodes = (
"578 -150 LINE",
"620 90 LINE",
"555 90 LINE",
"663 700 LINE",
"523 700 LINE",
"415 90 LINE",
"215 90 LINE",
"323 700 LINE",
"183 700 LINE",
"60 0 LINE",
"480 0 LINE",
"473 -150 LINE"
);
}
);
width = 670;
}
);
unicode = 0426;
},
{
color = 4;
glyphname = "Sha-cy";
layers = (
{
layerId = UUID0;
paths = (
{
closed = 1;
nodes = (
"805 0 LINE",
"928 700 LINE",
"828 700 LINE",
"717 70 LINE",
"497 70 LINE",
"608 700 LINE",
"508 700 LINE",
"397 70 LINE",
"177 70 LINE",
"288 700 LINE",
"188 700 LINE",
"65 0 LINE"
);
}
);
width = 920;
},
{
layerId = "EFCBAD9B-4238-4620-A1C0-521E4552FF66";
paths = (
{
closed = 1;
nodes = (
"840 0 LINE",
"963 700 LINE",
"823 700 LINE",
"715 90 LINE",
"535 90 LINE",
"643 700 LINE",
"503 700 LINE",
"395 90 LINE",
"215 90 LINE",
"323 700 LINE",
"183 700 LINE",
"60 0 LINE"
);
}
);
width = 950;
}
);
unicode = 0428;
},
{
color = 4;
glyphname = "Shcha-cy";
layers = (
{
layerId = UUID0;
paths = (
{
closed = 1;
nodes = (
"843 -150 LINE",
"882 70 LINE",
"817 70 LINE",
"928 700 LINE",
"828 700 LINE",
"717 70 LINE",
"497 70 LINE",
"608 700 LINE",
"508 700 LINE",
"397 70 LINE",
"177 70 LINE",
"288 700 LINE",
"188 700 LINE",
"65 0 LINE",
"775 0 LINE",
"763 -150 LINE"
);
}
);
width = 935;
},
{
layerId = "EFCBAD9B-4238-4620-A1C0-521E4552FF66";
paths = (
{
closed = 1;
nodes = (
"878 -150 LINE",
"920 90 LINE",
"855 90 LINE",
"963 700 LINE",
"823 700 LINE",
"715 90 LINE",
"535 90 LINE",
"643 700 LINE",
"503 700 LINE",
"395 90 LINE",
"215 90 LINE",
"323 700 LINE",
"183 700 LINE",
"60 0 LINE",
"780 0 LINE",
"773 -150 LINE"
);
}
);
width = 970;
}
);
unicode = 0429;
},
{
color = 4;
glyphname = "Dzhe-cy";
layers = (
{
layerId = UUID0;
paths = (
{
closed = 1;
nodes = (
"303 -150 LINE",
"340 0 LINE",
"515 0 LINE",
"638 700 LINE",
"538 700 LINE",
"427 70 LINE",
"177 70 LINE",
"288 700 LINE",
"188 700 LINE",
"65 0 LINE",
"240 0 LINE",
"223 -150 LINE"
);
}
);
width = 630;
},
{
layerId = "EFCBAD9B-4238-4620-A1C0-521E4552FF66";
paths = (
{
closed = 1;
nodes = (
"328 -150 LINE",
"370 0 LINE",
"550 0 LINE",
"673 700 LINE",
"533 700 LINE",
"425 90 LINE",
"215 90 LINE",
"323 700 LINE",
"183 700 LINE",
"60 0 LINE",
"240 0 LINE",
"228 -150 LINE"
);
}
);
width = 660;
}
);
unicode = 040F;
},
{
color = 4;
glyphname = "Softsign-cy";
layers = (
{
layerId = UUID0;
paths = (
{
closed = 1;
nodes = (
"255 0 LINE SMOOTH",
"422 0 OFFCURVE",
"514 79 OFFCURVE",
"538 220 CURVE",
"563 360 OFFCURVE",
"497 440 OFFCURVE",
"332 440 CURVE SMOOTH",
"242 440 LINE",
"288 700 LINE",
"188 700 LINE",
"65 0 LINE"
);
},
{
closed = 1;
nodes = (
"230 370 LINE",
"320 370 LINE",
"417 370 OFFCURVE",
"456 320 OFFCURVE",
"438 220 CURVE SMOOTH",
"421 120 OFFCURVE",
"364 70 OFFCURVE",
"267 70 CURVE SMOOTH",
"177 70 LINE"
);
}
);
width = 560;
},
{
layerId = "EFCBAD9B-4238-4620-A1C0-521E4552FF66";
paths = (
{
closed = 1;
nodes = (
"265 0 LINE SMOOTH",
"456 0 OFFCURVE",
"549 80 OFFCURVE",
"574 225 CURVE",
"601 369 OFFCURVE",
"533 450 OFFCURVE",
"344 450 CURVE SMOOTH",
"279 450 LINE",
"323 700 LINE",
"183 700 LINE",
"60 0 LINE"
);
},
{
closed = 1;
nodes = (
"263 360 LINE",
"328 360 LINE",
"419 360 OFFCURVE",
"451 321 OFFCURVE",
"434 225 CURVE SMOOTH",
"417 129 OFFCURVE",
"371 90 OFFCURVE",
"280 90 CURVE SMOOTH",
"215 90 LINE"
);
}
);
width = 595;
}
);
unicode = 042C;
},
{
color = 4;
glyphname = "Hardsign-cy";
layers = (
{
layerId = UUID0;
paths = (
{
closed = 1;
nodes = (
"315 0 LINE SMOOTH",
"482 0 OFFCURVE",
"574 79 OFFCURVE",
"598 220 CURVE",
"623 360 OFFCURVE",
"557 440 OFFCURVE",
"392 440 CURVE SMOOTH",
"302 440 LINE",
"348 700 LINE",
"108 700 LINE",
"96 630 LINE",
"236 630 LINE",
"125 0 LINE"
);
},
{
closed = 1;
nodes = (
"290 370 LINE",
"380 370 LINE",
"477 370 OFFCURVE",
"516 320 OFFCURVE",
"498 220 CURVE SMOOTH",
"481 120 OFFCURVE",
"424 70 OFFCURVE",
"327 70 CURVE SMOOTH",
"237 70 LINE"
);
}
);
width = 620;
},
{
layerId = "EFCBAD9B-4238-4620-A1C0-521E4552FF66";
paths = (
{
closed = 1;
nodes = (
"325 0 LINE",
"334 0 LINE SMOOTH",
"345 0 OFFCURVE",
"356 1 OFFCURVE",
"367 2 CURVE SMOOTH",
"526 14 OFFCURVE",
"606 92 OFFCURVE",
"629 225 CURVE",
"656 369 OFFCURVE",
"588 450 OFFCURVE",
"399 450 CURVE SMOOTH",
"334 450 LINE",
"378 700 LINE",
"108 700 LINE",
"92 610 LINE",
"222 610 LINE",
"115 0 LINE"
);
},
{
closed = 1;
nodes = (
"318 360 LINE",
"383 360 LINE",
"474 360 OFFCURVE",
"506 321 OFFCURVE",
"489 225 CURVE SMOOTH",
"472 129 OFFCURVE",
"426 90 OFFCURVE",
"335 90 CURVE SMOOTH",
"270 90 LINE"
);
}
);
width = 650;
}
);
unicode = 042A;
},
{
color = 4;
glyphname = "Yeru-cy";
layers = (
{
anchors = (
{
name = top;
position = "{499, 700}";
}
);
layerId = UUID0;
paths = (
{
closed = 1;
nodes = (
"245 0 LINE SMOOTH",
"412 0 OFFCURVE",
"504 79 OFFCURVE",
"528 220 CURVE",
"553 360 OFFCURVE",
"487 440 OFFCURVE",
"322 440 CURVE SMOOTH",
"242 440 LINE",
"288 700 LINE",
"188 700 LINE",
"65 0 LINE"
);
},
{
closed = 1;
nodes = (
"230 370 LINE",
"310 370 LINE",
"407 370 OFFCURVE",
"446 320 OFFCURVE",
"428 220 CURVE SMOOTH",
"411 120 OFFCURVE",
"354 70 OFFCURVE",
"257 70 CURVE SMOOTH",
"177 70 LINE"
);
},
{
closed = 1;
nodes = (
"685 0 LINE",
"808 700 LINE",
"708 700 LINE",
"585 0 LINE"
);
}
);
width = 800;
},
{
anchors = (
{
name = top;
position = "{517, 700}";
}
);
layerId = "EFCBAD9B-4238-4620-A1C0-521E4552FF66";
paths = (
{
closed = 1;
nodes = (
"255 0 LINE SMOOTH",
"446 0 OFFCURVE",
"539 80 OFFCURVE",
"564 225 CURVE",
"591 369 OFFCURVE",
"523 450 OFFCURVE",
"334 450 CURVE SMOOTH",
"279 450 LINE",
"323 700 LINE",
"183 700 LINE",
"60 0 LINE"
);
},
{
closed = 1;
nodes = (
"263 360 LINE",
"318 360 LINE",
"409 360 OFFCURVE",
"441 321 OFFCURVE",
"424 225 CURVE SMOOTH",
"407 129 OFFCURVE",
"361 90 OFFCURVE",
"270 90 CURVE SMOOTH",
"215 90 LINE"
);
},
{
closed = 1;
nodes = (
"745 0 LINE",
"868 700 LINE",
"728 700 LINE",
"605 0 LINE"
);
}
);
width = 855;
}
);
unicode = 042B;
},
{
color = 4;
glyphname = "Lje-cy";
layers = (
{
layerId = UUID0;
paths = (
{
closed = 1;
nodes = (
"114 -10 OFFCURVE",
"176 44 OFFCURVE",
"203 160 CURVE SMOOTH",
"311 630 LINE",
"496 630 LINE",
"385 0 LINE",
"576 0 LINE SMOOTH",
"743 0 OFFCURVE",
"835 79 OFFCURVE",
"859 220 CURVE",
"884 360 OFFCURVE",
"818 440 OFFCURVE",
"653 440 CURVE SMOOTH",
"563 440 LINE",
"609 700 LINE",
"228 700 LINE",
"103 160 LINE",
"84 84 OFFCURVE",
"55 60 OFFCURVE",
"30 60 CURVE SMOOTH",
"25 60 OFFCURVE",
"21 61 OFFCURVE",
"17 62 CURVE SMOOTH",
"11 65 LINE",
"1 65 LINE",
"-15 0 LINE",
"-11 -2 OFFCURVE",
"-6 -4 OFFCURVE",
"0 -5 CURVE SMOOTH",
"10 -8 OFFCURVE",
"23 -10 OFFCURVE",
"38 -10 CURVE SMOOTH"
);
},
{
closed = 1;
nodes = (
"551 370 LINE",
"641 370 LINE",
"738 370 OFFCURVE",
"777 320 OFFCURVE",
"759 220 CURVE SMOOTH",
"742 120 OFFCURVE",
"685 70 OFFCURVE",
"588 70 CURVE SMOOTH",
"498 70 LINE"
);
}
);
width = 881;
},
{
layerId = "EFCBAD9B-4238-4620-A1C0-521E4552FF66";
paths = (
{
closed = 1;
nodes = (
"148 -10 OFFCURVE",
"211 49 OFFCURVE",
"238 160 CURVE",
"342 610 LINE",
"492 610 LINE",
"385 0 LINE",
"595 0 LINE SMOOTH",
"786 0 OFFCURVE",
"879 80 OFFCURVE",
"904 225 CURVE",
"931 369 OFFCURVE",
"863 450 OFFCURVE",
"674 450 CURVE SMOOTH",
"604 450 LINE",
"648 700 LINE",
"223 700 LINE",
"98 160 LINE",
"83 100 OFFCURVE",
"63 80 OFFCURVE",
"39 80 CURVE SMOOTH",
"35 80 OFFCURVE",
"30 81 OFFCURVE",
"23 82 CURVE",
"14 85 LINE",
"4 85 LINE",
"-20 5 LINE",
"1 -3 LINE SMOOTH",
"14 -7 OFFCURVE",
"29 -10 OFFCURVE",
"48 -10 CURVE SMOOTH"
);
},
{
closed = 1;
nodes = (
"588 360 LINE",
"658 360 LINE",
"749 360 OFFCURVE",
"781 321 OFFCURVE",
"764 225 CURVE SMOOTH",
"747 129 OFFCURVE",
"701 90 OFFCURVE",
"610 90 CURVE SMOOTH",
"540 90 LINE"
);
}
);
width = 910;
}
);
unicode = 0409;
},
{
color = 4;
glyphname = "Nje-cy";
layers = (
{
layerId = UUID0;
paths = (
{
closed = 1;
nodes = (
"165 0 LINE",
"226 350 LINE",
"466 350 LINE",
"405 0 LINE",
"595 0 LINE SMOOTH",
"760 0 OFFCURVE",
"854 79 OFFCURVE",
"877 210 CURVE",
"898 341 OFFCURVE",
"835 420 OFFCURVE",
"669 420 CURVE SMOOTH",
"579 420 LINE",
"628 700 LINE",
"528 700 LINE",
"479 420 LINE",
"239 420 LINE",
"288 700 LINE",
"188 700 LINE",
"65 0 LINE"
);
},
{
closed = 1;
nodes = (
"566 350 LINE",
"656 350 LINE",
"752 350 OFFCURVE",
"792 301 OFFCURVE",
"777 210 CURVE SMOOTH",
"761 119 OFFCURVE",
"703 70 OFFCURVE",
"607 70 CURVE SMOOTH",
"517 70 LINE"
);
}
);
width = 900;
},
{
layerId = "EFCBAD9B-4238-4620-A1C0-521E4552FF66";
paths = (
{
closed = 1;
nodes = (
"200 0 LINE",
"259 340 LINE",
"454 340 LINE",
"395 0 LINE",
"605 0 LINE SMOOTH",
"794 0 OFFCURVE",
"889 80 OFFCURVE",
"912 215 CURVE SMOOTH",
"936 350 OFFCURVE",
"869 430 OFFCURVE",
"680 430 CURVE SMOOTH",
"610 430 LINE",
"658 700 LINE",
"518 700 LINE",
"470 430 LINE",
"275 430 LINE",
"323 700 LINE",
"183 700 LINE",
"60 0 LINE"
);
},
{
closed = 1;
nodes = (
"594 340 LINE",
"664 340 LINE",
"755 340 OFFCURVE",
"787 300 OFFCURVE",
"772 215 CURVE SMOOTH",
"757 130 OFFCURVE",
"711 90 OFFCURVE",
"620 90 CURVE SMOOTH",
"550 90 LINE"
);
}
);
width = 920;
}
);
unicode = 040A;
},
{
color = 4;
glyphname = "E-cy";
layers = (
{
layerId = UUID0;
paths = (
{
closed = 1;
nodes = (
"344 -10 OFFCURVE",
"389 2 OFFCURVE",
"421 17 CURVE SMOOTH",
"440 25 OFFCURVE",
"457 34 OFFCURVE",
"472 45 CURVE",
"448 105 LINE",
"438 105 LINE",
"426 96 OFFCURVE",
"413 89 OFFCURVE",
"400 82 CURVE SMOOTH",
"377 71 OFFCURVE",
"345 60 OFFCURVE",
"310 60 CURVE SMOOTH",
"215 60 OFFCURVE",
"157 124 OFFCURVE",
"186 320 CURVE",
"421 320 LINE",
"433 390 LINE",
"199 390 LINE",
"242 579 OFFCURVE",
"318 640 OFFCURVE",
"402 640 CURVE SMOOTH",
"437 640 OFFCURVE",
"465 628 OFFCURVE",
"484 617 CURVE SMOOTH",
"495 610 OFFCURVE",
"505 603 OFFCURVE",
"514 595 CURVE",
"524 595 LINE",
"570 655 LINE",
"559 665 OFFCURVE",
"545 674 OFFCURVE",
"529 682 CURVE SMOOTH",
"501 697 OFFCURVE",
"461 710 OFFCURVE",
"405 710 CURVE SMOOTH",
"255 710 OFFCURVE",
"136 609 OFFCURVE",
"91 350 CURVE SMOOTH",
"46 90 OFFCURVE",
"127 -10 OFFCURVE",
"288 -10 CURVE SMOOTH"
);
}
);
width = 515;
},
{
layerId = "EFCBAD9B-4238-4620-A1C0-521E4552FF66";
paths = (
{
closed = 1;
nodes = (
"360 -10 OFFCURVE",
"408 2 OFFCURVE",
"443 17 CURVE SMOOTH",
"463 25 OFFCURVE",
"481 34 OFFCURVE",
"497 45 CURVE",
"467 125 LINE",
"457 125 LINE",
"446 116 OFFCURVE",
"434 109 OFFCURVE",
"421 102 CURVE SMOOTH",
"398 91 OFFCURVE",
"366 80 OFFCURVE",
"329 80 CURVE SMOOTH",
"244 80 OFFCURVE",
"198 130 OFFCURVE",
"219 310 CURVE",
"444 310 LINE",
"460 400 LINE",
"235 400 LINE",
"275 570 OFFCURVE",
"339 620 OFFCURVE",
"414 620 CURVE SMOOTH",
"451 620 OFFCURVE",
"479 608 OFFCURVE",
"498 597 CURVE SMOOTH",
"509 590 OFFCURVE",
"519 583 OFFCURVE",
"526 575 CURVE",
"536 575 LINE",
"595 655 LINE",
"583 665 OFFCURVE",
"568 674 OFFCURVE",
"551 682 CURVE SMOOTH",
"522 697 OFFCURVE",
"477 710 OFFCURVE",
"420 710 CURVE SMOOTH",
"255 710 OFFCURVE",
"131 605 OFFCURVE",
"86 350 CURVE SMOOTH",
"41 95 OFFCURVE",
"127 -10 OFFCURVE",
"303 -10 CURVE SMOOTH"
);
}
);
width = 535;
}
);
unicode = 0404;
},
{
color = 4;
glyphname = "Ereversed-cy";
layers = (
{
layerId = UUID0;
paths = (
{
closed = 1;
nodes = (
"332 -10 OFFCURVE",
"451 90 OFFCURVE",
"496 350 CURVE SMOOTH",
"541 610 OFFCURVE",
"460 710 OFFCURVE",
"310 710 CURVE SMOOTH",
"254 710 OFFCURVE",
"208 697 OFFCURVE",
"176 682 CURVE SMOOTH",
"157 674 OFFCURVE",
"140 665 OFFCURVE",
"125 655 CURVE",
"149 595 LINE",
"159 595 LINE",
"171 603 OFFCURVE",
"184 610 OFFCURVE",
"197 617 CURVE SMOOTH",
"220 628 OFFCURVE",
"252 640 OFFCURVE",
"287 640 CURVE SMOOTH",
"373 640 OFFCURVE",
"426 579 OFFCURVE",
"402 390 CURVE",
"168 390 LINE",
"156 320 LINE",
"391 320 LINE",
"351 124 OFFCURVE",
"271 60 OFFCURVE",
"175 60 CURVE SMOOTH",
"140 60 OFFCURVE",
"112 71 OFFCURVE",
"93 82 CURVE SMOOTH",
"82 89 OFFCURVE",
"72 96 OFFCURVE",
"63 105 CURVE",
"53 105 LINE",
"7 45 LINE",
"18 34 OFFCURVE",
"32 25 OFFCURVE",
"49 17 CURVE SMOOTH",
"77 2 OFFCURVE",
"117 -10 OFFCURVE",
"173 -10 CURVE SMOOTH"
);
}
);
width = 515;
},
{
layerId = "EFCBAD9B-4238-4620-A1C0-521E4552FF66";
paths = (
{
closed = 1;
nodes = (
"354 -10 OFFCURVE",
"476 95 OFFCURVE",
"521 350 CURVE SMOOTH",
"566 605 OFFCURVE",
"479 710 OFFCURVE",
"315 710 CURVE SMOOTH",
"256 710 OFFCURVE",
"209 697 OFFCURVE",
"174 682 CURVE SMOOTH",
"154 674 OFFCURVE",
"136 665 OFFCURVE",
"120 655 CURVE",
"151 575 LINE",
"161 575 LINE",
"172 583 OFFCURVE",
"184 590 OFFCURVE",
"197 597 CURVE SMOOTH",
"220 608 OFFCURVE",
"250 620 OFFCURVE",
"289 620 CURVE SMOOTH",
"365 620 OFFCURVE",
"409 570 OFFCURVE",
"390 400 CURVE",
"165 400 LINE",
"149 310 LINE",
"374 310 LINE",
"332 130 OFFCURVE",
"269 80 OFFCURVE",
"184 80 CURVE SMOOTH",
"145 80 OFFCURVE",
"119 91 OFFCURVE",
"100 102 CURVE SMOOTH",
"89 109 OFFCURVE",
"79 116 OFFCURVE",
"72 125 CURVE",
"62 125 LINE",
"2 45 LINE",
"15 34 OFFCURVE",
"30 25 OFFCURVE",
"47 17 CURVE SMOOTH",
"78 2 OFFCURVE",
"119 -10 OFFCURVE",
"178 -10 CURVE SMOOTH"
);
}
);
width = 535;
}
);
unicode = 042D;
},
{
color = 4;
glyphname = "Tshe-cy";
layers = (
{
layerId = UUID0;
paths = (
{
closed = 1;
nodes = (
"215 0 LINE",
"279 365 LINE",
"290 367 OFFCURVE",
"302 369 OFFCURVE",
"314 372 CURVE SMOOTH",
"335 376 OFFCURVE",
"364 380 OFFCURVE",
"397 380 CURVE SMOOTH",
"482 380 OFFCURVE",
"524 331 OFFCURVE",
"509 255 CURVE",
"465 0 LINE",
"565 0 LINE",
"609 255 LINE",
"630 370 OFFCURVE",
"565 450 OFFCURVE",
"434 450 CURVE SMOOTH",
"394 450 OFFCURVE",
"359 446 OFFCURVE",
"332 442 CURVE SMOOTH",
"291 435 LINE",
"326 630 LINE",
"506 630 LINE",
"518 700 LINE",
"98 700 LINE",
"86 630 LINE",
"226 630 LINE",
"115 0 LINE"
);
}
);
width = 650;
},
{
layerId = "EFCBAD9B-4238-4620-A1C0-521E4552FF66";
paths = (
{
closed = 1;
nodes = (
"245 0 LINE",
"307 355 LINE",
"335 362 LINE SMOOTH",
"354 366 OFFCURVE",
"377 370 OFFCURVE",
"405 370 CURVE SMOOTH",
"482 370 OFFCURVE",
"513 332 OFFCURVE",
"499 255 CURVE SMOOTH",
"455 0 LINE",
"595 0 LINE",
"639 255 LINE",
"662 380 OFFCURVE",
"597 460 OFFCURVE",
"446 460 CURVE SMOOTH",
"411 460 OFFCURVE",
"381 456 OFFCURVE",
"358 452 CURVE SMOOTH",
"323 445 LINE",
"352 610 LINE",
"522 610 LINE",
"538 700 LINE",
"98 700 LINE",
"82 610 LINE",
"212 610 LINE",
"105 0 LINE"
);
}
);
width = 670;
}
);
unicode = 040B;
},
{
color = 4;
glyphname = "Iu-cy";
layers = (
{
layerId = UUID0;
paths = (
{
closed = 1;
nodes = (
"627 -10 OFFCURVE",
"746 90 OFFCURVE",
"791 350 CURVE SMOOTH",
"836 610 OFFCURVE",
"756 710 OFFCURVE",
"620 710 CURVE SMOOTH",
"490 710 OFFCURVE",
"379 620 OFFCURVE",
"328 390 CURVE",
"233 390 LINE",
"288 700 LINE",
"188 700 LINE",
"65 0 LINE",
"165 0 LINE",
"221 320 LINE",
"316 320 LINE",
"284 80 OFFCURVE",
"363 -10 OFFCURVE",
"493 -10 CURVE SMOOTH"
);
},
{
closed = 1;
nodes = (
"441 60 OFFCURVE",
"381 130 OFFCURVE",
"421 350 CURVE SMOOTH",
"461 570 OFFCURVE",
"541 640 OFFCURVE",
"607 640 CURVE SMOOTH",
"671 640 OFFCURVE",
"731 570 OFFCURVE",
"691 350 CURVE SMOOTH",
"651 130 OFFCURVE",
"571 60 OFFCURVE",
"505 60 CURVE SMOOTH"
);
}
);
width = 810;
},
{
layerId = "EFCBAD9B-4238-4620-A1C0-521E4552FF66";
paths = (
{
closed = 1;
nodes = (
"678 -10 OFFCURVE",
"801 95 OFFCURVE",
"846 350 CURVE SMOOTH",
"891 605 OFFCURVE",
"805 710 OFFCURVE",
"655 710 CURVE SMOOTH",
"509 710 OFFCURVE",
"393 610 OFFCURVE",
"345 400 CURVE",
"270 400 LINE",
"323 700 LINE",
"183 700 LINE",
"60 0 LINE",
"200 0 LINE",
"254 310 LINE",
"329 310 LINE",
"300 90 OFFCURVE",
"384 -10 OFFCURVE",
"528 -10 CURVE SMOOTH"
);
},
{
closed = 1;
nodes = (
"489 80 OFFCURVE",
"439 139 OFFCURVE",
"476 350 CURVE SMOOTH",
"513 561 OFFCURVE",
"584 620 OFFCURVE",
"639 620 CURVE SMOOTH",
"694 620 OFFCURVE",
"743 561 OFFCURVE",
"706 350 CURVE SMOOTH",
"669 139 OFFCURVE",
"599 80 OFFCURVE",
"544 80 CURVE SMOOTH"
);
}
);
width = 860;
}
);
unicode = 042E;
},
{
color = 4;
glyphname = "Ia-cy";
layers = (
{
layerId = UUID0;
paths = (
{
closed = 1;
nodes = (
"113 -10 OFFCURVE",
"154 25 OFFCURVE",
"185 90 CURVE SMOOTH",
"234 195 LINE SMOOTH",
"255 240 OFFCURVE",
"292 270 OFFCURVE",
"337 270 CURVE SMOOTH",
"402 270 LINE",
"355 0 LINE",
"455 0 LINE",
"578 700 LINE",
"403 700 LINE SMOOTH",
"232 700 OFFCURVE",
"139 621 OFFCURVE",
"115 485 CURVE SMOOTH",
"96 380 OFFCURVE",
"159 305 OFFCURVE",
"232 295 CURVE",
"220 292 OFFCURVE",
"208 286 OFFCURVE",
"196 279 CURVE SMOOTH",
"176 266 OFFCURVE",
"153 245 OFFCURVE",
"137 210 CURVE SMOOTH",
"88 105 LINE",
"75 74 OFFCURVE",
"55 60 OFFCURVE",
"40 60 CURVE SMOOTH",
"35 60 OFFCURVE",
"31 61 OFFCURVE",
"27 62 CURVE SMOOTH",
"21 65 LINE",
"16 65 LINE",
"-5 0 LINE",
"-2 -2 OFFCURVE",
"3 -4 OFFCURVE",
"9 -5 CURVE SMOOTH",
"19 -8 OFFCURVE",
"34 -10 OFFCURVE",
"53 -10 CURVE SMOOTH"
);
},
{
closed = 1;
nodes = (
"239 340 OFFCURVE",
"198 388 OFFCURVE",
"215 485 CURVE SMOOTH",
"232 582 OFFCURVE",
"291 630 OFFCURVE",
"391 630 CURVE SMOOTH",
"466 630 LINE",
"414 340 LINE",
"339 340 LINE"
);
}
);
width = 570;
},
{
layerId = "EFCBAD9B-4238-4620-A1C0-521E4552FF66";
paths = (
{
closed = 1;
nodes = (
"146 -10 OFFCURVE",
"202 35 OFFCURVE",
"226 90 CURVE",
"274 195 LINE SMOOTH",
"294 240 OFFCURVE",
"316 260 OFFCURVE",
"360 260 CURVE SMOOTH",
"405 260 LINE",
"360 0 LINE",
"500 0 LINE",
"623 700 LINE",
"427 700 LINE SMOOTH",
"236 700 OFFCURVE",
"143 620 OFFCURVE",
"118 479 CURVE SMOOTH",
"103 394 OFFCURVE",
"131 349 OFFCURVE",
"166 324 CURVE",
"185 309 OFFCURVE",
"209 300 OFFCURVE",
"237 295 CURVE",
"224 291 OFFCURVE",
"211 285 OFFCURVE",
"198 277 CURVE SMOOTH",
"175 262 OFFCURVE",
"149 240 OFFCURVE",
"130 200 CURVE SMOOTH",
"90 115 LINE SMOOTH",
"78 90 OFFCURVE",
"69 80 OFFCURVE",
"48 80 CURVE SMOOTH",
"43 80 OFFCURVE",
"39 81 OFFCURVE",
"35 82 CURVE SMOOTH",
"29 85 LINE",
"24 85 LINE",
"0 5 LINE",
"5 2 OFFCURVE",
"12 0 OFFCURVE",
"21 -3 CURVE SMOOTH",
"36 -7 OFFCURVE",
"57 -10 OFFCURVE",
"88 -10 CURVE SMOOTH"
);
},
{
closed = 1;
nodes = (
"274 350 OFFCURVE",
"242 389 OFFCURVE",
"258 480 CURVE SMOOTH",
"274 571 OFFCURVE",
"320 610 OFFCURVE",
"411 610 CURVE SMOOTH",
"467 610 LINE",
"421 350 LINE",
"365 350 LINE"
);
}
);
width = 610;
}
);
unicode = 042F;
},
{
color = 4;
glyphname = "Dje-cy";
layers = (
{
layerId = UUID0;
paths = (
{
closed = 1;
nodes = (
"495 -30 OFFCURVE",
"571 34 OFFCURVE",
"587 130 CURVE SMOOTH",
"609 255 LINE SMOOTH",
"630 370 OFFCURVE",
"565 450 OFFCURVE",
"434 450 CURVE SMOOTH",
"394 450 OFFCURVE",
"359 446 OFFCURVE",
"332 442 CURVE SMOOTH",
"291 435 LINE",
"326 630 LINE",
"506 630 LINE",
"518 700 LINE",
"98 700 LINE",
"86 630 LINE",
"226 630 LINE",
"115 0 LINE",
"215 0 LINE",
"279 365 LINE",
"290 367 OFFCURVE",
"302 369 OFFCURVE",
"314 372 CURVE SMOOTH",
"335 376 OFFCURVE",
"364 380 OFFCURVE",
"397 380 CURVE SMOOTH",
"482 380 OFFCURVE",
"524 331 OFFCURVE",
"509 255 CURVE",
"487 130 LINE SMOOTH",
"476 70 OFFCURVE",
"442 40 OFFCURVE",
"397 40 CURVE SMOOTH",
"386 40 OFFCURVE",
"376 42 OFFCURVE",
"367 45 CURVE SMOOTH",
"362 46 OFFCURVE",
"357 48 OFFCURVE",
"353 50 CURVE",
"343 50 LINE",
"322 -15 LINE",
"329 -18 OFFCURVE",
"337 -20 OFFCURVE",
"346 -23 CURVE SMOOTH",
"361 -27 OFFCURVE",
"381 -30 OFFCURVE",
"404 -30 CURVE SMOOTH"
);
}
);
width = 640;
},
{
layerId = "EFCBAD9B-4238-4620-A1C0-521E4552FF66";
paths = (
{
closed = 1;
nodes = (
"518 -30 OFFCURVE",
"603 40 OFFCURVE",
"619 140 CURVE",
"639 255 LINE",
"662 380 OFFCURVE",
"597 460 OFFCURVE",
"446 460 CURVE SMOOTH",
"411 460 OFFCURVE",
"381 456 OFFCURVE",
"358 452 CURVE SMOOTH",
"323 445 LINE",
"352 610 LINE",
"522 610 LINE",
"538 700 LINE",
"98 700 LINE",
"82 610 LINE",
"212 610 LINE",
"105 0 LINE",
"245 0 LINE",
"307 355 LINE",
"335 362 LINE SMOOTH",
"354 366 OFFCURVE",
"377 370 OFFCURVE",
"405 370 CURVE SMOOTH",
"482 370 OFFCURVE",
"513 332 OFFCURVE",
"499 255 CURVE SMOOTH",
"479 140 LINE",
"468 84 OFFCURVE",
"441 60 OFFCURVE",
"410 60 CURVE SMOOTH",
"395 60 OFFCURVE",
"384 62 OFFCURVE",
"375 65 CURVE SMOOTH",
"370 66 OFFCURVE",
"366 68 OFFCURVE",
"362 70 CURVE",
"352 70 LINE",
"323 -10 LINE",
"330 -14 OFFCURVE",
"337 -17 OFFCURVE",
"345 -20 CURVE SMOOTH",
"360 -25 OFFCURVE",
"379 -30 OFFCURVE",
"404 -30 CURVE SMOOTH"
);
}
);
width = 670;
}
);
unicode = 0402;
},
{
color = 4;
glyphname = "Yat-cy";
layers = (
{
layerId = UUID0;
paths = (
{
closed = 1;
nodes = (
"315 0 LINE SMOOTH",
"482 0 OFFCURVE",
"574 79 OFFCURVE",
"599 220 CURVE SMOOTH",
"624 361 OFFCURVE",
"560 440 OFFCURVE",
"393 440 CURVE SMOOTH",
"303 440 LINE",
"354 730 LINE",
"254 730 LINE",
"125 0 LINE"
);
},
{
closed = 1;
nodes = (
"290 370 LINE",
"380 370 LINE",
"477 370 OFFCURVE",
"516 320 OFFCURVE",
"499 220 CURVE SMOOTH",
"481 120 OFFCURVE",
"424 70 OFFCURVE",
"327 70 CURVE SMOOTH",
"237 70 LINE"
);
},
{
closed = 1;
nodes = (
"519 530 LINE",
"532 600 LINE",
"82 600 LINE",
"69 530 LINE"
);
}
);
width = 621;
},
{
background = {
paths = (
{
closed = 1;
nodes = (
"396 530 LINE",
"396 620 LINE",
"-14 620 LINE",
"-14 530 LINE"
);
},
{
closed = 1;
nodes = (
"305 360 LINE",
"396 360 OFFCURVE",
"435 321 OFFCURVE",
"435 225 CURVE SMOOTH",
"435 129 OFFCURVE",
"396 90 OFFCURVE",
"305 90 CURVE SMOOTH",
"240 90 LINE",
"240 360 LINE"
);
},
{
closed = 1;
nodes = (
"240 450 LINE",
"240 730 LINE",
"100 730 LINE",
"100 0 LINE",
"305 0 LINE SMOOTH",
"494 0 OFFCURVE",
"575 80 OFFCURVE",
"575 225 CURVE SMOOTH",
"575 370 OFFCURVE",
"494 450 OFFCURVE",
"305 450 CURVE SMOOTH"
);
}
);
};
layerId = "EFCBAD9B-4238-4620-A1C0-521E4552FF66";
paths = (
{
closed = 1;
nodes = (
"305 0 LINE SMOOTH",
"494 0 OFFCURVE",
"589 80 OFFCURVE",
"615 225 CURVE SMOOTH",
"640 370 OFFCURVE",
"573 450 OFFCURVE",
"384 450 CURVE SMOOTH",
"319 450 LINE",
"369 730 LINE",
"229 730 LINE",
"100 0 LINE"
);
},
{
closed = 1;
nodes = (
"303 360 LINE",
"368 360 LINE",
"459 360 OFFCURVE",
"492 321 OFFCURVE",
"475 225 CURVE SMOOTH",
"458 129 OFFCURVE",
"412 90 OFFCURVE",
"321 90 CURVE SMOOTH",
"256 90 LINE"
);
},
{
closed = 1;
nodes = (
"509 530 LINE",
"525 620 LINE",
"75 620 LINE",
"59 530 LINE"
);
}
);
width = 636;
}
);
rightMetricsKey = "Softsign-cy";
unicode = 0462;
},
{
color = 4;
glyphname = "Yusbig-cy";
layers = (
{
background = {
paths = (
{
closed = 1;
nodes = (
"587 700 LINE",
"127 700 LINE",
"127 630 LINE",
"587 630 LINE"
);
},
{
closed = 1;
nodes = (
"178 700 LINE",
"78 700 LINE",
"323 294 LINE",
"411 294 LINE",
"656 700 LINE",
"556 700 LINE",
"369 395 LINE",
"365 395 LINE"
);
}
);
};
guideLines = (
{
angle = 90;
position = "{346, 163}";
},
{
angle = 90;
position = "{446, 163}";
}
);
layerId = UUID0;
paths = (
{
closed = 1;
nodes = (
"85 -10 OFFCURVE",
"129 30 OFFCURVE",
"153 90 CURVE SMOOTH",
"216 250 LINE SMOOTH",
"235 295 OFFCURVE",
"268 325 OFFCURVE",
"319 325 CURVE SMOOTH",
"374 325 LINE",
"317 0 LINE",
"417 0 LINE",
"474 325 LINE",
"529 325 LINE SMOOTH",
"580 325 OFFCURVE",
"612 295 OFFCURVE",
"614 250 CURVE SMOOTH",
"621 90 LINE SMOOTH",
"624 30 OFFCURVE",
"645 -10 OFFCURVE",
"710 -10 CURVE SMOOTH",
"734 -10 OFFCURVE",
"755 -6 OFFCURVE",
"772 0 CURVE",
"773 65 LINE",
"768 65 LINE",
"760 61 OFFCURVE",
"756 60 OFFCURVE",
"748 60 CURVE SMOOTH",
"728 60 OFFCURVE",
"717 75 OFFCURVE",
"716 105 CURVE SMOOTH",
"709 265 LINE SMOOTH",
"702 348 OFFCURVE",
"690 394 OFFCURVE",
"547 394 CURVE",
"792 700 LINE",
"171 700 LINE",
"339 393 LINE",
"204 393 OFFCURVE",
"149 337 OFFCURVE",
"119 265 CURVE SMOOTH",
"56 105 LINE SMOOTH",
"43 75 OFFCURVE",
"27 60 OFFCURVE",
"8 60 CURVE SMOOTH",
"-1 60 OFFCURVE",
"-5 61 OFFCURVE",
"-12 65 CURVE",
"-17 65 LINE",
"-38 0 LINE",
"-24 -6 OFFCURVE",
"-9 -10 OFFCURVE",
"20 -10 CURVE SMOOTH"
);
},
{
closed = 1;
nodes = (
"303 630 LINE",
"636 630 LINE",
"438 375 LINE",
"434 375 LINE"
);
}
);
width = 822;
},
{
background = {
paths = (
{
closed = 1;
nodes = (
"583 700 LINE",
"163 700 LINE",
"163 610 LINE",
"583 610 LINE"
);
}
);
};
layerId = "EFCBAD9B-4238-4620-A1C0-521E4552FF66";
paths = (
{
closed = 1;
nodes = (
"111 -10 OFFCURVE",
"158 34 OFFCURVE",
"179 90 CURVE SMOOTH",
"242 250 LINE SMOOTH",
"262 295 OFFCURVE",
"288 315 OFFCURVE",
"339 315 CURVE SMOOTH",
"374 315 LINE",
"318 0 LINE",
"458 0 LINE",
"514 315 LINE",
"549 315 LINE SMOOTH",
"606 315 OFFCURVE",
"627 295 OFFCURVE",
"632 250 CURVE SMOOTH",
"639 90 LINE SMOOTH",
"640 34 OFFCURVE",
"668 -10 OFFCURVE",
"726 -10 CURVE SMOOTH",
"756 -10 OFFCURVE",
"781 -8 OFFCURVE",
"814 5 CURVE",
"818 85 LINE",
"813 85 LINE",
"806 81 OFFCURVE",
"802 80 OFFCURVE",
"793 80 CURVE SMOOTH",
"774 80 OFFCURVE",
"764 92 OFFCURVE",
"763 115 CURVE SMOOTH",
"758 255 LINE SMOOTH",
"752 343 OFFCURVE",
"680 368 OFFCURVE",
"576 374 CURVE",
"852 700 LINE",
"180 700 LINE",
"332 373 LINE",
"204 365 OFFCURVE",
"139 331 OFFCURVE",
"108 255 CURVE SMOOTH",
"53 115 LINE SMOOTH",
"44 92 OFFCURVE",
"30 80 OFFCURVE",
"11 80 CURVE SMOOTH",
"5 80 OFFCURVE",
"0 81 OFFCURVE",
"-7 85 CURVE",
"-12 85 LINE",
"-36 5 LINE",
"-9 -7 OFFCURVE",
"11 -10 OFFCURVE",
"46 -10 CURVE SMOOTH"
);
},
{
closed = 1;
nodes = (
"342 610 LINE",
"645 610 LINE",
"453 365 LINE",
"449 365 LINE"
);
}
);
width = 864;
}
);
leftMetricsKey = "=|Ka-cy";
rightMetricsKey = "Ka-cy";
unicode = 046A;
},
{
color = 4;
glyphname = "Izhitsa-cy";
layers = (
{
background = {
paths = (
{
closed = 1;
nodes = (
"529 640 OFFCURVE",
"535 638 OFFCURVE",
"541 635 CURVE",
"545 635 LINE",
"550 700 LINE",
"534 706 OFFCURVE",
"519 710 OFFCURVE",
"495 710 CURVE SMOOTH",
"419 710 OFFCURVE",
"391 658 OFFCURVE",
"360 540 CURVE SMOOTH",
"262 165 LINE",
"315 0 LINE",
"460 540 LINE SMOOTH",
"482 622 OFFCURVE",
"497 640 OFFCURVE",
"520 640 CURVE SMOOTH"
);
}
);
};
layerId = UUID0;
paths = (
{
closed = 1;
nodes = (
"310 0 LINE",
"550 540 LINE SMOOTH",
"587 622 OFFCURVE",
"610 640 OFFCURVE",
"633 640 CURVE SMOOTH",
"642 640 OFFCURVE",
"647 638 OFFCURVE",
"653 635 CURVE",
"657 635 LINE",
"673 700 LINE",
"658 706 OFFCURVE",
"644 710 OFFCURVE",
"620 710 CURVE SMOOTH",
"544 710 OFFCURVE",
"506 658 OFFCURVE",
"455 540 CURVE SMOOTH",
"293 169 LINE SMOOTH",
"284 149 OFFCURVE",
"276 131 OFFCURVE",
"268 99 CURVE",
"264 99 LINE",
"266 131 OFFCURVE",
"265 149 OFFCURVE",
"263 169 CURVE SMOOTH",
"213 700 LINE",
"113 700 LINE",
"185 0 LINE"
);
}
);
width = 574;
},
{
background = {
paths = (
{
closed = 1;
nodes = (
"523 621 OFFCURVE",
"546 621 CURVE SMOOTH",
"552 621 OFFCURVE",
"559 619 OFFCURVE",
"566 615 CURVE",
"572 615 LINE",
"582 695 LINE",
"553 706 OFFCURVE",
"539 710 OFFCURVE",
"512 710 CURVE SMOOTH",
"412 710 OFFCURVE",
"376 649 OFFCURVE",
"352 540 CURVE SMOOTH",
"281 223 LINE",
"349 0 LINE",
"492 540 LINE SMOOTH",
"507 597 OFFCURVE"
);
}
);
};
layerId = "EFCBAD9B-4238-4620-A1C0-521E4552FF66";
paths = (
{
closed = 1;
nodes = (
"340 0 LINE",
"577 540 LINE SMOOTH",
"601 593 OFFCURVE",
"629 621 OFFCURVE",
"655 621 CURVE SMOOTH",
"662 621 OFFCURVE",
"669 619 OFFCURVE",
"675 615 CURVE",
"680 615 LINE",
"705 695 LINE",
"677 706 OFFCURVE",
"664 710 OFFCURVE",
"637 710 CURVE SMOOTH",
"537 710 OFFCURVE",
"492 648 OFFCURVE",
"447 540 CURVE SMOOTH",
"320 234 LINE SMOOTH",
"310 209 OFFCURVE",
"303 193 OFFCURVE",
"294 159 CURVE",
"290 159 LINE",
"293 190 OFFCURVE",
"292 212 OFFCURVE",
"290 234 CURVE SMOOTH",
"243 700 LINE",
"113 700 LINE",
"190 0 LINE"
);
}
);
width = 607;
}
);
leftMetricsKey = V;
unicode = 0474;
},
{
color = 4;
glyphname = "Ghemiddlehook-cy";
layers = (
{
components = (
{
name = "Ge-cy";
}
);
layerId = UUID0;
paths = (
{
closed = 1;
nodes = (
"430 -100 OFFCURVE",
"506 -36 OFFCURVE",
"523 60 CURVE SMOOTH",
"550 215 LINE SMOOTH",
"570 330 OFFCURVE",
"505 410 OFFCURVE",
"374 410 CURVE SMOOTH",
"331 410 OFFCURVE",
"305 407 OFFCURVE",
"232 395 CURVE",
"219 325 LINE",
"275 336 OFFCURVE",
"302 340 OFFCURVE",
"337 340 CURVE SMOOTH",
"422 340 OFFCURVE",
"463 291 OFFCURVE",
"450 215 CURVE SMOOTH",
"423 60 LINE SMOOTH",
"413 0 OFFCURVE",
"377 -30 OFFCURVE",
"332 -30 CURVE SMOOTH",
"322 -30 OFFCURVE",
"312 -27 OFFCURVE",
"303 -25 CURVE SMOOTH",
"298 -24 OFFCURVE",
"293 -22 OFFCURVE",
"288 -20 CURVE",
"278 -20 LINE",
"257 -85 LINE",
"264 -88 OFFCURVE",
"273 -90 OFFCURVE",
"282 -93 CURVE SMOOTH",
"297 -98 OFFCURVE",
"316 -100 OFFCURVE",
"339 -100 CURVE SMOOTH"
);
}
);
width = 580;
},
{
components = (
{
name = "Ge-cy";
}
);
layerId = "EFCBAD9B-4238-4620-A1C0-521E4552FF66";
paths = (
{
closed = 1;
nodes = (
"460 -100 OFFCURVE",
"541 -30 OFFCURVE",
"559 70 CURVE SMOOTH",
"583 205 LINE SMOOTH",
"605 330 OFFCURVE",
"540 410 OFFCURVE",
"389 410 CURVE SMOOTH",
"338 410 OFFCURVE",
"328 406 OFFCURVE",
"267 395 CURVE",
"251 305 LINE",
"299 316 OFFCURVE",
"316 320 OFFCURVE",
"348 320 CURVE SMOOTH",
"425 320 OFFCURVE",
"457 282 OFFCURVE",
"443 205 CURVE SMOOTH",
"419 70 LINE SMOOTH",
"409 14 OFFCURVE",
"381 -10 OFFCURVE",
"350 -10 CURVE SMOOTH",
"334 -10 OFFCURVE",
"318 -9 OFFCURVE",
"302 0 CURVE",
"292 0 LINE",
"263 -80 LINE",
"281 -92 OFFCURVE",
"308 -100 OFFCURVE",
"344 -100 CURVE SMOOTH"
);
}
);
width = 610;
}
);
unicode = 0494;
},
{
color = 4;
glyphname = "Zhedescender-cy";
layers = (
{
components = (
{
name = "Zhe-cy";
}
);
layerId = UUID0;
paths = (
{
closed = 1;
nodes = (
"784 -150 LINE",
"810 0 LINE",
"715 0 LINE",
"704 -150 LINE"
);
}
);
width = 860;
},
{
components = (
{
name = "Zhe-cy";
}
);
layerId = "EFCBAD9B-4238-4620-A1C0-521E4552FF66";
paths = (
{
closed = 1;
nodes = (
"823 -150 LINE",
"850 5 LINE",
"724 0 LINE",
"718 -150 LINE"
);
}
);
width = 900;
}
);
unicode = 0496;
},
{
color = 4;
glyphname = "Zedescender-cy";
layers = (
{
components = (
{
name = "Ze-cy";
}
);
layerId = UUID0;
paths = (
{
closed = 1;
nodes = (
"244 -150 LINE",
"270 0 LINE",
"175 0 LINE",
"164 -150 LINE"
);
}
);
width = 520;
},
{
components = (
{
name = "Ze-cy";
}
);
layerId = "EFCBAD9B-4238-4620-A1C0-521E4552FF66";
paths = (
{
closed = 1;
nodes = (
"264 -150 LINE",
"291 5 LINE",
"165 0 LINE",
"159 -150 LINE"
);
}
);
width = 535;
}
);
unicode = 0498;
},
{
color = 4;
glyphname = "Kadescender-cy";
layers = (
{
components = (
{
name = "Ka-cy";
}
);
layerId = UUID0;
paths = (
{
closed = 1;
nodes = (
"509 -150 LINE",
"535 0 LINE",
"440 0 LINE",
"429 -150 LINE"
);
}
);
width = 585;
},
{
components = (
{
name = "Ka-cy";
}
);
layerId = "EFCBAD9B-4238-4620-A1C0-521E4552FF66";
paths = (
{
closed = 1;
nodes = (
"538 -150 LINE",
"565 5 LINE",
"439 0 LINE",
"433 -150 LINE"
);
}
);
width = 615;
}
);
unicode = 049A;
},
{
color = 4;
glyphname = "Kaverticalstroke-cy";
layers = (
{
background = {
paths = (
{
closed = 1;
nodes = (
"430 368 OFFCURVE",
"446 373 OFFCURVE",
"461 380 CURVE SMOOTH",
"486 392 OFFCURVE",
"515 415 OFFCURVE",
"530 455 CURVE",
"579 595 LINE SMOOTH",
"590 625 OFFCURVE",
"606 640 OFFCURVE",
"627 640 CURVE SMOOTH",
"632 640 OFFCURVE",
"636 638 OFFCURVE",
"640 637 CURVE SMOOTH",
"646 635 LINE",
"651 635 LINE",
"673 700 LINE",
"659 705 LINE SMOOTH",
"648 709 OFFCURVE",
"635 710 OFFCURVE",
"615 710 CURVE SMOOTH",
"555 710 OFFCURVE",
"511 670 OFFCURVE",
"490 610 CURVE SMOOTH",
"440 470 LINE SMOOTH",
"424 425 OFFCURVE",
"385 395 OFFCURVE",
"324 395 CURVE SMOOTH",
"264 395 LINE",
"318 700 LINE",
"218 700 LINE",
"95 0 LINE",
"195 0 LINE",
"252 325 LINE",
"322 325 LINE SMOOTH",
"380 325 OFFCURVE",
"405 295 OFFCURVE",
"407 250 CURVE SMOOTH",
"413 90 LINE SMOOTH",
"415 30 OFFCURVE",
"445 -10 OFFCURVE",
"503 -10 CURVE SMOOTH",
"522 -10 OFFCURVE",
"537 -7 OFFCURVE",
"549 -5 CURVE SMOOTH",
"555 -4 OFFCURVE",
"560 -2 OFFCURVE",
"565 0 CURVE",
"566 65 LINE",
"561 65 LINE",
"554 62 LINE",
"549 61 OFFCURVE",
"544 60 OFFCURVE",
"540 60 CURVE SMOOTH",
"521 60 OFFCURVE",
"510 75 OFFCURVE",
"508 105 CURVE",
"501 265 LINE",
"498 308 OFFCURVE",
"477 333 OFFCURVE",
"456 347 CURVE SMOOTH",
"444 355 OFFCURVE",
"430 361 OFFCURVE",
"414 365 CURVE"
);
}
);
};
components = (
{
name = "verticalbar-cy.case";
transform = "{1, 0, 0, 1, 192, -17}";
}
);
layerId = UUID0;
paths = (
{
closed = 1;
nodes = (
"526 -10 OFFCURVE",
"548 -7 OFFCURVE",
"565 0 CURVE",
"566 65 LINE",
"561 65 LINE",
"554 61 OFFCURVE",
"549 60 OFFCURVE",
"541 60 CURVE SMOOTH",
"521 60 OFFCURVE",
"510 75 OFFCURVE",
"509 105 CURVE SMOOTH",
"502 265 LINE SMOOTH",
"500 309 OFFCURVE",
"478 332 OFFCURVE",
"456 347 CURVE SMOOTH",
"444 355 OFFCURVE",
"430 361 OFFCURVE",
"414 365 CURVE",
"432 368 OFFCURVE",
"448 373 OFFCURVE",
"462 380 CURVE SMOOTH",
"487 392 OFFCURVE",
"516 415 OFFCURVE",
"530 455 CURVE SMOOTH",
"580 595 LINE SMOOTH",
"591 626 OFFCURVE",
"608 640 OFFCURVE",
"628 640 CURVE SMOOTH",
"633 640 OFFCURVE",
"637 638 OFFCURVE",
"641 637 CURVE SMOOTH",
"644 636 OFFCURVE",
"646 636 OFFCURVE",
"647 635 CURVE",
"652 635 LINE",
"673 700 LINE",
"659 705 LINE SMOOTH",
"649 709 OFFCURVE",
"635 710 OFFCURVE",
"615 710 CURVE SMOOTH",
"555 710 OFFCURVE",
"511 669 OFFCURVE",
"490 610 CURVE SMOOTH",
"440 470 LINE SMOOTH",
"424 425 OFFCURVE",
"386 395 OFFCURVE",
"325 395 CURVE SMOOTH",
"235 395 LINE",
"288 700 LINE",
"188 700 LINE",
"65 0 LINE",
"165 0 LINE",
"222 325 LINE",
"322 325 LINE SMOOTH",
"380 325 OFFCURVE",
"403 295 OFFCURVE",
"406 250 CURVE",
"413 90 LINE SMOOTH",
"416 30 OFFCURVE",
"445 -10 OFFCURVE",
"503 -10 CURVE SMOOTH"
);
}
);
width = 615;
},
{
background = {
paths = (
{
closed = 1;
nodes = (
"461 368 OFFCURVE",
"477 374 OFFCURVE",
"493 383 CURVE SMOOTH",
"519 398 OFFCURVE",
"550 423 OFFCURVE",
"568 470 CURVE SMOOTH",
"613 585 LINE SMOOTH",
"622 608 OFFCURVE",
"635 620 OFFCURVE",
"654 620 CURVE SMOOTH",
"659 620 OFFCURVE",
"664 618 OFFCURVE",
"668 617 CURVE SMOOTH",
"671 616 OFFCURVE",
"673 616 OFFCURVE",
"673 615 CURVE",
"678 615 LINE",
"703 695 LINE",
"680 702 LINE SMOOTH",
"665 707 OFFCURVE",
"645 710 OFFCURVE",
"620 710 CURVE SMOOTH",
"549 710 OFFCURVE",
"500 666 OFFCURVE",
"478 610 CURVE SMOOTH",
"424 475 LINE SMOOTH",
"404 424 OFFCURVE",
"382 405 OFFCURVE",
"301 405 CURVE SMOOTH",
"271 405 LINE",
"323 700 LINE",
"183 700 LINE",
"60 0 LINE",
"200 0 LINE",
"256 315 LINE",
"301 315 LINE SMOOTH",
"376 315 OFFCURVE",
"391 295 OFFCURVE",
"394 250 CURVE",
"401 90 LINE SMOOTH",
"403 34 OFFCURVE",
"437 -10 OFFCURVE",
"508 -10 CURVE SMOOTH",
"535 -10 OFFCURVE",
"557 -7 OFFCURVE",
"572 -3 CURVE",
"596 5 LINE",
"600 85 LINE",
"595 85 LINE",
"588 82 LINE",
"583 81 OFFCURVE",
"578 80 OFFCURVE",
"575 80 CURVE SMOOTH",
"556 80 OFFCURVE",
"546 92 OFFCURVE",
"545 115 CURVE SMOOTH",
"540 255 LINE",
"537 302 OFFCURVE",
"515 330 OFFCURVE",
"491 346 CURVE SMOOTH",
"478 355 OFFCURVE",
"462 362 OFFCURVE",
"444 365 CURVE"
);
},
{
closed = 1;
nodes = (
"269 200 LINE",
"327 200 LINE",
"380 500 LINE",
"322 500 LINE"
);
}
);
};
components = (
{
name = "verticalbar-cy.case";
transform = "{1, 0, 0, 1, 180, -17}";
}
);
layerId = "EFCBAD9B-4238-4620-A1C0-521E4552FF66";
paths = (
{
closed = 1;
nodes = (
"535 -10 OFFCURVE",
"557 -7 OFFCURVE",
"572 -3 CURVE",
"596 5 LINE",
"600 85 LINE",
"595 85 LINE",
"588 82 LINE",
"583 81 OFFCURVE",
"578 80 OFFCURVE",
"575 80 CURVE SMOOTH",
"556 80 OFFCURVE",
"546 92 OFFCURVE",
"545 115 CURVE SMOOTH",
"540 255 LINE",
"537 302 OFFCURVE",
"515 330 OFFCURVE",
"491 346 CURVE SMOOTH",
"478 355 OFFCURVE",
"462 362 OFFCURVE",
"444 365 CURVE",
"461 368 OFFCURVE",
"477 374 OFFCURVE",
"493 383 CURVE SMOOTH",
"519 398 OFFCURVE",
"550 423 OFFCURVE",
"568 470 CURVE SMOOTH",
"613 585 LINE SMOOTH",
"622 608 OFFCURVE",
"635 620 OFFCURVE",
"654 620 CURVE SMOOTH",
"659 620 OFFCURVE",
"664 618 OFFCURVE",
"668 617 CURVE SMOOTH",
"671 616 OFFCURVE",
"673 616 OFFCURVE",
"673 615 CURVE",
"678 615 LINE",
"703 695 LINE",
"680 702 LINE SMOOTH",
"665 707 OFFCURVE",
"645 710 OFFCURVE",
"620 710 CURVE SMOOTH",
"549 710 OFFCURVE",
"500 666 OFFCURVE",
"478 610 CURVE SMOOTH",
"424 475 LINE SMOOTH",
"404 424 OFFCURVE",
"382 405 OFFCURVE",
"301 405 CURVE SMOOTH",
"271 405 LINE",
"323 700 LINE",
"183 700 LINE",
"60 0 LINE",
"200 0 LINE",
"256 315 LINE",
"301 315 LINE SMOOTH",
"376 315 OFFCURVE",
"391 295 OFFCURVE",
"394 250 CURVE",
"401 90 LINE SMOOTH",
"403 34 OFFCURVE",
"437 -10 OFFCURVE",
"508 -10 CURVE SMOOTH"
);
}
);
width = 646;
}
);
leftMetricsKey = "En-cy";
rightMetricsKey = "Ka-cy";
unicode = 049C;
},
{
color = 4;
glyphname = "Kabashkir-cy";
layers = (
{
components = (
{
name = "Ka-cy";
transform = "{1, 0, 0, 1, 110, 0}";
}
);
layerId = UUID0;
paths = (
{
closed = 1;
nodes = (
"286 630 LINE",
"398 700 LINE",
"108 700 LINE",
"96 630 LINE"
);
}
);
width = 695;
},
{
components = (
{
name = "Ka-cy";
transform = "{1, 0, 0, 1, 136, 0}";
}
);
layerId = "EFCBAD9B-4238-4620-A1C0-521E4552FF66";
paths = (
{
closed = 1;
nodes = (
"303 610 LINE",
"458 700 LINE",
"108 700 LINE",
"93 610 LINE"
);
}
);
width = 751;
}
);
leftMetricsKey = T;
rightMetricsKey = "Ka-cy";
unicode = 04A0;
},
{
color = 4;
glyphname = "Esdescender-cy";
layers = (
{
components = (
{
name = "Es-cy";
}
);
layerId = UUID0;
paths = (
{
closed = 1;
nodes = (
"301 -150 LINE",
"327 0 LINE",
"232 0 LINE",
"221 -150 LINE"
);
}
);
width = 515;
},
{
components = (
{
name = "Es-cy";
}
);
layerId = "EFCBAD9B-4238-4620-A1C0-521E4552FF66";
paths = (
{
closed = 1;
nodes = (
"324 -150 LINE",
"351 5 LINE",
"225 0 LINE",
"219 -150 LINE"
);
}
);
width = 535;
}
);
unicode = 04AA;
},
{
color = 4;
glyphname = "Chekhakassian-cy";
layers = (
{
components = (
{
name = "Che-cy";
}
);
layerId = UUID0;
paths = (
{
closed = 1;
nodes = (
"374 -150 LINE",
"415 0 LINE",
"485 0 LINE",
"497 70 LINE",
"332 70 LINE",
"294 -150 LINE"
);
}
);
width = 600;
},
{
components = (
{
name = "Che-cy";
}
);
layerId = "EFCBAD9B-4238-4620-A1C0-521E4552FF66";
paths = (
{
closed = 1;
nodes = (
"394 -150 LINE",
"440 0 LINE",
"520 0 LINE",
"536 90 LINE",
"331 90 LINE",
"289 -150 LINE"
);
}
);
width = 630;
}
);
leftMetricsKey = "Che-cy";
rightMetricsKey = "En-cy";
unicode = 04CB;
},
{
color = 4;
glyphname = "Schwa-cy";
layers = (
{
background = {
components = (
{
name = O;
transform = "{1, 0, 0, 1, -4, 0}";
}
);
};
layerId = UUID0;
paths = (
{
closed = 1;
nodes = (
"419 -10 OFFCURVE",
"531 105 OFFCURVE",
"571 340 CURVE SMOOTH",
"618 612 OFFCURVE",
"546 710 OFFCURVE",
"392 710 CURVE SMOOTH",
"311 710 OFFCURVE",
"238 683 OFFCURVE",
"162 623 CURVE",
"183 577 LINE",
"197 577 LINE",
"271 627 OFFCURVE",
"319 640 OFFCURVE",
"382 640 CURVE SMOOTH",
"483 640 OFFCURVE",
"506 546 OFFCURVE",
"475 366 CURVE SMOOTH",
"471 348 LINE SMOOTH",
"436 145 OFFCURVE",
"370 61 OFFCURVE",
"285 61 CURVE SMOOTH",
"195 61 OFFCURVE",
"151 137 OFFCURVE",
"183 320 CURVE",
"502 320 LINE",
"515 390 LINE",
"126 390 LINE",
"93 362 LINE",
"89 341 LINE SMOOTH",
"44 103 OFFCURVE",
"122 -10 OFFCURVE",
"272 -10 CURVE SMOOTH"
);
}
);
width = 592;
},
{
background = {
components = (
{
name = O;
transform = "{1, 0, 0, 1, -5, 0}";
}
);
guideLines = (
{
position = "{265, 620}";
}
);
};
guideLines = (
{
position = "{275, 80}";
},
{
position = "{265, 620}";
}
);
layerId = "EFCBAD9B-4238-4620-A1C0-521E4552FF66";
paths = (
{
closed = 1;
nodes = (
"446 -11 OFFCURVE",
"567 105 OFFCURVE",
"610 350 CURVE SMOOTH",
"652 588 OFFCURVE",
"579 710 OFFCURVE",
"403 710 CURVE SMOOTH",
"317 710 OFFCURVE",
"245 683 OFFCURVE",
"166 624 CURVE",
"192 564 LINE",
"206 564 LINE",
"245 596 OFFCURVE",
"314 620 OFFCURVE",
"373 620 CURVE SMOOTH",
"484 620 OFFCURVE",
"517 534 OFFCURVE",
"490 377 CURVE SMOOTH",
"483 336 LINE SMOOTH",
"454 165 OFFCURVE",
"396 80 OFFCURVE",
"304 80 CURVE SMOOTH",
"216 80 OFFCURVE",
"173 155 OFFCURVE",
"203 310 CURVE",
"523 310 LINE",
"539 400 LINE",
"137 400 LINE",
"87 358 LINE",
"83 336 LINE SMOOTH",
"41 105 OFFCURVE",
"128 -11 OFFCURVE",
"288 -11 CURVE SMOOTH"
);
}
);
width = 624;
}
);
leftMetricsKey = O;
rightMetricsKey = O;
unicode = 04D8;
},
{
color = 4;
glyphname = "be-cy";
layers = (
{
layerId = UUID0;
paths = (
{
closed = 1;
nodes = (
"363 -10 OFFCURVE",
"463 74 OFFCURVE",
"490 230 CURVE SMOOTH",
"517 386 OFFCURVE",
"447 470 OFFCURVE",
"347 470 CURVE SMOOTH",
"282 470 OFFCURVE",
"227 441 OFFCURVE",
"188 390 CURVE",
"212 526 OFFCURVE",
"277 581 OFFCURVE",
"411 605 CURVE SMOOTH",
"556 630 LINE",
"556 715 LINE",
"411 690 LINE SMOOTH",
"226 658 OFFCURVE",
"132 581 OFFCURVE",
"87 325 CURVE SMOOTH",
"70 230 LINE SMOOTH",
"43 74 OFFCURVE",
"113 -10 OFFCURVE",
"238 -10 CURVE SMOOTH"
);
},
{
closed = 1;
nodes = (
"190 60 OFFCURVE",
"149 110 OFFCURVE",
"170 230 CURVE SMOOTH",
"190 345 OFFCURVE",
"249 395 OFFCURVE",
"309 395 CURVE SMOOTH",
"370 395 OFFCURVE",
"409 345 OFFCURVE",
"390 230 CURVE SMOOTH",
"369 110 OFFCURVE",
"310 60 OFFCURVE",
"250 60 CURVE SMOOTH"
);
}
);
width = 525;
},
{
layerId = "EFCBAD9B-4238-4620-A1C0-521E4552FF66";
paths = (
{
closed = 1;
nodes = (
"398 -10 OFFCURVE",
"498 74 OFFCURVE",
"525 230 CURVE SMOOTH",
"552 386 OFFCURVE",
"482 470 OFFCURVE",
"362 470 CURVE SMOOTH",
"297 470 OFFCURVE",
"242 441 OFFCURVE",
"202 385 CURVE",
"223 511 OFFCURVE",
"284 561 OFFCURVE",
"428 585 CURVE SMOOTH",
"582 610 LINE",
"581 715 LINE",
"426 690 LINE SMOOTH",
"231 658 OFFCURVE",
"125 570 OFFCURVE",
"82 325 CURVE SMOOTH",
"65 230 LINE SMOOTH",
"38 74 OFFCURVE",
"108 -10 OFFCURVE",
"253 -10 CURVE SMOOTH"
);
},
{
closed = 1;
nodes = (
"218 80 OFFCURVE",
"186 121 OFFCURVE",
"205 230 CURVE SMOOTH",
"224 335 OFFCURVE",
"271 375 OFFCURVE",
"321 375 CURVE SMOOTH",
"372 375 OFFCURVE",
"404 335 OFFCURVE",
"385 230 CURVE SMOOTH",
"366 121 OFFCURVE",
"319 80 OFFCURVE",
"269 80 CURVE SMOOTH"
);
}
);
width = 555;
}
);
unicode = 0431;
},
{
color = 4;
glyphname = "ve-cy";
layers = (
{
layerId = UUID0;
paths = (
{
closed = 1;
nodes = (
"240 0 LINE SMOOTH",
"381 0 OFFCURVE",
"450 60 OFFCURVE",
"463 135 CURVE",
"474 190 OFFCURVE",
"450 221 OFFCURVE",
"424 239 CURVE SMOOTH",
"409 249 OFFCURVE",
"391 256 OFFCURVE",
"370 260 CURVE",
"388 265 OFFCURVE",
"405 272 OFFCURVE",
"421 281 CURVE SMOOTH",
"448 297 OFFCURVE",
"477 325 OFFCURVE",
"485 370 CURVE SMOOTH",
"496 439 OFFCURVE",
"449 500 OFFCURVE",
"328 500 CURVE SMOOTH",
"138 500 LINE",
"50 0 LINE"
);
},
{
closed = 1;
nodes = (
"188 220 LINE",
"278 220 LINE",
"349 220 OFFCURVE",
"373 190 OFFCURVE",
"365 145 CURVE SMOOTH",
"357 100 OFFCURVE",
"323 70 OFFCURVE",
"252 70 CURVE SMOOTH",
"162 70 LINE"
);
},
{
closed = 1;
nodes = (
"225 430 LINE",
"315 430 LINE",
"366 430 OFFCURVE",
"390 400 OFFCURVE",
"383 360 CURVE SMOOTH",
"376 320 OFFCURVE",
"342 290 OFFCURVE",
"291 290 CURVE SMOOTH",
"201 290 LINE"
);
}
);
width = 510;
},
{
layerId = "EFCBAD9B-4238-4620-A1C0-521E4552FF66";
paths = (
{
closed = 1;
nodes = (
"245 0 LINE SMOOTH",
"410 0 OFFCURVE",
"480 60 OFFCURVE",
"493 135 CURVE",
"504 191 OFFCURVE",
"476 220 OFFCURVE",
"449 239 CURVE",
"432 249 OFFCURVE",
"413 256 OFFCURVE",
"390 260 CURVE",
"410 265 OFFCURVE",
"429 272 OFFCURVE",
"446 281 CURVE SMOOTH",
"475 297 OFFCURVE",
"507 325 OFFCURVE",
"515 370 CURVE SMOOTH",
"526 439 OFFCURVE",
"479 500 OFFCURVE",
"333 500 CURVE SMOOTH",
"133 500 LINE",
"45 0 LINE"
);
},
{
closed = 1;
nodes = (
"222 210 LINE",
"282 210 LINE",
"342 210 OFFCURVE",
"363 185 OFFCURVE",
"356 150 CURVE SMOOTH",
"349 115 OFFCURVE",
"320 90 OFFCURVE",
"260 90 CURVE SMOOTH",
"200 90 LINE"
);
},
{
closed = 1;
nodes = (
"257 410 LINE",
"317 410 LINE",
"357 410 OFFCURVE",
"379 386 OFFCURVE",
"372 355 CURVE",
"367 324 OFFCURVE",
"337 300 OFFCURVE",
"297 300 CURVE SMOOTH",
"237 300 LINE"
);
}
);
width = 530;
}
);
unicode = 0432;
},
{
color = 4;
glyphname = "ge-cy";
layers = (
{
anchors = (
{
name = bottomright;
position = "{50, 0}";
},
{
name = center;
position = "{178, 250}";
},
{
name = top;
position = "{302, 500}";
}
);
layerId = UUID0;
paths = (
{
closed = 1;
nodes = (
"150 0 LINE",
"225 430 LINE",
"455 430 LINE",
"468 500 LINE",
"138 500 LINE",
"50 0 LINE"
);
}
);
width = 415;
},
{
anchors = (
{
name = bottomright;
position = "{45, 0}";
},
{
name = center;
position = "{186, 250}";
},
{
name = top;
position = "{329, 500}";
}
);
layerId = "EFCBAD9B-4238-4620-A1C0-521E4552FF66";
paths = (
{
closed = 1;
nodes = (
"185 0 LINE",
"257 410 LINE",
"467 410 LINE",
"483 500 LINE",
"133 500 LINE",
"45 0 LINE"
);
}
);
width = 430;
}
);
unicode = 0433;
},
{
color = 4;
glyphname = "gheupturn-cy";
layers = (
{
layerId = UUID0;
paths = (
{
closed = 1;
nodes = (
"150 0 LINE",
"225 430 LINE",
"455 430 LINE",
"484 590 LINE",
"404 590 LINE",
"378 500 LINE",
"138 500 LINE",
"50 0 LINE"
);
}
);
width = 415;
},
{
layerId = "EFCBAD9B-4238-4620-A1C0-521E4552FF66";
paths = (
{
closed = 1;
nodes = (
"185 0 LINE",
"257 410 LINE",
"467 410 LINE",
"500 600 LINE",
"405 600 LINE",
"373 500 LINE",
"133 500 LINE",
"45 0 LINE"
);
}
);
width = 430;
}
);
unicode = 0491;
},
{
color = 4;
glyphname = "de-cy";
layers = (
{
layerId = UUID0;
paths = (
{
closed = 1;
nodes = (
"40 -140 LINE",
"80 0 LINE",
"405 0 LINE",
"395 -140 LINE",
"475 -140 LINE",
"512 70 LINE",
"447 70 LINE",
"523 500 LINE",
"188 500 LINE",
"123 220 LINE SMOOTH",
"112 172 OFFCURVE",
"94 136 OFFCURVE",
"75 109 CURVE SMOOTH",
"64 94 OFFCURVE",
"53 81 OFFCURVE",
"42 70 CURVE",
"-8 70 LINE",
"-44 -140 LINE"
);
},
{
closed = 1;
nodes = (
"153 81 OFFCURVE",
"164 94 OFFCURVE",
"175 109 CURVE SMOOTH",
"194 136 OFFCURVE",
"212 172 OFFCURVE",
"223 220 CURVE SMOOTH",
"270 430 LINE",
"410 430 LINE",
"347 70 LINE",
"142 70 LINE"
);
}
);
width = 560;
},
{
layerId = "EFCBAD9B-4238-4620-A1C0-521E4552FF66";
paths = (
{
closed = 1;
nodes = (
"65 -140 LINE",
"110 0 LINE",
"415 0 LINE",
"410 -140 LINE",
"515 -140 LINE",
"555 90 LINE",
"490 90 LINE",
"563 500 LINE",
"188 500 LINE",
"117 210 LINE SMOOTH",
"106 167 OFFCURVE",
"88 137 OFFCURVE",
"73 118 CURVE SMOOTH",
"64 107 OFFCURVE",
"55 97 OFFCURVE",
"45 90 CURVE",
"-5 90 LINE",
"-44 -140 LINE"
);
},
{
closed = 1;
nodes = (
"191 97 OFFCURVE",
"200 107 OFFCURVE",
"209 118 CURVE SMOOTH",
"224 137 OFFCURVE",
"242 167 OFFCURVE",
"253 210 CURVE SMOOTH",
"302 410 LINE",
"407 410 LINE",
"350 90 LINE",
"181 90 LINE"
);
}
);
width = 600;
}
);
unicode = 0434;
},
{
color = 4;
glyphname = "zhe-cy";
layers = (
{
anchors = (
{
name = bottomright;
position = "{526, 0}";
},
{
name = top;
position = "{430, 500}";
}
);
layerId = UUID0;
paths = (
{
closed = 1;
nodes = (
"114 -10 OFFCURVE",
"149 20 OFFCURVE",
"173 75 CURVE SMOOTH",
"214 170 LINE",
"229 201 OFFCURVE",
"253 220 OFFCURVE",
"288 220 CURVE SMOOTH",
"333 220 LINE",
"295 0 LINE",
"395 0 LINE",
"433 220 LINE",
"478 220 LINE SMOOTH",
"513 220 OFFCURVE",
"531 201 OFFCURVE",
"534 170 CURVE SMOOTH",
"543 75 LINE",
"547 20 OFFCURVE",
"572 -10 OFFCURVE",
"628 -10 CURVE SMOOTH",
"645 -10 OFFCURVE",
"660 -8 OFFCURVE",
"672 -5 CURVE SMOOTH",
"679 -4 OFFCURVE",
"685 -2 OFFCURVE",
"690 0 CURVE",
"691 65 LINE",
"686 65 LINE",
"679 62 LINE",
"674 61 OFFCURVE",
"669 60 OFFCURVE",
"665 60 CURVE SMOOTH",
"650 60 OFFCURVE",
"642 70 OFFCURVE",
"640 90 CURVE SMOOTH",
"632 185 LINE SMOOTH",
"627 245 OFFCURVE",
"560 260 OFFCURVE",
"555 260 CURVE SMOOTH",
"564 260 OFFCURVE",
"623 270 OFFCURVE",
"647 325 CURVE",
"682 410 LINE SMOOTH",
"690 430 OFFCURVE",
"702 440 OFFCURVE",
"717 440 CURVE SMOOTH",
"722 440 OFFCURVE",
"726 438 OFFCURVE",
"730 437 CURVE SMOOTH",
"736 435 LINE",
"741 435 LINE",
"763 500 LINE",
"758 501 OFFCURVE",
"753 503 OFFCURVE",
"747 505 CURVE SMOOTH",
"736 508 OFFCURVE",
"721 510 OFFCURVE",
"704 510 CURVE SMOOTH",
"647 510 OFFCURVE",
"612 481 OFFCURVE",
"589 425 CURVE SMOOTH",
"554 340 LINE SMOOTH",
"542 309 OFFCURVE",
"520 290 OFFCURVE",
"481 290 CURVE SMOOTH",
"446 290 LINE",
"483 500 LINE",
"383 500 LINE",
"346 290 LINE",
"311 290 LINE SMOOTH",
"272 290 OFFCURVE",
"257 309 OFFCURVE",
"254 340 CURVE",
"249 425 LINE SMOOTH",
"246 481 OFFCURVE",
"221 510 OFFCURVE",
"164 510 CURVE SMOOTH",
"145 510 OFFCURVE",
"131 508 OFFCURVE",
"120 505 CURVE SMOOTH",
"103 500 LINE",
"101 435 LINE",
"106 435 LINE",
"113 437 LINE SMOOTH",
"117 438 OFFCURVE",
"122 440 OFFCURVE",
"127 440 CURVE SMOOTH",
"142 440 OFFCURVE",
"150 430 OFFCURVE",
"152 410 CURVE",
"157 325 LINE SMOOTH",
"160 268 OFFCURVE",
"220 260 OFFCURVE",
"225 260 CURVE",
"216 257 OFFCURVE",
"149 245 OFFCURVE",
"122 185 CURVE SMOOTH",
"80 90 LINE SMOOTH",
"72 70 OFFCURVE",
"60 60 OFFCURVE",
"45 60 CURVE SMOOTH",
"40 60 OFFCURVE",
"36 61 OFFCURVE",
"32 62 CURVE SMOOTH",
"26 65 LINE",
"21 65 LINE",
"0 0 LINE",
"5 -2 OFFCURVE",
"10 -4 OFFCURVE",
"16 -5 CURVE SMOOTH",
"27 -8 OFFCURVE",
"41 -10 OFFCURVE",
"58 -10 CURVE SMOOTH"
);
}
);
width = 740;
},
{
anchors = (
{
name = bottomright;
position = "{536, 0}";
},
{
name = top;
position = "{447, 500}";
}
);
layerId = "EFCBAD9B-4238-4620-A1C0-521E4552FF66";
paths = (
{
closed = 1;
nodes = (
"144 -10 OFFCURVE",
"183 25 OFFCURVE",
"202 70 CURVE SMOOTH",
"244 170 LINE SMOOTH",
"255 195 OFFCURVE",
"271 210 OFFCURVE",
"302 210 CURVE SMOOTH",
"327 210 LINE",
"290 0 LINE",
"430 0 LINE",
"467 210 LINE",
"492 210 LINE SMOOTH",
"523 210 OFFCURVE",
"533 195 OFFCURVE",
"534 170 CURVE",
"542 70 LINE SMOOTH",
"545 25 OFFCURVE",
"572 -10 OFFCURVE",
"643 -10 CURVE SMOOTH",
"666 -10 OFFCURVE",
"686 -7 OFFCURVE",
"701 -3 CURVE SMOOTH",
"710 0 OFFCURVE",
"718 2 OFFCURVE",
"725 5 CURVE",
"724 85 LINE",
"719 85 LINE",
"713 82 LINE",
"708 81 OFFCURVE",
"703 80 OFFCURVE",
"699 80 CURVE SMOOTH",
"688 80 OFFCURVE",
"679 90 OFFCURVE",
"678 105 CURVE SMOOTH",
"672 185 LINE SMOOTH",
"669 217 OFFCURVE",
"648 236 OFFCURVE",
"627 247 CURVE SMOOTH",
"615 254 OFFCURVE",
"601 258 OFFCURVE",
"585 260 CURVE",
"600 263 OFFCURVE",
"613 267 OFFCURVE",
"626 272 CURVE SMOOTH",
"649 281 OFFCURVE",
"674 297 OFFCURVE",
"687 325 CURVE SMOOTH",
"719 395 LINE SMOOTH",
"726 410 OFFCURVE",
"738 420 OFFCURVE",
"749 420 CURVE SMOOTH",
"754 420 OFFCURVE",
"758 418 OFFCURVE",
"762 417 CURVE SMOOTH",
"768 415 LINE",
"773 415 LINE",
"802 495 LINE",
"780 502 LINE SMOOTH",
"765 506 OFFCURVE",
"747 510 OFFCURVE",
"724 510 CURVE SMOOTH",
"653 510 OFFCURVE",
"615 475 OFFCURVE",
"595 430 CURVE SMOOTH",
"554 340 LINE SMOOTH",
"543 315 OFFCURVE",
"528 300 OFFCURVE",
"497 300 CURVE SMOOTH",
"482 300 LINE",
"518 500 LINE",
"378 500 LINE",
"342 300 LINE",
"327 300 LINE SMOOTH",
"296 300 OFFCURVE",
"287 315 OFFCURVE",
"284 340 CURVE SMOOTH",
"275 430 LINE SMOOTH",
"271 475 OFFCURVE",
"245 510 OFFCURVE",
"174 510 CURVE SMOOTH",
"151 510 OFFCURVE",
"131 506 OFFCURVE",
"116 502 CURVE SMOOTH",
"92 495 LINE",
"93 415 LINE",
"98 415 LINE",
"105 417 LINE SMOOTH",
"109 418 OFFCURVE",
"114 420 OFFCURVE",
"119 420 CURVE SMOOTH",
"130 420 OFFCURVE",
"138 410 OFFCURVE",
"139 395 CURVE",
"147 325 LINE SMOOTH",
"150 297 OFFCURVE",
"169 281 OFFCURVE",
"188 272 CURVE SMOOTH",
"199 267 OFFCURVE",
"212 263 OFFCURVE",
"225 260 CURVE",
"209 258 OFFCURVE",
"194 254 OFFCURVE",
"179 247 CURVE SMOOTH",
"154 236 OFFCURVE",
"127 217 OFFCURVE",
"112 185 CURVE",
"78 105 LINE SMOOTH",
"71 90 OFFCURVE",
"60 80 OFFCURVE",
"49 80 CURVE SMOOTH",
"45 80 OFFCURVE",
"40 81 OFFCURVE",
"35 82 CURVE",
"29 85 LINE",
"24 85 LINE",
"-5 5 LINE",
"17 -3 LINE",
"32 -7 OFFCURVE",
"50 -10 OFFCURVE",
"73 -10 CURVE SMOOTH"
);
}
);
width = 770;
}
);
unicode = 0436;
},
{
color = 4;
glyphname = "ze-cy";
layers = (
{
anchors = (
{
name = bottom;
position = "{161, 0}";
},
{
name = top;
position = "{259, 500}";
}
);
layerId = UUID0;
paths = (
{
closed = 1;
nodes = (
"318 -10 OFFCURVE",
"389 50 OFFCURVE",
"402 130 CURVE",
"413 186 OFFCURVE",
"390 220 OFFCURVE",
"364 238 CURVE SMOOTH",
"349 249 OFFCURVE",
"331 256 OFFCURVE",
"310 260 CURVE",
"331 265 OFFCURVE",
"350 273 OFFCURVE",
"367 284 CURVE SMOOTH",
"396 301 OFFCURVE",
"428 330 OFFCURVE",
"436 375 CURVE SMOOTH",
"449 450 OFFCURVE",
"399 510 OFFCURVE",
"264 510 CURVE SMOOTH",
"208 510 OFFCURVE",
"164 497 OFFCURVE",
"133 482 CURVE SMOOTH",
"115 474 OFFCURVE",
"99 465 OFFCURVE",
"85 455 CURVE",
"109 395 LINE",
"119 395 LINE",
"130 403 OFFCURVE",
"141 410 OFFCURVE",
"154 417 CURVE SMOOTH",
"177 428 OFFCURVE",
"207 440 OFFCURVE",
"242 440 CURVE SMOOTH",
"318 440 OFFCURVE",
"342 410 OFFCURVE",
"334 365 CURVE SMOOTH",
"326 320 OFFCURVE",
"291 290 OFFCURVE",
"231 290 CURVE SMOOTH",
"146 290 LINE",
"133 220 LINE",
"218 220 LINE SMOOTH",
"289 220 OFFCURVE",
"313 191 OFFCURVE",
"304 140 CURVE SMOOTH",
"295 89 OFFCURVE",
"260 60 OFFCURVE",
"175 60 CURVE SMOOTH",
"135 60 OFFCURVE",
"104 71 OFFCURVE",
"84 82 CURVE SMOOTH",
"72 89 OFFCURVE",
"62 96 OFFCURVE",
"53 105 CURVE",
"43 105 LINE",
"-3 45 LINE",
"8 34 OFFCURVE",
"23 25 OFFCURVE",
"40 17 CURVE SMOOTH",
"69 2 OFFCURVE",
"113 -10 OFFCURVE",
"173 -10 CURVE SMOOTH"
);
}
);
width = 450;
},
{
anchors = (
{
name = bottom;
position = "{179, 0}";
},
{
name = top;
position = "{277, 500}";
}
);
layerId = "EFCBAD9B-4238-4620-A1C0-521E4552FF66";
paths = (
{
closed = 1;
nodes = (
"342 -10 OFFCURVE",
"414 50 OFFCURVE",
"427 130 CURVE SMOOTH",
"436 187 OFFCURVE",
"412 219 OFFCURVE",
"384 238 CURVE SMOOTH",
"367 249 OFFCURVE",
"348 256 OFFCURVE",
"325 260 CURVE",
"347 264 OFFCURVE",
"367 271 OFFCURVE",
"386 280 CURVE SMOOTH",
"418 296 OFFCURVE",
"452 324 OFFCURVE",
"461 375 CURVE SMOOTH",
"474 450 OFFCURVE",
"424 510 OFFCURVE",
"269 510 CURVE SMOOTH",
"213 510 OFFCURVE",
"167 497 OFFCURVE",
"134 485 CURVE SMOOTH",
"115 478 OFFCURVE",
"97 469 OFFCURVE",
"81 460 CURVE",
"112 380 LINE",
"122 380 LINE",
"132 387 OFFCURVE",
"143 394 OFFCURVE",
"155 400 CURVE SMOOTH",
"176 411 OFFCURVE",
"205 420 OFFCURVE",
"244 420 CURVE SMOOTH",
"304 420 OFFCURVE",
"324 396 OFFCURVE",
"319 365 CURVE SMOOTH",
"312 325 OFFCURVE",
"283 300 OFFCURVE",
"232 300 CURVE SMOOTH",
"147 300 LINE",
"132 210 LINE",
"217 210 LINE SMOOTH",
"277 210 OFFCURVE",
"297 185 OFFCURVE",
"290 145 CURVE SMOOTH",
"283 105 OFFCURVE",
"254 80 OFFCURVE",
"189 80 CURVE SMOOTH",
"144 80 OFFCURVE",
"113 89 OFFCURVE",
"94 100 CURVE SMOOTH",
"82 106 OFFCURVE",
"73 113 OFFCURVE",
"66 120 CURVE",
"56 120 LINE",
"-3 40 LINE",
"10 31 OFFCURVE",
"25 22 OFFCURVE",
"43 15 CURVE SMOOTH",
"74 2 OFFCURVE",
"119 -10 OFFCURVE",
"183 -10 CURVE SMOOTH"
);
}
);
width = 465;
}
);
unicode = 0437;
},
{
color = 4;
glyphname = "ii-cy";
layers = (
{
anchors = (
{
name = bottomright;
position = "{355, 0}";
},
{
name = top;
position = "{327, 500}";
}
);
background = {
components = (
{
name = "en-cy";
transform = "{1, 0, 0, 1, -5, 0}";
}
);
};
guideLines = (
{
angle = 79.8545;
position = "{208, 358}";
},
{
angle = 79.8544;
position = "{418, 358}";
}
);
layerId = UUID0;
paths = (
{
closed = 1;
nodes = (
"145 0 LINE",
"378 306 LINE SMOOTH",
"389 321 OFFCURVE",
"399 337 OFFCURVE",
"408 352 CURVE SMOOTH",
"413 360 OFFCURVE",
"417 368 OFFCURVE",
"420 376 CURVE",
"424 376 LINE",
"418 352 LINE",
"408 306 LINE",
"355 0 LINE",
"450 0 LINE",
"538 500 LINE",
"443 500 LINE",
"210 205 LINE SMOOTH",
"198 190 OFFCURVE",
"188 174 OFFCURVE",
"180 159 CURVE SMOOTH",
"176 151 OFFCURVE",
"171 143 OFFCURVE",
"168 135 CURVE",
"164 135 LINE",
"170 159 LINE",
"180 205 LINE",
"233 500 LINE",
"138 500 LINE",
"50 0 LINE"
);
}
);
width = 550;
},
{
anchors = (
{
name = bottomright;
position = "{355, 0}";
},
{
name = top;
position = "{354, 500}";
}
);
background = {
components = (
{
name = "en-cy";
transform = "{1, 0, 0, 1, -10, 0}";
}
);
};
guideLines = (
{
angle = 79.7332;
position = "{239, 368}";
},
{
angle = 79.9427;
position = "{379, 133}";
}
);
layerId = "EFCBAD9B-4238-4620-A1C0-521E4552FF66";
paths = (
{
closed = 1;
nodes = (
"170 0 LINE",
"380 275 LINE SMOOTH",
"398 299 OFFCURVE",
"402 306 OFFCURVE",
"415 335 CURVE",
"419 335 LINE",
"412 309 OFFCURVE",
"409 298 OFFCURVE",
"405 275 CURVE SMOOTH",
"355 0 LINE",
"485 0 LINE",
"573 500 LINE",
"448 500 LINE",
"239 225 LINE SMOOTH",
"221 201 OFFCURVE",
"213 184 OFFCURVE",
"204 165 CURVE",
"200 165 LINE",
"204 182 OFFCURVE",
"210 202 OFFCURVE",
"214 225 CURVE SMOOTH",
"263 500 LINE",
"133 500 LINE",
"45 0 LINE"
);
}
);
width = 580;
}
);
leftMetricsKey = "en-cy";
rightMetricsKey = "en-cy";
unicode = 0438;
},
